%TF.GenerationSoftware,KiCad,Pcbnew,7.0.10-7.0.10~ubuntu20.04.1*%
%TF.CreationDate,2024-01-07T18:49:31+01:00*%
%TF.ProjectId,msx-omega-usbkeybctrl,6d73782d-6f6d-4656-9761-2d7573626b65,A*%
%TF.SameCoordinates,Original*%
%TF.FileFunction,Drillmap*%
%TF.FilePolarity,Positive*%
%FSLAX45Y45*%
G04 Gerber Fmt 4.5, Leading zero omitted, Abs format (unit mm)*
G04 Created by KiCad (PCBNEW 7.0.10-7.0.10~ubuntu20.04.1) date 2024-01-07 18:49:31*
%MOMM*%
%LPD*%
G01*
G04 APERTURE LIST*
%ADD10C,0.100000*%
%ADD11C,0.200000*%
%ADD12C,0.230000*%
%ADD13C,0.304800*%
G04 APERTURE END LIST*
D10*
X13680000Y-5770000D02*
X13680000Y-9870000D01*
X5030000Y-9870000D02*
X5030000Y-5770000D01*
X13680000Y-9870000D02*
X5030000Y-9870000D01*
X5030000Y-5770000D02*
X13680000Y-5770000D01*
D11*
D10*
X7640000Y-9160000D02*
X7680000Y-9200000D01*
X7680000Y-9160000D02*
X7640000Y-9200000D01*
X8270000Y-8700000D02*
X8310000Y-8740000D01*
X8310000Y-8700000D02*
X8270000Y-8740000D01*
X8270000Y-8810000D02*
X8310000Y-8850000D01*
X8310000Y-8810000D02*
X8270000Y-8850000D01*
X10729433Y-7940000D02*
X10769433Y-7980000D01*
X10769433Y-7940000D02*
X10729433Y-7980000D01*
X10885000Y-7785000D02*
X10925000Y-7825000D01*
X10925000Y-7785000D02*
X10885000Y-7825000D01*
X10920000Y-7950000D02*
X10960000Y-7990000D01*
X10960000Y-7950000D02*
X10920000Y-7990000D01*
X10930000Y-7170000D02*
X10970000Y-7210000D01*
X10970000Y-7170000D02*
X10930000Y-7210000D01*
X11060000Y-7571250D02*
X11100000Y-7611250D01*
X11100000Y-7571250D02*
X11060000Y-7611250D01*
X11060000Y-7700000D02*
X11100000Y-7740000D01*
X11100000Y-7700000D02*
X11060000Y-7740000D01*
X11060000Y-7830000D02*
X11100000Y-7870000D01*
X11100000Y-7830000D02*
X11060000Y-7870000D01*
X11080000Y-7170000D02*
X11120000Y-7210000D01*
X11120000Y-7170000D02*
X11080000Y-7210000D01*
X6406000Y-7600000D02*
G75*
G03*
X6314000Y-7600000I-46000J0D01*
G01*
X6314000Y-7600000D02*
G75*
G03*
X6406000Y-7600000I46000J0D01*
G01*
X6406000Y-7850000D02*
G75*
G03*
X6314000Y-7850000I-46000J0D01*
G01*
X6314000Y-7850000D02*
G75*
G03*
X6406000Y-7850000I46000J0D01*
G01*
X6406000Y-8050000D02*
G75*
G03*
X6314000Y-8050000I-46000J0D01*
G01*
X6314000Y-8050000D02*
G75*
G03*
X6406000Y-8050000I46000J0D01*
G01*
X6406000Y-8300000D02*
G75*
G03*
X6314000Y-8300000I-46000J0D01*
G01*
X6314000Y-8300000D02*
G75*
G03*
X6406000Y-8300000I46000J0D01*
G01*
X5630000Y-9100000D02*
X5630000Y-9200000D01*
X5580000Y-9150000D02*
X5680000Y-9150000D01*
X5884000Y-9100000D02*
X5884000Y-9200000D01*
X5834000Y-9150000D02*
X5934000Y-9150000D01*
X6138000Y-9100000D02*
X6138000Y-9200000D01*
X6088000Y-9150000D02*
X6188000Y-9150000D01*
X6392000Y-9100000D02*
X6392000Y-9200000D01*
X6342000Y-9150000D02*
X6442000Y-9150000D01*
X6646000Y-9100000D02*
X6646000Y-9200000D01*
X6596000Y-9150000D02*
X6696000Y-9150000D01*
X9490000Y-6756000D02*
X9490000Y-6856000D01*
X9440000Y-6806000D02*
X9540000Y-6806000D01*
X9490000Y-7010000D02*
X9490000Y-7110000D01*
X9440000Y-7060000D02*
X9540000Y-7060000D01*
X9490000Y-7264000D02*
X9490000Y-7364000D01*
X9440000Y-7314000D02*
X9540000Y-7314000D01*
X9490000Y-7518000D02*
X9490000Y-7618000D01*
X9440000Y-7568000D02*
X9540000Y-7568000D01*
X12480000Y-6880000D02*
X12480000Y-6980000D01*
X12430000Y-6930000D02*
X12530000Y-6930000D01*
X12480000Y-7134000D02*
X12480000Y-7234000D01*
X12430000Y-7184000D02*
X12530000Y-7184000D01*
X12480000Y-7388000D02*
X12480000Y-7488000D01*
X12430000Y-7438000D02*
X12530000Y-7438000D01*
X12480000Y-7642000D02*
X12480000Y-7742000D01*
X12430000Y-7692000D02*
X12530000Y-7692000D01*
X12480000Y-7896000D02*
X12480000Y-7996000D01*
X12430000Y-7946000D02*
X12530000Y-7946000D01*
X12480000Y-8150000D02*
X12480000Y-8250000D01*
X12430000Y-8200000D02*
X12530000Y-8200000D01*
X12480000Y-8404000D02*
X12480000Y-8504000D01*
X12430000Y-8454000D02*
X12530000Y-8454000D01*
X12480000Y-8658000D02*
X12480000Y-8758000D01*
X12430000Y-8708000D02*
X12530000Y-8708000D01*
X12734000Y-6880000D02*
X12734000Y-6980000D01*
X12684000Y-6930000D02*
X12784000Y-6930000D01*
X12734000Y-7134000D02*
X12734000Y-7234000D01*
X12684000Y-7184000D02*
X12784000Y-7184000D01*
X12734000Y-7388000D02*
X12734000Y-7488000D01*
X12684000Y-7438000D02*
X12784000Y-7438000D01*
X12734000Y-7642000D02*
X12734000Y-7742000D01*
X12684000Y-7692000D02*
X12784000Y-7692000D01*
X12734000Y-7896000D02*
X12734000Y-7996000D01*
X12684000Y-7946000D02*
X12784000Y-7946000D01*
X12734000Y-8150000D02*
X12734000Y-8250000D01*
X12684000Y-8200000D02*
X12784000Y-8200000D01*
X12734000Y-8404000D02*
X12734000Y-8504000D01*
X12684000Y-8454000D02*
X12784000Y-8454000D01*
X12734000Y-8658000D02*
X12734000Y-8758000D01*
X12684000Y-8708000D02*
X12784000Y-8708000D01*
D12*
X6170318Y-7374318D02*
X6170318Y-7211682D01*
X6007682Y-7211682D01*
X6007682Y-7374318D01*
X6170318Y-7374318D01*
X6170318Y-8688318D02*
X6170318Y-8525682D01*
X6007682Y-8525682D01*
X6007682Y-8688318D01*
X6170318Y-8688318D01*
D13*
X5280000Y-6172400D02*
X5432400Y-6020000D01*
X5280000Y-5867600D01*
X5127600Y-6020000D01*
X5280000Y-6172400D01*
X5280000Y-9772400D02*
X5432400Y-9620000D01*
X5280000Y-9467600D01*
X5127600Y-9620000D01*
X5280000Y-9772400D01*
X13280000Y-6172400D02*
X13432400Y-6020000D01*
X13280000Y-5867600D01*
X13127600Y-6020000D01*
X13280000Y-6172400D01*
X13280000Y-9772400D02*
X13432400Y-9620000D01*
X13280000Y-9467600D01*
X13127600Y-9620000D01*
X13280000Y-9772400D01*
X13408000Y-8331400D02*
X13560400Y-8179000D01*
X13408000Y-8026600D01*
X13255600Y-8179000D01*
X13408000Y-8331400D01*
D11*
X5285777Y-10186484D02*
X5285777Y-9986484D01*
X5285777Y-9986484D02*
X5333396Y-9986484D01*
X5333396Y-9986484D02*
X5361967Y-9996008D01*
X5361967Y-9996008D02*
X5381015Y-10015055D01*
X5381015Y-10015055D02*
X5390539Y-10034103D01*
X5390539Y-10034103D02*
X5400063Y-10072198D01*
X5400063Y-10072198D02*
X5400063Y-10100770D01*
X5400063Y-10100770D02*
X5390539Y-10138865D01*
X5390539Y-10138865D02*
X5381015Y-10157912D01*
X5381015Y-10157912D02*
X5361967Y-10176960D01*
X5361967Y-10176960D02*
X5333396Y-10186484D01*
X5333396Y-10186484D02*
X5285777Y-10186484D01*
X5485777Y-10186484D02*
X5485777Y-10053150D01*
X5485777Y-10091246D02*
X5495301Y-10072198D01*
X5495301Y-10072198D02*
X5504824Y-10062674D01*
X5504824Y-10062674D02*
X5523872Y-10053150D01*
X5523872Y-10053150D02*
X5542920Y-10053150D01*
X5609586Y-10186484D02*
X5609586Y-10053150D01*
X5609586Y-9986484D02*
X5600062Y-9996008D01*
X5600062Y-9996008D02*
X5609586Y-10005531D01*
X5609586Y-10005531D02*
X5619110Y-9996008D01*
X5619110Y-9996008D02*
X5609586Y-9986484D01*
X5609586Y-9986484D02*
X5609586Y-10005531D01*
X5733396Y-10186484D02*
X5714348Y-10176960D01*
X5714348Y-10176960D02*
X5704824Y-10157912D01*
X5704824Y-10157912D02*
X5704824Y-9986484D01*
X5838158Y-10186484D02*
X5819110Y-10176960D01*
X5819110Y-10176960D02*
X5809586Y-10157912D01*
X5809586Y-10157912D02*
X5809586Y-9986484D01*
X6066729Y-10186484D02*
X6066729Y-9986484D01*
X6066729Y-9986484D02*
X6133396Y-10129341D01*
X6133396Y-10129341D02*
X6200062Y-9986484D01*
X6200062Y-9986484D02*
X6200062Y-10186484D01*
X6381015Y-10186484D02*
X6381015Y-10081722D01*
X6381015Y-10081722D02*
X6371491Y-10062674D01*
X6371491Y-10062674D02*
X6352443Y-10053150D01*
X6352443Y-10053150D02*
X6314348Y-10053150D01*
X6314348Y-10053150D02*
X6295301Y-10062674D01*
X6381015Y-10176960D02*
X6361967Y-10186484D01*
X6361967Y-10186484D02*
X6314348Y-10186484D01*
X6314348Y-10186484D02*
X6295301Y-10176960D01*
X6295301Y-10176960D02*
X6285777Y-10157912D01*
X6285777Y-10157912D02*
X6285777Y-10138865D01*
X6285777Y-10138865D02*
X6295301Y-10119817D01*
X6295301Y-10119817D02*
X6314348Y-10110293D01*
X6314348Y-10110293D02*
X6361967Y-10110293D01*
X6361967Y-10110293D02*
X6381015Y-10100770D01*
X6476253Y-10053150D02*
X6476253Y-10253150D01*
X6476253Y-10062674D02*
X6495301Y-10053150D01*
X6495301Y-10053150D02*
X6533396Y-10053150D01*
X6533396Y-10053150D02*
X6552443Y-10062674D01*
X6552443Y-10062674D02*
X6561967Y-10072198D01*
X6561967Y-10072198D02*
X6571491Y-10091246D01*
X6571491Y-10091246D02*
X6571491Y-10148389D01*
X6571491Y-10148389D02*
X6561967Y-10167436D01*
X6561967Y-10167436D02*
X6552443Y-10176960D01*
X6552443Y-10176960D02*
X6533396Y-10186484D01*
X6533396Y-10186484D02*
X6495301Y-10186484D01*
X6495301Y-10186484D02*
X6476253Y-10176960D01*
X6657205Y-10167436D02*
X6666729Y-10176960D01*
X6666729Y-10176960D02*
X6657205Y-10186484D01*
X6657205Y-10186484D02*
X6647682Y-10176960D01*
X6647682Y-10176960D02*
X6657205Y-10167436D01*
X6657205Y-10167436D02*
X6657205Y-10186484D01*
X6657205Y-10062674D02*
X6666729Y-10072198D01*
X6666729Y-10072198D02*
X6657205Y-10081722D01*
X6657205Y-10081722D02*
X6647682Y-10072198D01*
X6647682Y-10072198D02*
X6657205Y-10062674D01*
X6657205Y-10062674D02*
X6657205Y-10081722D01*
D10*
X4985000Y-10495000D02*
X5025000Y-10535000D01*
X5025000Y-10495000D02*
X4985000Y-10535000D01*
D11*
X5323872Y-10406484D02*
X5342920Y-10406484D01*
X5342920Y-10406484D02*
X5361967Y-10416008D01*
X5361967Y-10416008D02*
X5371491Y-10425531D01*
X5371491Y-10425531D02*
X5381015Y-10444579D01*
X5381015Y-10444579D02*
X5390539Y-10482674D01*
X5390539Y-10482674D02*
X5390539Y-10530293D01*
X5390539Y-10530293D02*
X5381015Y-10568389D01*
X5381015Y-10568389D02*
X5371491Y-10587436D01*
X5371491Y-10587436D02*
X5361967Y-10596960D01*
X5361967Y-10596960D02*
X5342920Y-10606484D01*
X5342920Y-10606484D02*
X5323872Y-10606484D01*
X5323872Y-10606484D02*
X5304824Y-10596960D01*
X5304824Y-10596960D02*
X5295301Y-10587436D01*
X5295301Y-10587436D02*
X5285777Y-10568389D01*
X5285777Y-10568389D02*
X5276253Y-10530293D01*
X5276253Y-10530293D02*
X5276253Y-10482674D01*
X5276253Y-10482674D02*
X5285777Y-10444579D01*
X5285777Y-10444579D02*
X5295301Y-10425531D01*
X5295301Y-10425531D02*
X5304824Y-10416008D01*
X5304824Y-10416008D02*
X5323872Y-10406484D01*
X5476253Y-10587436D02*
X5485777Y-10596960D01*
X5485777Y-10596960D02*
X5476253Y-10606484D01*
X5476253Y-10606484D02*
X5466729Y-10596960D01*
X5466729Y-10596960D02*
X5476253Y-10587436D01*
X5476253Y-10587436D02*
X5476253Y-10606484D01*
X5657205Y-10473150D02*
X5657205Y-10606484D01*
X5609586Y-10396960D02*
X5561967Y-10539817D01*
X5561967Y-10539817D02*
X5685777Y-10539817D01*
X5800062Y-10406484D02*
X5819110Y-10406484D01*
X5819110Y-10406484D02*
X5838158Y-10416008D01*
X5838158Y-10416008D02*
X5847682Y-10425531D01*
X5847682Y-10425531D02*
X5857205Y-10444579D01*
X5857205Y-10444579D02*
X5866729Y-10482674D01*
X5866729Y-10482674D02*
X5866729Y-10530293D01*
X5866729Y-10530293D02*
X5857205Y-10568389D01*
X5857205Y-10568389D02*
X5847682Y-10587436D01*
X5847682Y-10587436D02*
X5838158Y-10596960D01*
X5838158Y-10596960D02*
X5819110Y-10606484D01*
X5819110Y-10606484D02*
X5800062Y-10606484D01*
X5800062Y-10606484D02*
X5781015Y-10596960D01*
X5781015Y-10596960D02*
X5771491Y-10587436D01*
X5771491Y-10587436D02*
X5761967Y-10568389D01*
X5761967Y-10568389D02*
X5752443Y-10530293D01*
X5752443Y-10530293D02*
X5752443Y-10482674D01*
X5752443Y-10482674D02*
X5761967Y-10444579D01*
X5761967Y-10444579D02*
X5771491Y-10425531D01*
X5771491Y-10425531D02*
X5781015Y-10416008D01*
X5781015Y-10416008D02*
X5800062Y-10406484D01*
X5990539Y-10406484D02*
X6009586Y-10406484D01*
X6009586Y-10406484D02*
X6028634Y-10416008D01*
X6028634Y-10416008D02*
X6038158Y-10425531D01*
X6038158Y-10425531D02*
X6047682Y-10444579D01*
X6047682Y-10444579D02*
X6057205Y-10482674D01*
X6057205Y-10482674D02*
X6057205Y-10530293D01*
X6057205Y-10530293D02*
X6047682Y-10568389D01*
X6047682Y-10568389D02*
X6038158Y-10587436D01*
X6038158Y-10587436D02*
X6028634Y-10596960D01*
X6028634Y-10596960D02*
X6009586Y-10606484D01*
X6009586Y-10606484D02*
X5990539Y-10606484D01*
X5990539Y-10606484D02*
X5971491Y-10596960D01*
X5971491Y-10596960D02*
X5961967Y-10587436D01*
X5961967Y-10587436D02*
X5952443Y-10568389D01*
X5952443Y-10568389D02*
X5942920Y-10530293D01*
X5942920Y-10530293D02*
X5942920Y-10482674D01*
X5942920Y-10482674D02*
X5952443Y-10444579D01*
X5952443Y-10444579D02*
X5961967Y-10425531D01*
X5961967Y-10425531D02*
X5971491Y-10416008D01*
X5971491Y-10416008D02*
X5990539Y-10406484D01*
X6142920Y-10606484D02*
X6142920Y-10473150D01*
X6142920Y-10492198D02*
X6152443Y-10482674D01*
X6152443Y-10482674D02*
X6171491Y-10473150D01*
X6171491Y-10473150D02*
X6200063Y-10473150D01*
X6200063Y-10473150D02*
X6219110Y-10482674D01*
X6219110Y-10482674D02*
X6228634Y-10501722D01*
X6228634Y-10501722D02*
X6228634Y-10606484D01*
X6228634Y-10501722D02*
X6238158Y-10482674D01*
X6238158Y-10482674D02*
X6257205Y-10473150D01*
X6257205Y-10473150D02*
X6285777Y-10473150D01*
X6285777Y-10473150D02*
X6304824Y-10482674D01*
X6304824Y-10482674D02*
X6314348Y-10501722D01*
X6314348Y-10501722D02*
X6314348Y-10606484D01*
X6409586Y-10606484D02*
X6409586Y-10473150D01*
X6409586Y-10492198D02*
X6419110Y-10482674D01*
X6419110Y-10482674D02*
X6438158Y-10473150D01*
X6438158Y-10473150D02*
X6466729Y-10473150D01*
X6466729Y-10473150D02*
X6485777Y-10482674D01*
X6485777Y-10482674D02*
X6495301Y-10501722D01*
X6495301Y-10501722D02*
X6495301Y-10606484D01*
X6495301Y-10501722D02*
X6504824Y-10482674D01*
X6504824Y-10482674D02*
X6523872Y-10473150D01*
X6523872Y-10473150D02*
X6552443Y-10473150D01*
X6552443Y-10473150D02*
X6571491Y-10482674D01*
X6571491Y-10482674D02*
X6581015Y-10501722D01*
X6581015Y-10501722D02*
X6581015Y-10606484D01*
X6971491Y-10396960D02*
X6800063Y-10654103D01*
X7228634Y-10406484D02*
X7247682Y-10406484D01*
X7247682Y-10406484D02*
X7266729Y-10416008D01*
X7266729Y-10416008D02*
X7276253Y-10425531D01*
X7276253Y-10425531D02*
X7285777Y-10444579D01*
X7285777Y-10444579D02*
X7295301Y-10482674D01*
X7295301Y-10482674D02*
X7295301Y-10530293D01*
X7295301Y-10530293D02*
X7285777Y-10568389D01*
X7285777Y-10568389D02*
X7276253Y-10587436D01*
X7276253Y-10587436D02*
X7266729Y-10596960D01*
X7266729Y-10596960D02*
X7247682Y-10606484D01*
X7247682Y-10606484D02*
X7228634Y-10606484D01*
X7228634Y-10606484D02*
X7209586Y-10596960D01*
X7209586Y-10596960D02*
X7200063Y-10587436D01*
X7200063Y-10587436D02*
X7190539Y-10568389D01*
X7190539Y-10568389D02*
X7181015Y-10530293D01*
X7181015Y-10530293D02*
X7181015Y-10482674D01*
X7181015Y-10482674D02*
X7190539Y-10444579D01*
X7190539Y-10444579D02*
X7200063Y-10425531D01*
X7200063Y-10425531D02*
X7209586Y-10416008D01*
X7209586Y-10416008D02*
X7228634Y-10406484D01*
X7381015Y-10587436D02*
X7390539Y-10596960D01*
X7390539Y-10596960D02*
X7381015Y-10606484D01*
X7381015Y-10606484D02*
X7371491Y-10596960D01*
X7371491Y-10596960D02*
X7381015Y-10587436D01*
X7381015Y-10587436D02*
X7381015Y-10606484D01*
X7514348Y-10406484D02*
X7533396Y-10406484D01*
X7533396Y-10406484D02*
X7552444Y-10416008D01*
X7552444Y-10416008D02*
X7561967Y-10425531D01*
X7561967Y-10425531D02*
X7571491Y-10444579D01*
X7571491Y-10444579D02*
X7581015Y-10482674D01*
X7581015Y-10482674D02*
X7581015Y-10530293D01*
X7581015Y-10530293D02*
X7571491Y-10568389D01*
X7571491Y-10568389D02*
X7561967Y-10587436D01*
X7561967Y-10587436D02*
X7552444Y-10596960D01*
X7552444Y-10596960D02*
X7533396Y-10606484D01*
X7533396Y-10606484D02*
X7514348Y-10606484D01*
X7514348Y-10606484D02*
X7495301Y-10596960D01*
X7495301Y-10596960D02*
X7485777Y-10587436D01*
X7485777Y-10587436D02*
X7476253Y-10568389D01*
X7476253Y-10568389D02*
X7466729Y-10530293D01*
X7466729Y-10530293D02*
X7466729Y-10482674D01*
X7466729Y-10482674D02*
X7476253Y-10444579D01*
X7476253Y-10444579D02*
X7485777Y-10425531D01*
X7485777Y-10425531D02*
X7495301Y-10416008D01*
X7495301Y-10416008D02*
X7514348Y-10406484D01*
X7771491Y-10606484D02*
X7657206Y-10606484D01*
X7714348Y-10606484D02*
X7714348Y-10406484D01*
X7714348Y-10406484D02*
X7695301Y-10435055D01*
X7695301Y-10435055D02*
X7676253Y-10454103D01*
X7676253Y-10454103D02*
X7657206Y-10463627D01*
X7952444Y-10406484D02*
X7857206Y-10406484D01*
X7857206Y-10406484D02*
X7847682Y-10501722D01*
X7847682Y-10501722D02*
X7857206Y-10492198D01*
X7857206Y-10492198D02*
X7876253Y-10482674D01*
X7876253Y-10482674D02*
X7923872Y-10482674D01*
X7923872Y-10482674D02*
X7942920Y-10492198D01*
X7942920Y-10492198D02*
X7952444Y-10501722D01*
X7952444Y-10501722D02*
X7961967Y-10520770D01*
X7961967Y-10520770D02*
X7961967Y-10568389D01*
X7961967Y-10568389D02*
X7952444Y-10587436D01*
X7952444Y-10587436D02*
X7942920Y-10596960D01*
X7942920Y-10596960D02*
X7923872Y-10606484D01*
X7923872Y-10606484D02*
X7876253Y-10606484D01*
X7876253Y-10606484D02*
X7857206Y-10596960D01*
X7857206Y-10596960D02*
X7847682Y-10587436D01*
X8028634Y-10406484D02*
X8161967Y-10406484D01*
X8161967Y-10406484D02*
X8076253Y-10606484D01*
X8228634Y-10406484D02*
X8228634Y-10444579D01*
X8304825Y-10406484D02*
X8304825Y-10444579D01*
X8600063Y-10682674D02*
X8590539Y-10673150D01*
X8590539Y-10673150D02*
X8571491Y-10644579D01*
X8571491Y-10644579D02*
X8561968Y-10625531D01*
X8561968Y-10625531D02*
X8552444Y-10596960D01*
X8552444Y-10596960D02*
X8542920Y-10549341D01*
X8542920Y-10549341D02*
X8542920Y-10511246D01*
X8542920Y-10511246D02*
X8552444Y-10463627D01*
X8552444Y-10463627D02*
X8561968Y-10435055D01*
X8561968Y-10435055D02*
X8571491Y-10416008D01*
X8571491Y-10416008D02*
X8590539Y-10387436D01*
X8590539Y-10387436D02*
X8600063Y-10377912D01*
X8781015Y-10606484D02*
X8666730Y-10606484D01*
X8723872Y-10606484D02*
X8723872Y-10406484D01*
X8723872Y-10406484D02*
X8704825Y-10435055D01*
X8704825Y-10435055D02*
X8685777Y-10454103D01*
X8685777Y-10454103D02*
X8666730Y-10463627D01*
X8971491Y-10606484D02*
X8857206Y-10606484D01*
X8914349Y-10606484D02*
X8914349Y-10406484D01*
X8914349Y-10406484D02*
X8895301Y-10435055D01*
X8895301Y-10435055D02*
X8876253Y-10454103D01*
X8876253Y-10454103D02*
X8857206Y-10463627D01*
X9209587Y-10606484D02*
X9209587Y-10406484D01*
X9295301Y-10606484D02*
X9295301Y-10501722D01*
X9295301Y-10501722D02*
X9285777Y-10482674D01*
X9285777Y-10482674D02*
X9266730Y-10473150D01*
X9266730Y-10473150D02*
X9238158Y-10473150D01*
X9238158Y-10473150D02*
X9219111Y-10482674D01*
X9219111Y-10482674D02*
X9209587Y-10492198D01*
X9419111Y-10606484D02*
X9400063Y-10596960D01*
X9400063Y-10596960D02*
X9390539Y-10587436D01*
X9390539Y-10587436D02*
X9381015Y-10568389D01*
X9381015Y-10568389D02*
X9381015Y-10511246D01*
X9381015Y-10511246D02*
X9390539Y-10492198D01*
X9390539Y-10492198D02*
X9400063Y-10482674D01*
X9400063Y-10482674D02*
X9419111Y-10473150D01*
X9419111Y-10473150D02*
X9447682Y-10473150D01*
X9447682Y-10473150D02*
X9466730Y-10482674D01*
X9466730Y-10482674D02*
X9476253Y-10492198D01*
X9476253Y-10492198D02*
X9485777Y-10511246D01*
X9485777Y-10511246D02*
X9485777Y-10568389D01*
X9485777Y-10568389D02*
X9476253Y-10587436D01*
X9476253Y-10587436D02*
X9466730Y-10596960D01*
X9466730Y-10596960D02*
X9447682Y-10606484D01*
X9447682Y-10606484D02*
X9419111Y-10606484D01*
X9600063Y-10606484D02*
X9581015Y-10596960D01*
X9581015Y-10596960D02*
X9571492Y-10577912D01*
X9571492Y-10577912D02*
X9571492Y-10406484D01*
X9752444Y-10596960D02*
X9733396Y-10606484D01*
X9733396Y-10606484D02*
X9695301Y-10606484D01*
X9695301Y-10606484D02*
X9676253Y-10596960D01*
X9676253Y-10596960D02*
X9666730Y-10577912D01*
X9666730Y-10577912D02*
X9666730Y-10501722D01*
X9666730Y-10501722D02*
X9676253Y-10482674D01*
X9676253Y-10482674D02*
X9695301Y-10473150D01*
X9695301Y-10473150D02*
X9733396Y-10473150D01*
X9733396Y-10473150D02*
X9752444Y-10482674D01*
X9752444Y-10482674D02*
X9761968Y-10501722D01*
X9761968Y-10501722D02*
X9761968Y-10520770D01*
X9761968Y-10520770D02*
X9666730Y-10539817D01*
X9838158Y-10596960D02*
X9857206Y-10606484D01*
X9857206Y-10606484D02*
X9895301Y-10606484D01*
X9895301Y-10606484D02*
X9914349Y-10596960D01*
X9914349Y-10596960D02*
X9923873Y-10577912D01*
X9923873Y-10577912D02*
X9923873Y-10568389D01*
X9923873Y-10568389D02*
X9914349Y-10549341D01*
X9914349Y-10549341D02*
X9895301Y-10539817D01*
X9895301Y-10539817D02*
X9866730Y-10539817D01*
X9866730Y-10539817D02*
X9847682Y-10530293D01*
X9847682Y-10530293D02*
X9838158Y-10511246D01*
X9838158Y-10511246D02*
X9838158Y-10501722D01*
X9838158Y-10501722D02*
X9847682Y-10482674D01*
X9847682Y-10482674D02*
X9866730Y-10473150D01*
X9866730Y-10473150D02*
X9895301Y-10473150D01*
X9895301Y-10473150D02*
X9914349Y-10482674D01*
X9990539Y-10682674D02*
X10000063Y-10673150D01*
X10000063Y-10673150D02*
X10019111Y-10644579D01*
X10019111Y-10644579D02*
X10028634Y-10625531D01*
X10028634Y-10625531D02*
X10038158Y-10596960D01*
X10038158Y-10596960D02*
X10047682Y-10549341D01*
X10047682Y-10549341D02*
X10047682Y-10511246D01*
X10047682Y-10511246D02*
X10038158Y-10463627D01*
X10038158Y-10463627D02*
X10028634Y-10435055D01*
X10028634Y-10435055D02*
X10019111Y-10416008D01*
X10019111Y-10416008D02*
X10000063Y-10387436D01*
X10000063Y-10387436D02*
X9990539Y-10377912D01*
D10*
X5025000Y-10779000D02*
G75*
G03*
X4933000Y-10779000I-46000J0D01*
G01*
X4933000Y-10779000D02*
G75*
G03*
X5025000Y-10779000I46000J0D01*
G01*
D11*
X5323872Y-10670484D02*
X5342920Y-10670484D01*
X5342920Y-10670484D02*
X5361967Y-10680008D01*
X5361967Y-10680008D02*
X5371491Y-10689531D01*
X5371491Y-10689531D02*
X5381015Y-10708579D01*
X5381015Y-10708579D02*
X5390539Y-10746674D01*
X5390539Y-10746674D02*
X5390539Y-10794293D01*
X5390539Y-10794293D02*
X5381015Y-10832389D01*
X5381015Y-10832389D02*
X5371491Y-10851436D01*
X5371491Y-10851436D02*
X5361967Y-10860960D01*
X5361967Y-10860960D02*
X5342920Y-10870484D01*
X5342920Y-10870484D02*
X5323872Y-10870484D01*
X5323872Y-10870484D02*
X5304824Y-10860960D01*
X5304824Y-10860960D02*
X5295301Y-10851436D01*
X5295301Y-10851436D02*
X5285777Y-10832389D01*
X5285777Y-10832389D02*
X5276253Y-10794293D01*
X5276253Y-10794293D02*
X5276253Y-10746674D01*
X5276253Y-10746674D02*
X5285777Y-10708579D01*
X5285777Y-10708579D02*
X5295301Y-10689531D01*
X5295301Y-10689531D02*
X5304824Y-10680008D01*
X5304824Y-10680008D02*
X5323872Y-10670484D01*
X5476253Y-10851436D02*
X5485777Y-10860960D01*
X5485777Y-10860960D02*
X5476253Y-10870484D01*
X5476253Y-10870484D02*
X5466729Y-10860960D01*
X5466729Y-10860960D02*
X5476253Y-10851436D01*
X5476253Y-10851436D02*
X5476253Y-10870484D01*
X5581015Y-10870484D02*
X5619110Y-10870484D01*
X5619110Y-10870484D02*
X5638158Y-10860960D01*
X5638158Y-10860960D02*
X5647682Y-10851436D01*
X5647682Y-10851436D02*
X5666729Y-10822865D01*
X5666729Y-10822865D02*
X5676253Y-10784770D01*
X5676253Y-10784770D02*
X5676253Y-10708579D01*
X5676253Y-10708579D02*
X5666729Y-10689531D01*
X5666729Y-10689531D02*
X5657205Y-10680008D01*
X5657205Y-10680008D02*
X5638158Y-10670484D01*
X5638158Y-10670484D02*
X5600062Y-10670484D01*
X5600062Y-10670484D02*
X5581015Y-10680008D01*
X5581015Y-10680008D02*
X5571491Y-10689531D01*
X5571491Y-10689531D02*
X5561967Y-10708579D01*
X5561967Y-10708579D02*
X5561967Y-10756198D01*
X5561967Y-10756198D02*
X5571491Y-10775246D01*
X5571491Y-10775246D02*
X5581015Y-10784770D01*
X5581015Y-10784770D02*
X5600062Y-10794293D01*
X5600062Y-10794293D02*
X5638158Y-10794293D01*
X5638158Y-10794293D02*
X5657205Y-10784770D01*
X5657205Y-10784770D02*
X5666729Y-10775246D01*
X5666729Y-10775246D02*
X5676253Y-10756198D01*
X5752443Y-10689531D02*
X5761967Y-10680008D01*
X5761967Y-10680008D02*
X5781015Y-10670484D01*
X5781015Y-10670484D02*
X5828634Y-10670484D01*
X5828634Y-10670484D02*
X5847682Y-10680008D01*
X5847682Y-10680008D02*
X5857205Y-10689531D01*
X5857205Y-10689531D02*
X5866729Y-10708579D01*
X5866729Y-10708579D02*
X5866729Y-10727627D01*
X5866729Y-10727627D02*
X5857205Y-10756198D01*
X5857205Y-10756198D02*
X5742920Y-10870484D01*
X5742920Y-10870484D02*
X5866729Y-10870484D01*
X5990539Y-10670484D02*
X6009586Y-10670484D01*
X6009586Y-10670484D02*
X6028634Y-10680008D01*
X6028634Y-10680008D02*
X6038158Y-10689531D01*
X6038158Y-10689531D02*
X6047682Y-10708579D01*
X6047682Y-10708579D02*
X6057205Y-10746674D01*
X6057205Y-10746674D02*
X6057205Y-10794293D01*
X6057205Y-10794293D02*
X6047682Y-10832389D01*
X6047682Y-10832389D02*
X6038158Y-10851436D01*
X6038158Y-10851436D02*
X6028634Y-10860960D01*
X6028634Y-10860960D02*
X6009586Y-10870484D01*
X6009586Y-10870484D02*
X5990539Y-10870484D01*
X5990539Y-10870484D02*
X5971491Y-10860960D01*
X5971491Y-10860960D02*
X5961967Y-10851436D01*
X5961967Y-10851436D02*
X5952443Y-10832389D01*
X5952443Y-10832389D02*
X5942920Y-10794293D01*
X5942920Y-10794293D02*
X5942920Y-10746674D01*
X5942920Y-10746674D02*
X5952443Y-10708579D01*
X5952443Y-10708579D02*
X5961967Y-10689531D01*
X5961967Y-10689531D02*
X5971491Y-10680008D01*
X5971491Y-10680008D02*
X5990539Y-10670484D01*
X6142920Y-10870484D02*
X6142920Y-10737150D01*
X6142920Y-10756198D02*
X6152443Y-10746674D01*
X6152443Y-10746674D02*
X6171491Y-10737150D01*
X6171491Y-10737150D02*
X6200063Y-10737150D01*
X6200063Y-10737150D02*
X6219110Y-10746674D01*
X6219110Y-10746674D02*
X6228634Y-10765722D01*
X6228634Y-10765722D02*
X6228634Y-10870484D01*
X6228634Y-10765722D02*
X6238158Y-10746674D01*
X6238158Y-10746674D02*
X6257205Y-10737150D01*
X6257205Y-10737150D02*
X6285777Y-10737150D01*
X6285777Y-10737150D02*
X6304824Y-10746674D01*
X6304824Y-10746674D02*
X6314348Y-10765722D01*
X6314348Y-10765722D02*
X6314348Y-10870484D01*
X6409586Y-10870484D02*
X6409586Y-10737150D01*
X6409586Y-10756198D02*
X6419110Y-10746674D01*
X6419110Y-10746674D02*
X6438158Y-10737150D01*
X6438158Y-10737150D02*
X6466729Y-10737150D01*
X6466729Y-10737150D02*
X6485777Y-10746674D01*
X6485777Y-10746674D02*
X6495301Y-10765722D01*
X6495301Y-10765722D02*
X6495301Y-10870484D01*
X6495301Y-10765722D02*
X6504824Y-10746674D01*
X6504824Y-10746674D02*
X6523872Y-10737150D01*
X6523872Y-10737150D02*
X6552443Y-10737150D01*
X6552443Y-10737150D02*
X6571491Y-10746674D01*
X6571491Y-10746674D02*
X6581015Y-10765722D01*
X6581015Y-10765722D02*
X6581015Y-10870484D01*
X6971491Y-10660960D02*
X6800063Y-10918103D01*
X7228634Y-10670484D02*
X7247682Y-10670484D01*
X7247682Y-10670484D02*
X7266729Y-10680008D01*
X7266729Y-10680008D02*
X7276253Y-10689531D01*
X7276253Y-10689531D02*
X7285777Y-10708579D01*
X7285777Y-10708579D02*
X7295301Y-10746674D01*
X7295301Y-10746674D02*
X7295301Y-10794293D01*
X7295301Y-10794293D02*
X7285777Y-10832389D01*
X7285777Y-10832389D02*
X7276253Y-10851436D01*
X7276253Y-10851436D02*
X7266729Y-10860960D01*
X7266729Y-10860960D02*
X7247682Y-10870484D01*
X7247682Y-10870484D02*
X7228634Y-10870484D01*
X7228634Y-10870484D02*
X7209586Y-10860960D01*
X7209586Y-10860960D02*
X7200063Y-10851436D01*
X7200063Y-10851436D02*
X7190539Y-10832389D01*
X7190539Y-10832389D02*
X7181015Y-10794293D01*
X7181015Y-10794293D02*
X7181015Y-10746674D01*
X7181015Y-10746674D02*
X7190539Y-10708579D01*
X7190539Y-10708579D02*
X7200063Y-10689531D01*
X7200063Y-10689531D02*
X7209586Y-10680008D01*
X7209586Y-10680008D02*
X7228634Y-10670484D01*
X7381015Y-10851436D02*
X7390539Y-10860960D01*
X7390539Y-10860960D02*
X7381015Y-10870484D01*
X7381015Y-10870484D02*
X7371491Y-10860960D01*
X7371491Y-10860960D02*
X7381015Y-10851436D01*
X7381015Y-10851436D02*
X7381015Y-10870484D01*
X7514348Y-10670484D02*
X7533396Y-10670484D01*
X7533396Y-10670484D02*
X7552444Y-10680008D01*
X7552444Y-10680008D02*
X7561967Y-10689531D01*
X7561967Y-10689531D02*
X7571491Y-10708579D01*
X7571491Y-10708579D02*
X7581015Y-10746674D01*
X7581015Y-10746674D02*
X7581015Y-10794293D01*
X7581015Y-10794293D02*
X7571491Y-10832389D01*
X7571491Y-10832389D02*
X7561967Y-10851436D01*
X7561967Y-10851436D02*
X7552444Y-10860960D01*
X7552444Y-10860960D02*
X7533396Y-10870484D01*
X7533396Y-10870484D02*
X7514348Y-10870484D01*
X7514348Y-10870484D02*
X7495301Y-10860960D01*
X7495301Y-10860960D02*
X7485777Y-10851436D01*
X7485777Y-10851436D02*
X7476253Y-10832389D01*
X7476253Y-10832389D02*
X7466729Y-10794293D01*
X7466729Y-10794293D02*
X7466729Y-10746674D01*
X7466729Y-10746674D02*
X7476253Y-10708579D01*
X7476253Y-10708579D02*
X7485777Y-10689531D01*
X7485777Y-10689531D02*
X7495301Y-10680008D01*
X7495301Y-10680008D02*
X7514348Y-10670484D01*
X7647682Y-10670484D02*
X7771491Y-10670484D01*
X7771491Y-10670484D02*
X7704825Y-10746674D01*
X7704825Y-10746674D02*
X7733396Y-10746674D01*
X7733396Y-10746674D02*
X7752444Y-10756198D01*
X7752444Y-10756198D02*
X7761967Y-10765722D01*
X7761967Y-10765722D02*
X7771491Y-10784770D01*
X7771491Y-10784770D02*
X7771491Y-10832389D01*
X7771491Y-10832389D02*
X7761967Y-10851436D01*
X7761967Y-10851436D02*
X7752444Y-10860960D01*
X7752444Y-10860960D02*
X7733396Y-10870484D01*
X7733396Y-10870484D02*
X7676253Y-10870484D01*
X7676253Y-10870484D02*
X7657206Y-10860960D01*
X7657206Y-10860960D02*
X7647682Y-10851436D01*
X7942920Y-10670484D02*
X7904825Y-10670484D01*
X7904825Y-10670484D02*
X7885777Y-10680008D01*
X7885777Y-10680008D02*
X7876253Y-10689531D01*
X7876253Y-10689531D02*
X7857206Y-10718103D01*
X7857206Y-10718103D02*
X7847682Y-10756198D01*
X7847682Y-10756198D02*
X7847682Y-10832389D01*
X7847682Y-10832389D02*
X7857206Y-10851436D01*
X7857206Y-10851436D02*
X7866729Y-10860960D01*
X7866729Y-10860960D02*
X7885777Y-10870484D01*
X7885777Y-10870484D02*
X7923872Y-10870484D01*
X7923872Y-10870484D02*
X7942920Y-10860960D01*
X7942920Y-10860960D02*
X7952444Y-10851436D01*
X7952444Y-10851436D02*
X7961967Y-10832389D01*
X7961967Y-10832389D02*
X7961967Y-10784770D01*
X7961967Y-10784770D02*
X7952444Y-10765722D01*
X7952444Y-10765722D02*
X7942920Y-10756198D01*
X7942920Y-10756198D02*
X7923872Y-10746674D01*
X7923872Y-10746674D02*
X7885777Y-10746674D01*
X7885777Y-10746674D02*
X7866729Y-10756198D01*
X7866729Y-10756198D02*
X7857206Y-10765722D01*
X7857206Y-10765722D02*
X7847682Y-10784770D01*
X8038158Y-10689531D02*
X8047682Y-10680008D01*
X8047682Y-10680008D02*
X8066729Y-10670484D01*
X8066729Y-10670484D02*
X8114348Y-10670484D01*
X8114348Y-10670484D02*
X8133396Y-10680008D01*
X8133396Y-10680008D02*
X8142920Y-10689531D01*
X8142920Y-10689531D02*
X8152444Y-10708579D01*
X8152444Y-10708579D02*
X8152444Y-10727627D01*
X8152444Y-10727627D02*
X8142920Y-10756198D01*
X8142920Y-10756198D02*
X8028634Y-10870484D01*
X8028634Y-10870484D02*
X8152444Y-10870484D01*
X8228634Y-10670484D02*
X8228634Y-10708579D01*
X8304825Y-10670484D02*
X8304825Y-10708579D01*
X8600063Y-10946674D02*
X8590539Y-10937150D01*
X8590539Y-10937150D02*
X8571491Y-10908579D01*
X8571491Y-10908579D02*
X8561968Y-10889531D01*
X8561968Y-10889531D02*
X8552444Y-10860960D01*
X8552444Y-10860960D02*
X8542920Y-10813341D01*
X8542920Y-10813341D02*
X8542920Y-10775246D01*
X8542920Y-10775246D02*
X8552444Y-10727627D01*
X8552444Y-10727627D02*
X8561968Y-10699055D01*
X8561968Y-10699055D02*
X8571491Y-10680008D01*
X8571491Y-10680008D02*
X8590539Y-10651436D01*
X8590539Y-10651436D02*
X8600063Y-10641912D01*
X8761968Y-10737150D02*
X8761968Y-10870484D01*
X8714349Y-10660960D02*
X8666730Y-10803817D01*
X8666730Y-10803817D02*
X8790539Y-10803817D01*
X9019111Y-10870484D02*
X9019111Y-10670484D01*
X9104825Y-10870484D02*
X9104825Y-10765722D01*
X9104825Y-10765722D02*
X9095301Y-10746674D01*
X9095301Y-10746674D02*
X9076253Y-10737150D01*
X9076253Y-10737150D02*
X9047682Y-10737150D01*
X9047682Y-10737150D02*
X9028634Y-10746674D01*
X9028634Y-10746674D02*
X9019111Y-10756198D01*
X9228634Y-10870484D02*
X9209587Y-10860960D01*
X9209587Y-10860960D02*
X9200063Y-10851436D01*
X9200063Y-10851436D02*
X9190539Y-10832389D01*
X9190539Y-10832389D02*
X9190539Y-10775246D01*
X9190539Y-10775246D02*
X9200063Y-10756198D01*
X9200063Y-10756198D02*
X9209587Y-10746674D01*
X9209587Y-10746674D02*
X9228634Y-10737150D01*
X9228634Y-10737150D02*
X9257206Y-10737150D01*
X9257206Y-10737150D02*
X9276253Y-10746674D01*
X9276253Y-10746674D02*
X9285777Y-10756198D01*
X9285777Y-10756198D02*
X9295301Y-10775246D01*
X9295301Y-10775246D02*
X9295301Y-10832389D01*
X9295301Y-10832389D02*
X9285777Y-10851436D01*
X9285777Y-10851436D02*
X9276253Y-10860960D01*
X9276253Y-10860960D02*
X9257206Y-10870484D01*
X9257206Y-10870484D02*
X9228634Y-10870484D01*
X9409587Y-10870484D02*
X9390539Y-10860960D01*
X9390539Y-10860960D02*
X9381015Y-10841912D01*
X9381015Y-10841912D02*
X9381015Y-10670484D01*
X9561968Y-10860960D02*
X9542920Y-10870484D01*
X9542920Y-10870484D02*
X9504825Y-10870484D01*
X9504825Y-10870484D02*
X9485777Y-10860960D01*
X9485777Y-10860960D02*
X9476253Y-10841912D01*
X9476253Y-10841912D02*
X9476253Y-10765722D01*
X9476253Y-10765722D02*
X9485777Y-10746674D01*
X9485777Y-10746674D02*
X9504825Y-10737150D01*
X9504825Y-10737150D02*
X9542920Y-10737150D01*
X9542920Y-10737150D02*
X9561968Y-10746674D01*
X9561968Y-10746674D02*
X9571492Y-10765722D01*
X9571492Y-10765722D02*
X9571492Y-10784770D01*
X9571492Y-10784770D02*
X9476253Y-10803817D01*
X9647682Y-10860960D02*
X9666730Y-10870484D01*
X9666730Y-10870484D02*
X9704825Y-10870484D01*
X9704825Y-10870484D02*
X9723873Y-10860960D01*
X9723873Y-10860960D02*
X9733396Y-10841912D01*
X9733396Y-10841912D02*
X9733396Y-10832389D01*
X9733396Y-10832389D02*
X9723873Y-10813341D01*
X9723873Y-10813341D02*
X9704825Y-10803817D01*
X9704825Y-10803817D02*
X9676253Y-10803817D01*
X9676253Y-10803817D02*
X9657206Y-10794293D01*
X9657206Y-10794293D02*
X9647682Y-10775246D01*
X9647682Y-10775246D02*
X9647682Y-10765722D01*
X9647682Y-10765722D02*
X9657206Y-10746674D01*
X9657206Y-10746674D02*
X9676253Y-10737150D01*
X9676253Y-10737150D02*
X9704825Y-10737150D01*
X9704825Y-10737150D02*
X9723873Y-10746674D01*
X9800063Y-10946674D02*
X9809587Y-10937150D01*
X9809587Y-10937150D02*
X9828634Y-10908579D01*
X9828634Y-10908579D02*
X9838158Y-10889531D01*
X9838158Y-10889531D02*
X9847682Y-10860960D01*
X9847682Y-10860960D02*
X9857206Y-10813341D01*
X9857206Y-10813341D02*
X9857206Y-10775246D01*
X9857206Y-10775246D02*
X9847682Y-10727627D01*
X9847682Y-10727627D02*
X9838158Y-10699055D01*
X9838158Y-10699055D02*
X9828634Y-10680008D01*
X9828634Y-10680008D02*
X9809587Y-10651436D01*
X9809587Y-10651436D02*
X9800063Y-10641912D01*
D10*
X4975000Y-10993000D02*
X4975000Y-11093000D01*
X4925000Y-11043000D02*
X5025000Y-11043000D01*
D11*
X5390539Y-11134484D02*
X5276253Y-11134484D01*
X5333396Y-11134484D02*
X5333396Y-10934484D01*
X5333396Y-10934484D02*
X5314348Y-10963055D01*
X5314348Y-10963055D02*
X5295301Y-10982103D01*
X5295301Y-10982103D02*
X5276253Y-10991627D01*
X5476253Y-11115436D02*
X5485777Y-11124960D01*
X5485777Y-11124960D02*
X5476253Y-11134484D01*
X5476253Y-11134484D02*
X5466729Y-11124960D01*
X5466729Y-11124960D02*
X5476253Y-11115436D01*
X5476253Y-11115436D02*
X5476253Y-11134484D01*
X5609586Y-10934484D02*
X5628634Y-10934484D01*
X5628634Y-10934484D02*
X5647682Y-10944008D01*
X5647682Y-10944008D02*
X5657205Y-10953531D01*
X5657205Y-10953531D02*
X5666729Y-10972579D01*
X5666729Y-10972579D02*
X5676253Y-11010674D01*
X5676253Y-11010674D02*
X5676253Y-11058293D01*
X5676253Y-11058293D02*
X5666729Y-11096389D01*
X5666729Y-11096389D02*
X5657205Y-11115436D01*
X5657205Y-11115436D02*
X5647682Y-11124960D01*
X5647682Y-11124960D02*
X5628634Y-11134484D01*
X5628634Y-11134484D02*
X5609586Y-11134484D01*
X5609586Y-11134484D02*
X5590539Y-11124960D01*
X5590539Y-11124960D02*
X5581015Y-11115436D01*
X5581015Y-11115436D02*
X5571491Y-11096389D01*
X5571491Y-11096389D02*
X5561967Y-11058293D01*
X5561967Y-11058293D02*
X5561967Y-11010674D01*
X5561967Y-11010674D02*
X5571491Y-10972579D01*
X5571491Y-10972579D02*
X5581015Y-10953531D01*
X5581015Y-10953531D02*
X5590539Y-10944008D01*
X5590539Y-10944008D02*
X5609586Y-10934484D01*
X5800062Y-10934484D02*
X5819110Y-10934484D01*
X5819110Y-10934484D02*
X5838158Y-10944008D01*
X5838158Y-10944008D02*
X5847682Y-10953531D01*
X5847682Y-10953531D02*
X5857205Y-10972579D01*
X5857205Y-10972579D02*
X5866729Y-11010674D01*
X5866729Y-11010674D02*
X5866729Y-11058293D01*
X5866729Y-11058293D02*
X5857205Y-11096389D01*
X5857205Y-11096389D02*
X5847682Y-11115436D01*
X5847682Y-11115436D02*
X5838158Y-11124960D01*
X5838158Y-11124960D02*
X5819110Y-11134484D01*
X5819110Y-11134484D02*
X5800062Y-11134484D01*
X5800062Y-11134484D02*
X5781015Y-11124960D01*
X5781015Y-11124960D02*
X5771491Y-11115436D01*
X5771491Y-11115436D02*
X5761967Y-11096389D01*
X5761967Y-11096389D02*
X5752443Y-11058293D01*
X5752443Y-11058293D02*
X5752443Y-11010674D01*
X5752443Y-11010674D02*
X5761967Y-10972579D01*
X5761967Y-10972579D02*
X5771491Y-10953531D01*
X5771491Y-10953531D02*
X5781015Y-10944008D01*
X5781015Y-10944008D02*
X5800062Y-10934484D01*
X5990539Y-10934484D02*
X6009586Y-10934484D01*
X6009586Y-10934484D02*
X6028634Y-10944008D01*
X6028634Y-10944008D02*
X6038158Y-10953531D01*
X6038158Y-10953531D02*
X6047682Y-10972579D01*
X6047682Y-10972579D02*
X6057205Y-11010674D01*
X6057205Y-11010674D02*
X6057205Y-11058293D01*
X6057205Y-11058293D02*
X6047682Y-11096389D01*
X6047682Y-11096389D02*
X6038158Y-11115436D01*
X6038158Y-11115436D02*
X6028634Y-11124960D01*
X6028634Y-11124960D02*
X6009586Y-11134484D01*
X6009586Y-11134484D02*
X5990539Y-11134484D01*
X5990539Y-11134484D02*
X5971491Y-11124960D01*
X5971491Y-11124960D02*
X5961967Y-11115436D01*
X5961967Y-11115436D02*
X5952443Y-11096389D01*
X5952443Y-11096389D02*
X5942920Y-11058293D01*
X5942920Y-11058293D02*
X5942920Y-11010674D01*
X5942920Y-11010674D02*
X5952443Y-10972579D01*
X5952443Y-10972579D02*
X5961967Y-10953531D01*
X5961967Y-10953531D02*
X5971491Y-10944008D01*
X5971491Y-10944008D02*
X5990539Y-10934484D01*
X6142920Y-11134484D02*
X6142920Y-11001150D01*
X6142920Y-11020198D02*
X6152443Y-11010674D01*
X6152443Y-11010674D02*
X6171491Y-11001150D01*
X6171491Y-11001150D02*
X6200063Y-11001150D01*
X6200063Y-11001150D02*
X6219110Y-11010674D01*
X6219110Y-11010674D02*
X6228634Y-11029722D01*
X6228634Y-11029722D02*
X6228634Y-11134484D01*
X6228634Y-11029722D02*
X6238158Y-11010674D01*
X6238158Y-11010674D02*
X6257205Y-11001150D01*
X6257205Y-11001150D02*
X6285777Y-11001150D01*
X6285777Y-11001150D02*
X6304824Y-11010674D01*
X6304824Y-11010674D02*
X6314348Y-11029722D01*
X6314348Y-11029722D02*
X6314348Y-11134484D01*
X6409586Y-11134484D02*
X6409586Y-11001150D01*
X6409586Y-11020198D02*
X6419110Y-11010674D01*
X6419110Y-11010674D02*
X6438158Y-11001150D01*
X6438158Y-11001150D02*
X6466729Y-11001150D01*
X6466729Y-11001150D02*
X6485777Y-11010674D01*
X6485777Y-11010674D02*
X6495301Y-11029722D01*
X6495301Y-11029722D02*
X6495301Y-11134484D01*
X6495301Y-11029722D02*
X6504824Y-11010674D01*
X6504824Y-11010674D02*
X6523872Y-11001150D01*
X6523872Y-11001150D02*
X6552443Y-11001150D01*
X6552443Y-11001150D02*
X6571491Y-11010674D01*
X6571491Y-11010674D02*
X6581015Y-11029722D01*
X6581015Y-11029722D02*
X6581015Y-11134484D01*
X6971491Y-10924960D02*
X6800063Y-11182103D01*
X7228634Y-10934484D02*
X7247682Y-10934484D01*
X7247682Y-10934484D02*
X7266729Y-10944008D01*
X7266729Y-10944008D02*
X7276253Y-10953531D01*
X7276253Y-10953531D02*
X7285777Y-10972579D01*
X7285777Y-10972579D02*
X7295301Y-11010674D01*
X7295301Y-11010674D02*
X7295301Y-11058293D01*
X7295301Y-11058293D02*
X7285777Y-11096389D01*
X7285777Y-11096389D02*
X7276253Y-11115436D01*
X7276253Y-11115436D02*
X7266729Y-11124960D01*
X7266729Y-11124960D02*
X7247682Y-11134484D01*
X7247682Y-11134484D02*
X7228634Y-11134484D01*
X7228634Y-11134484D02*
X7209586Y-11124960D01*
X7209586Y-11124960D02*
X7200063Y-11115436D01*
X7200063Y-11115436D02*
X7190539Y-11096389D01*
X7190539Y-11096389D02*
X7181015Y-11058293D01*
X7181015Y-11058293D02*
X7181015Y-11010674D01*
X7181015Y-11010674D02*
X7190539Y-10972579D01*
X7190539Y-10972579D02*
X7200063Y-10953531D01*
X7200063Y-10953531D02*
X7209586Y-10944008D01*
X7209586Y-10944008D02*
X7228634Y-10934484D01*
X7381015Y-11115436D02*
X7390539Y-11124960D01*
X7390539Y-11124960D02*
X7381015Y-11134484D01*
X7381015Y-11134484D02*
X7371491Y-11124960D01*
X7371491Y-11124960D02*
X7381015Y-11115436D01*
X7381015Y-11115436D02*
X7381015Y-11134484D01*
X7514348Y-10934484D02*
X7533396Y-10934484D01*
X7533396Y-10934484D02*
X7552444Y-10944008D01*
X7552444Y-10944008D02*
X7561967Y-10953531D01*
X7561967Y-10953531D02*
X7571491Y-10972579D01*
X7571491Y-10972579D02*
X7581015Y-11010674D01*
X7581015Y-11010674D02*
X7581015Y-11058293D01*
X7581015Y-11058293D02*
X7571491Y-11096389D01*
X7571491Y-11096389D02*
X7561967Y-11115436D01*
X7561967Y-11115436D02*
X7552444Y-11124960D01*
X7552444Y-11124960D02*
X7533396Y-11134484D01*
X7533396Y-11134484D02*
X7514348Y-11134484D01*
X7514348Y-11134484D02*
X7495301Y-11124960D01*
X7495301Y-11124960D02*
X7485777Y-11115436D01*
X7485777Y-11115436D02*
X7476253Y-11096389D01*
X7476253Y-11096389D02*
X7466729Y-11058293D01*
X7466729Y-11058293D02*
X7466729Y-11010674D01*
X7466729Y-11010674D02*
X7476253Y-10972579D01*
X7476253Y-10972579D02*
X7485777Y-10953531D01*
X7485777Y-10953531D02*
X7495301Y-10944008D01*
X7495301Y-10944008D02*
X7514348Y-10934484D01*
X7647682Y-10934484D02*
X7771491Y-10934484D01*
X7771491Y-10934484D02*
X7704825Y-11010674D01*
X7704825Y-11010674D02*
X7733396Y-11010674D01*
X7733396Y-11010674D02*
X7752444Y-11020198D01*
X7752444Y-11020198D02*
X7761967Y-11029722D01*
X7761967Y-11029722D02*
X7771491Y-11048770D01*
X7771491Y-11048770D02*
X7771491Y-11096389D01*
X7771491Y-11096389D02*
X7761967Y-11115436D01*
X7761967Y-11115436D02*
X7752444Y-11124960D01*
X7752444Y-11124960D02*
X7733396Y-11134484D01*
X7733396Y-11134484D02*
X7676253Y-11134484D01*
X7676253Y-11134484D02*
X7657206Y-11124960D01*
X7657206Y-11124960D02*
X7647682Y-11115436D01*
X7866729Y-11134484D02*
X7904825Y-11134484D01*
X7904825Y-11134484D02*
X7923872Y-11124960D01*
X7923872Y-11124960D02*
X7933396Y-11115436D01*
X7933396Y-11115436D02*
X7952444Y-11086865D01*
X7952444Y-11086865D02*
X7961967Y-11048770D01*
X7961967Y-11048770D02*
X7961967Y-10972579D01*
X7961967Y-10972579D02*
X7952444Y-10953531D01*
X7952444Y-10953531D02*
X7942920Y-10944008D01*
X7942920Y-10944008D02*
X7923872Y-10934484D01*
X7923872Y-10934484D02*
X7885777Y-10934484D01*
X7885777Y-10934484D02*
X7866729Y-10944008D01*
X7866729Y-10944008D02*
X7857206Y-10953531D01*
X7857206Y-10953531D02*
X7847682Y-10972579D01*
X7847682Y-10972579D02*
X7847682Y-11020198D01*
X7847682Y-11020198D02*
X7857206Y-11039246D01*
X7857206Y-11039246D02*
X7866729Y-11048770D01*
X7866729Y-11048770D02*
X7885777Y-11058293D01*
X7885777Y-11058293D02*
X7923872Y-11058293D01*
X7923872Y-11058293D02*
X7942920Y-11048770D01*
X7942920Y-11048770D02*
X7952444Y-11039246D01*
X7952444Y-11039246D02*
X7961967Y-11020198D01*
X8133396Y-11001150D02*
X8133396Y-11134484D01*
X8085777Y-10924960D02*
X8038158Y-11067817D01*
X8038158Y-11067817D02*
X8161967Y-11067817D01*
X8228634Y-10934484D02*
X8228634Y-10972579D01*
X8304825Y-10934484D02*
X8304825Y-10972579D01*
X8600063Y-11210674D02*
X8590539Y-11201150D01*
X8590539Y-11201150D02*
X8571491Y-11172579D01*
X8571491Y-11172579D02*
X8561968Y-11153531D01*
X8561968Y-11153531D02*
X8552444Y-11124960D01*
X8552444Y-11124960D02*
X8542920Y-11077341D01*
X8542920Y-11077341D02*
X8542920Y-11039246D01*
X8542920Y-11039246D02*
X8552444Y-10991627D01*
X8552444Y-10991627D02*
X8561968Y-10963055D01*
X8561968Y-10963055D02*
X8571491Y-10944008D01*
X8571491Y-10944008D02*
X8590539Y-10915436D01*
X8590539Y-10915436D02*
X8600063Y-10905912D01*
X8666730Y-10953531D02*
X8676253Y-10944008D01*
X8676253Y-10944008D02*
X8695301Y-10934484D01*
X8695301Y-10934484D02*
X8742920Y-10934484D01*
X8742920Y-10934484D02*
X8761968Y-10944008D01*
X8761968Y-10944008D02*
X8771491Y-10953531D01*
X8771491Y-10953531D02*
X8781015Y-10972579D01*
X8781015Y-10972579D02*
X8781015Y-10991627D01*
X8781015Y-10991627D02*
X8771491Y-11020198D01*
X8771491Y-11020198D02*
X8657206Y-11134484D01*
X8657206Y-11134484D02*
X8781015Y-11134484D01*
X8961968Y-10934484D02*
X8866730Y-10934484D01*
X8866730Y-10934484D02*
X8857206Y-11029722D01*
X8857206Y-11029722D02*
X8866730Y-11020198D01*
X8866730Y-11020198D02*
X8885777Y-11010674D01*
X8885777Y-11010674D02*
X8933396Y-11010674D01*
X8933396Y-11010674D02*
X8952444Y-11020198D01*
X8952444Y-11020198D02*
X8961968Y-11029722D01*
X8961968Y-11029722D02*
X8971491Y-11048770D01*
X8971491Y-11048770D02*
X8971491Y-11096389D01*
X8971491Y-11096389D02*
X8961968Y-11115436D01*
X8961968Y-11115436D02*
X8952444Y-11124960D01*
X8952444Y-11124960D02*
X8933396Y-11134484D01*
X8933396Y-11134484D02*
X8885777Y-11134484D01*
X8885777Y-11134484D02*
X8866730Y-11124960D01*
X8866730Y-11124960D02*
X8857206Y-11115436D01*
X9209587Y-11134484D02*
X9209587Y-10934484D01*
X9295301Y-11134484D02*
X9295301Y-11029722D01*
X9295301Y-11029722D02*
X9285777Y-11010674D01*
X9285777Y-11010674D02*
X9266730Y-11001150D01*
X9266730Y-11001150D02*
X9238158Y-11001150D01*
X9238158Y-11001150D02*
X9219111Y-11010674D01*
X9219111Y-11010674D02*
X9209587Y-11020198D01*
X9419111Y-11134484D02*
X9400063Y-11124960D01*
X9400063Y-11124960D02*
X9390539Y-11115436D01*
X9390539Y-11115436D02*
X9381015Y-11096389D01*
X9381015Y-11096389D02*
X9381015Y-11039246D01*
X9381015Y-11039246D02*
X9390539Y-11020198D01*
X9390539Y-11020198D02*
X9400063Y-11010674D01*
X9400063Y-11010674D02*
X9419111Y-11001150D01*
X9419111Y-11001150D02*
X9447682Y-11001150D01*
X9447682Y-11001150D02*
X9466730Y-11010674D01*
X9466730Y-11010674D02*
X9476253Y-11020198D01*
X9476253Y-11020198D02*
X9485777Y-11039246D01*
X9485777Y-11039246D02*
X9485777Y-11096389D01*
X9485777Y-11096389D02*
X9476253Y-11115436D01*
X9476253Y-11115436D02*
X9466730Y-11124960D01*
X9466730Y-11124960D02*
X9447682Y-11134484D01*
X9447682Y-11134484D02*
X9419111Y-11134484D01*
X9600063Y-11134484D02*
X9581015Y-11124960D01*
X9581015Y-11124960D02*
X9571492Y-11105912D01*
X9571492Y-11105912D02*
X9571492Y-10934484D01*
X9752444Y-11124960D02*
X9733396Y-11134484D01*
X9733396Y-11134484D02*
X9695301Y-11134484D01*
X9695301Y-11134484D02*
X9676253Y-11124960D01*
X9676253Y-11124960D02*
X9666730Y-11105912D01*
X9666730Y-11105912D02*
X9666730Y-11029722D01*
X9666730Y-11029722D02*
X9676253Y-11010674D01*
X9676253Y-11010674D02*
X9695301Y-11001150D01*
X9695301Y-11001150D02*
X9733396Y-11001150D01*
X9733396Y-11001150D02*
X9752444Y-11010674D01*
X9752444Y-11010674D02*
X9761968Y-11029722D01*
X9761968Y-11029722D02*
X9761968Y-11048770D01*
X9761968Y-11048770D02*
X9666730Y-11067817D01*
X9838158Y-11124960D02*
X9857206Y-11134484D01*
X9857206Y-11134484D02*
X9895301Y-11134484D01*
X9895301Y-11134484D02*
X9914349Y-11124960D01*
X9914349Y-11124960D02*
X9923873Y-11105912D01*
X9923873Y-11105912D02*
X9923873Y-11096389D01*
X9923873Y-11096389D02*
X9914349Y-11077341D01*
X9914349Y-11077341D02*
X9895301Y-11067817D01*
X9895301Y-11067817D02*
X9866730Y-11067817D01*
X9866730Y-11067817D02*
X9847682Y-11058293D01*
X9847682Y-11058293D02*
X9838158Y-11039246D01*
X9838158Y-11039246D02*
X9838158Y-11029722D01*
X9838158Y-11029722D02*
X9847682Y-11010674D01*
X9847682Y-11010674D02*
X9866730Y-11001150D01*
X9866730Y-11001150D02*
X9895301Y-11001150D01*
X9895301Y-11001150D02*
X9914349Y-11010674D01*
X9990539Y-11210674D02*
X10000063Y-11201150D01*
X10000063Y-11201150D02*
X10019111Y-11172579D01*
X10019111Y-11172579D02*
X10028634Y-11153531D01*
X10028634Y-11153531D02*
X10038158Y-11124960D01*
X10038158Y-11124960D02*
X10047682Y-11077341D01*
X10047682Y-11077341D02*
X10047682Y-11039246D01*
X10047682Y-11039246D02*
X10038158Y-10991627D01*
X10038158Y-10991627D02*
X10028634Y-10963055D01*
X10028634Y-10963055D02*
X10019111Y-10944008D01*
X10019111Y-10944008D02*
X10000063Y-10915436D01*
X10000063Y-10915436D02*
X9990539Y-10905912D01*
X4995711Y-11377711D02*
X4995711Y-11236289D01*
X4854289Y-11236289D01*
X4854289Y-11377711D01*
X4995711Y-11377711D01*
X5276253Y-11217531D02*
X5285777Y-11208008D01*
X5285777Y-11208008D02*
X5304824Y-11198484D01*
X5304824Y-11198484D02*
X5352444Y-11198484D01*
X5352444Y-11198484D02*
X5371491Y-11208008D01*
X5371491Y-11208008D02*
X5381015Y-11217531D01*
X5381015Y-11217531D02*
X5390539Y-11236579D01*
X5390539Y-11236579D02*
X5390539Y-11255627D01*
X5390539Y-11255627D02*
X5381015Y-11284198D01*
X5381015Y-11284198D02*
X5266729Y-11398484D01*
X5266729Y-11398484D02*
X5390539Y-11398484D01*
X5476253Y-11379436D02*
X5485777Y-11388960D01*
X5485777Y-11388960D02*
X5476253Y-11398484D01*
X5476253Y-11398484D02*
X5466729Y-11388960D01*
X5466729Y-11388960D02*
X5476253Y-11379436D01*
X5476253Y-11379436D02*
X5476253Y-11398484D01*
X5552444Y-11198484D02*
X5676253Y-11198484D01*
X5676253Y-11198484D02*
X5609586Y-11274674D01*
X5609586Y-11274674D02*
X5638158Y-11274674D01*
X5638158Y-11274674D02*
X5657205Y-11284198D01*
X5657205Y-11284198D02*
X5666729Y-11293722D01*
X5666729Y-11293722D02*
X5676253Y-11312769D01*
X5676253Y-11312769D02*
X5676253Y-11360388D01*
X5676253Y-11360388D02*
X5666729Y-11379436D01*
X5666729Y-11379436D02*
X5657205Y-11388960D01*
X5657205Y-11388960D02*
X5638158Y-11398484D01*
X5638158Y-11398484D02*
X5581015Y-11398484D01*
X5581015Y-11398484D02*
X5561967Y-11388960D01*
X5561967Y-11388960D02*
X5552444Y-11379436D01*
X5800062Y-11198484D02*
X5819110Y-11198484D01*
X5819110Y-11198484D02*
X5838158Y-11208008D01*
X5838158Y-11208008D02*
X5847682Y-11217531D01*
X5847682Y-11217531D02*
X5857205Y-11236579D01*
X5857205Y-11236579D02*
X5866729Y-11274674D01*
X5866729Y-11274674D02*
X5866729Y-11322293D01*
X5866729Y-11322293D02*
X5857205Y-11360388D01*
X5857205Y-11360388D02*
X5847682Y-11379436D01*
X5847682Y-11379436D02*
X5838158Y-11388960D01*
X5838158Y-11388960D02*
X5819110Y-11398484D01*
X5819110Y-11398484D02*
X5800062Y-11398484D01*
X5800062Y-11398484D02*
X5781015Y-11388960D01*
X5781015Y-11388960D02*
X5771491Y-11379436D01*
X5771491Y-11379436D02*
X5761967Y-11360388D01*
X5761967Y-11360388D02*
X5752443Y-11322293D01*
X5752443Y-11322293D02*
X5752443Y-11274674D01*
X5752443Y-11274674D02*
X5761967Y-11236579D01*
X5761967Y-11236579D02*
X5771491Y-11217531D01*
X5771491Y-11217531D02*
X5781015Y-11208008D01*
X5781015Y-11208008D02*
X5800062Y-11198484D01*
X5990539Y-11198484D02*
X6009586Y-11198484D01*
X6009586Y-11198484D02*
X6028634Y-11208008D01*
X6028634Y-11208008D02*
X6038158Y-11217531D01*
X6038158Y-11217531D02*
X6047682Y-11236579D01*
X6047682Y-11236579D02*
X6057205Y-11274674D01*
X6057205Y-11274674D02*
X6057205Y-11322293D01*
X6057205Y-11322293D02*
X6047682Y-11360388D01*
X6047682Y-11360388D02*
X6038158Y-11379436D01*
X6038158Y-11379436D02*
X6028634Y-11388960D01*
X6028634Y-11388960D02*
X6009586Y-11398484D01*
X6009586Y-11398484D02*
X5990539Y-11398484D01*
X5990539Y-11398484D02*
X5971491Y-11388960D01*
X5971491Y-11388960D02*
X5961967Y-11379436D01*
X5961967Y-11379436D02*
X5952443Y-11360388D01*
X5952443Y-11360388D02*
X5942920Y-11322293D01*
X5942920Y-11322293D02*
X5942920Y-11274674D01*
X5942920Y-11274674D02*
X5952443Y-11236579D01*
X5952443Y-11236579D02*
X5961967Y-11217531D01*
X5961967Y-11217531D02*
X5971491Y-11208008D01*
X5971491Y-11208008D02*
X5990539Y-11198484D01*
X6142920Y-11398484D02*
X6142920Y-11265150D01*
X6142920Y-11284198D02*
X6152443Y-11274674D01*
X6152443Y-11274674D02*
X6171491Y-11265150D01*
X6171491Y-11265150D02*
X6200063Y-11265150D01*
X6200063Y-11265150D02*
X6219110Y-11274674D01*
X6219110Y-11274674D02*
X6228634Y-11293722D01*
X6228634Y-11293722D02*
X6228634Y-11398484D01*
X6228634Y-11293722D02*
X6238158Y-11274674D01*
X6238158Y-11274674D02*
X6257205Y-11265150D01*
X6257205Y-11265150D02*
X6285777Y-11265150D01*
X6285777Y-11265150D02*
X6304824Y-11274674D01*
X6304824Y-11274674D02*
X6314348Y-11293722D01*
X6314348Y-11293722D02*
X6314348Y-11398484D01*
X6409586Y-11398484D02*
X6409586Y-11265150D01*
X6409586Y-11284198D02*
X6419110Y-11274674D01*
X6419110Y-11274674D02*
X6438158Y-11265150D01*
X6438158Y-11265150D02*
X6466729Y-11265150D01*
X6466729Y-11265150D02*
X6485777Y-11274674D01*
X6485777Y-11274674D02*
X6495301Y-11293722D01*
X6495301Y-11293722D02*
X6495301Y-11398484D01*
X6495301Y-11293722D02*
X6504824Y-11274674D01*
X6504824Y-11274674D02*
X6523872Y-11265150D01*
X6523872Y-11265150D02*
X6552443Y-11265150D01*
X6552443Y-11265150D02*
X6571491Y-11274674D01*
X6571491Y-11274674D02*
X6581015Y-11293722D01*
X6581015Y-11293722D02*
X6581015Y-11398484D01*
X6971491Y-11188960D02*
X6800063Y-11446103D01*
X7228634Y-11198484D02*
X7247682Y-11198484D01*
X7247682Y-11198484D02*
X7266729Y-11208008D01*
X7266729Y-11208008D02*
X7276253Y-11217531D01*
X7276253Y-11217531D02*
X7285777Y-11236579D01*
X7285777Y-11236579D02*
X7295301Y-11274674D01*
X7295301Y-11274674D02*
X7295301Y-11322293D01*
X7295301Y-11322293D02*
X7285777Y-11360388D01*
X7285777Y-11360388D02*
X7276253Y-11379436D01*
X7276253Y-11379436D02*
X7266729Y-11388960D01*
X7266729Y-11388960D02*
X7247682Y-11398484D01*
X7247682Y-11398484D02*
X7228634Y-11398484D01*
X7228634Y-11398484D02*
X7209586Y-11388960D01*
X7209586Y-11388960D02*
X7200063Y-11379436D01*
X7200063Y-11379436D02*
X7190539Y-11360388D01*
X7190539Y-11360388D02*
X7181015Y-11322293D01*
X7181015Y-11322293D02*
X7181015Y-11274674D01*
X7181015Y-11274674D02*
X7190539Y-11236579D01*
X7190539Y-11236579D02*
X7200063Y-11217531D01*
X7200063Y-11217531D02*
X7209586Y-11208008D01*
X7209586Y-11208008D02*
X7228634Y-11198484D01*
X7381015Y-11379436D02*
X7390539Y-11388960D01*
X7390539Y-11388960D02*
X7381015Y-11398484D01*
X7381015Y-11398484D02*
X7371491Y-11388960D01*
X7371491Y-11388960D02*
X7381015Y-11379436D01*
X7381015Y-11379436D02*
X7381015Y-11398484D01*
X7514348Y-11198484D02*
X7533396Y-11198484D01*
X7533396Y-11198484D02*
X7552444Y-11208008D01*
X7552444Y-11208008D02*
X7561967Y-11217531D01*
X7561967Y-11217531D02*
X7571491Y-11236579D01*
X7571491Y-11236579D02*
X7581015Y-11274674D01*
X7581015Y-11274674D02*
X7581015Y-11322293D01*
X7581015Y-11322293D02*
X7571491Y-11360388D01*
X7571491Y-11360388D02*
X7561967Y-11379436D01*
X7561967Y-11379436D02*
X7552444Y-11388960D01*
X7552444Y-11388960D02*
X7533396Y-11398484D01*
X7533396Y-11398484D02*
X7514348Y-11398484D01*
X7514348Y-11398484D02*
X7495301Y-11388960D01*
X7495301Y-11388960D02*
X7485777Y-11379436D01*
X7485777Y-11379436D02*
X7476253Y-11360388D01*
X7476253Y-11360388D02*
X7466729Y-11322293D01*
X7466729Y-11322293D02*
X7466729Y-11274674D01*
X7466729Y-11274674D02*
X7476253Y-11236579D01*
X7476253Y-11236579D02*
X7485777Y-11217531D01*
X7485777Y-11217531D02*
X7495301Y-11208008D01*
X7495301Y-11208008D02*
X7514348Y-11198484D01*
X7676253Y-11398484D02*
X7714348Y-11398484D01*
X7714348Y-11398484D02*
X7733396Y-11388960D01*
X7733396Y-11388960D02*
X7742920Y-11379436D01*
X7742920Y-11379436D02*
X7761967Y-11350865D01*
X7761967Y-11350865D02*
X7771491Y-11312769D01*
X7771491Y-11312769D02*
X7771491Y-11236579D01*
X7771491Y-11236579D02*
X7761967Y-11217531D01*
X7761967Y-11217531D02*
X7752444Y-11208008D01*
X7752444Y-11208008D02*
X7733396Y-11198484D01*
X7733396Y-11198484D02*
X7695301Y-11198484D01*
X7695301Y-11198484D02*
X7676253Y-11208008D01*
X7676253Y-11208008D02*
X7666729Y-11217531D01*
X7666729Y-11217531D02*
X7657206Y-11236579D01*
X7657206Y-11236579D02*
X7657206Y-11284198D01*
X7657206Y-11284198D02*
X7666729Y-11303246D01*
X7666729Y-11303246D02*
X7676253Y-11312769D01*
X7676253Y-11312769D02*
X7695301Y-11322293D01*
X7695301Y-11322293D02*
X7733396Y-11322293D01*
X7733396Y-11322293D02*
X7752444Y-11312769D01*
X7752444Y-11312769D02*
X7761967Y-11303246D01*
X7761967Y-11303246D02*
X7771491Y-11284198D01*
X7895301Y-11198484D02*
X7914348Y-11198484D01*
X7914348Y-11198484D02*
X7933396Y-11208008D01*
X7933396Y-11208008D02*
X7942920Y-11217531D01*
X7942920Y-11217531D02*
X7952444Y-11236579D01*
X7952444Y-11236579D02*
X7961967Y-11274674D01*
X7961967Y-11274674D02*
X7961967Y-11322293D01*
X7961967Y-11322293D02*
X7952444Y-11360388D01*
X7952444Y-11360388D02*
X7942920Y-11379436D01*
X7942920Y-11379436D02*
X7933396Y-11388960D01*
X7933396Y-11388960D02*
X7914348Y-11398484D01*
X7914348Y-11398484D02*
X7895301Y-11398484D01*
X7895301Y-11398484D02*
X7876253Y-11388960D01*
X7876253Y-11388960D02*
X7866729Y-11379436D01*
X7866729Y-11379436D02*
X7857206Y-11360388D01*
X7857206Y-11360388D02*
X7847682Y-11322293D01*
X7847682Y-11322293D02*
X7847682Y-11274674D01*
X7847682Y-11274674D02*
X7857206Y-11236579D01*
X7857206Y-11236579D02*
X7866729Y-11217531D01*
X7866729Y-11217531D02*
X7876253Y-11208008D01*
X7876253Y-11208008D02*
X7895301Y-11198484D01*
X8133396Y-11198484D02*
X8095301Y-11198484D01*
X8095301Y-11198484D02*
X8076253Y-11208008D01*
X8076253Y-11208008D02*
X8066729Y-11217531D01*
X8066729Y-11217531D02*
X8047682Y-11246103D01*
X8047682Y-11246103D02*
X8038158Y-11284198D01*
X8038158Y-11284198D02*
X8038158Y-11360388D01*
X8038158Y-11360388D02*
X8047682Y-11379436D01*
X8047682Y-11379436D02*
X8057206Y-11388960D01*
X8057206Y-11388960D02*
X8076253Y-11398484D01*
X8076253Y-11398484D02*
X8114348Y-11398484D01*
X8114348Y-11398484D02*
X8133396Y-11388960D01*
X8133396Y-11388960D02*
X8142920Y-11379436D01*
X8142920Y-11379436D02*
X8152444Y-11360388D01*
X8152444Y-11360388D02*
X8152444Y-11312769D01*
X8152444Y-11312769D02*
X8142920Y-11293722D01*
X8142920Y-11293722D02*
X8133396Y-11284198D01*
X8133396Y-11284198D02*
X8114348Y-11274674D01*
X8114348Y-11274674D02*
X8076253Y-11274674D01*
X8076253Y-11274674D02*
X8057206Y-11284198D01*
X8057206Y-11284198D02*
X8047682Y-11293722D01*
X8047682Y-11293722D02*
X8038158Y-11312769D01*
X8228634Y-11198484D02*
X8228634Y-11236579D01*
X8304825Y-11198484D02*
X8304825Y-11236579D01*
X8600063Y-11474674D02*
X8590539Y-11465150D01*
X8590539Y-11465150D02*
X8571491Y-11436579D01*
X8571491Y-11436579D02*
X8561968Y-11417531D01*
X8561968Y-11417531D02*
X8552444Y-11388960D01*
X8552444Y-11388960D02*
X8542920Y-11341341D01*
X8542920Y-11341341D02*
X8542920Y-11303246D01*
X8542920Y-11303246D02*
X8552444Y-11255627D01*
X8552444Y-11255627D02*
X8561968Y-11227055D01*
X8561968Y-11227055D02*
X8571491Y-11208008D01*
X8571491Y-11208008D02*
X8590539Y-11179436D01*
X8590539Y-11179436D02*
X8600063Y-11169912D01*
X8666730Y-11217531D02*
X8676253Y-11208008D01*
X8676253Y-11208008D02*
X8695301Y-11198484D01*
X8695301Y-11198484D02*
X8742920Y-11198484D01*
X8742920Y-11198484D02*
X8761968Y-11208008D01*
X8761968Y-11208008D02*
X8771491Y-11217531D01*
X8771491Y-11217531D02*
X8781015Y-11236579D01*
X8781015Y-11236579D02*
X8781015Y-11255627D01*
X8781015Y-11255627D02*
X8771491Y-11284198D01*
X8771491Y-11284198D02*
X8657206Y-11398484D01*
X8657206Y-11398484D02*
X8781015Y-11398484D01*
X9019111Y-11398484D02*
X9019111Y-11198484D01*
X9104825Y-11398484D02*
X9104825Y-11293722D01*
X9104825Y-11293722D02*
X9095301Y-11274674D01*
X9095301Y-11274674D02*
X9076253Y-11265150D01*
X9076253Y-11265150D02*
X9047682Y-11265150D01*
X9047682Y-11265150D02*
X9028634Y-11274674D01*
X9028634Y-11274674D02*
X9019111Y-11284198D01*
X9228634Y-11398484D02*
X9209587Y-11388960D01*
X9209587Y-11388960D02*
X9200063Y-11379436D01*
X9200063Y-11379436D02*
X9190539Y-11360388D01*
X9190539Y-11360388D02*
X9190539Y-11303246D01*
X9190539Y-11303246D02*
X9200063Y-11284198D01*
X9200063Y-11284198D02*
X9209587Y-11274674D01*
X9209587Y-11274674D02*
X9228634Y-11265150D01*
X9228634Y-11265150D02*
X9257206Y-11265150D01*
X9257206Y-11265150D02*
X9276253Y-11274674D01*
X9276253Y-11274674D02*
X9285777Y-11284198D01*
X9285777Y-11284198D02*
X9295301Y-11303246D01*
X9295301Y-11303246D02*
X9295301Y-11360388D01*
X9295301Y-11360388D02*
X9285777Y-11379436D01*
X9285777Y-11379436D02*
X9276253Y-11388960D01*
X9276253Y-11388960D02*
X9257206Y-11398484D01*
X9257206Y-11398484D02*
X9228634Y-11398484D01*
X9409587Y-11398484D02*
X9390539Y-11388960D01*
X9390539Y-11388960D02*
X9381015Y-11369912D01*
X9381015Y-11369912D02*
X9381015Y-11198484D01*
X9561968Y-11388960D02*
X9542920Y-11398484D01*
X9542920Y-11398484D02*
X9504825Y-11398484D01*
X9504825Y-11398484D02*
X9485777Y-11388960D01*
X9485777Y-11388960D02*
X9476253Y-11369912D01*
X9476253Y-11369912D02*
X9476253Y-11293722D01*
X9476253Y-11293722D02*
X9485777Y-11274674D01*
X9485777Y-11274674D02*
X9504825Y-11265150D01*
X9504825Y-11265150D02*
X9542920Y-11265150D01*
X9542920Y-11265150D02*
X9561968Y-11274674D01*
X9561968Y-11274674D02*
X9571492Y-11293722D01*
X9571492Y-11293722D02*
X9571492Y-11312769D01*
X9571492Y-11312769D02*
X9476253Y-11331817D01*
X9647682Y-11388960D02*
X9666730Y-11398484D01*
X9666730Y-11398484D02*
X9704825Y-11398484D01*
X9704825Y-11398484D02*
X9723873Y-11388960D01*
X9723873Y-11388960D02*
X9733396Y-11369912D01*
X9733396Y-11369912D02*
X9733396Y-11360388D01*
X9733396Y-11360388D02*
X9723873Y-11341341D01*
X9723873Y-11341341D02*
X9704825Y-11331817D01*
X9704825Y-11331817D02*
X9676253Y-11331817D01*
X9676253Y-11331817D02*
X9657206Y-11322293D01*
X9657206Y-11322293D02*
X9647682Y-11303246D01*
X9647682Y-11303246D02*
X9647682Y-11293722D01*
X9647682Y-11293722D02*
X9657206Y-11274674D01*
X9657206Y-11274674D02*
X9676253Y-11265150D01*
X9676253Y-11265150D02*
X9704825Y-11265150D01*
X9704825Y-11265150D02*
X9723873Y-11274674D01*
X9800063Y-11474674D02*
X9809587Y-11465150D01*
X9809587Y-11465150D02*
X9828634Y-11436579D01*
X9828634Y-11436579D02*
X9838158Y-11417531D01*
X9838158Y-11417531D02*
X9847682Y-11388960D01*
X9847682Y-11388960D02*
X9857206Y-11341341D01*
X9857206Y-11341341D02*
X9857206Y-11303246D01*
X9857206Y-11303246D02*
X9847682Y-11255627D01*
X9847682Y-11255627D02*
X9838158Y-11227055D01*
X9838158Y-11227055D02*
X9828634Y-11208008D01*
X9828634Y-11208008D02*
X9809587Y-11179436D01*
X9809587Y-11179436D02*
X9800063Y-11169912D01*
X4925000Y-11727000D02*
X5025000Y-11627000D01*
X4925000Y-11527000D01*
X4825000Y-11627000D01*
X4925000Y-11727000D01*
X5266729Y-11518484D02*
X5390539Y-11518484D01*
X5390539Y-11518484D02*
X5323872Y-11594674D01*
X5323872Y-11594674D02*
X5352444Y-11594674D01*
X5352444Y-11594674D02*
X5371491Y-11604198D01*
X5371491Y-11604198D02*
X5381015Y-11613722D01*
X5381015Y-11613722D02*
X5390539Y-11632769D01*
X5390539Y-11632769D02*
X5390539Y-11680388D01*
X5390539Y-11680388D02*
X5381015Y-11699436D01*
X5381015Y-11699436D02*
X5371491Y-11708960D01*
X5371491Y-11708960D02*
X5352444Y-11718484D01*
X5352444Y-11718484D02*
X5295301Y-11718484D01*
X5295301Y-11718484D02*
X5276253Y-11708960D01*
X5276253Y-11708960D02*
X5266729Y-11699436D01*
X5476253Y-11699436D02*
X5485777Y-11708960D01*
X5485777Y-11708960D02*
X5476253Y-11718484D01*
X5476253Y-11718484D02*
X5466729Y-11708960D01*
X5466729Y-11708960D02*
X5476253Y-11699436D01*
X5476253Y-11699436D02*
X5476253Y-11718484D01*
X5609586Y-11518484D02*
X5628634Y-11518484D01*
X5628634Y-11518484D02*
X5647682Y-11528008D01*
X5647682Y-11528008D02*
X5657205Y-11537531D01*
X5657205Y-11537531D02*
X5666729Y-11556579D01*
X5666729Y-11556579D02*
X5676253Y-11594674D01*
X5676253Y-11594674D02*
X5676253Y-11642293D01*
X5676253Y-11642293D02*
X5666729Y-11680388D01*
X5666729Y-11680388D02*
X5657205Y-11699436D01*
X5657205Y-11699436D02*
X5647682Y-11708960D01*
X5647682Y-11708960D02*
X5628634Y-11718484D01*
X5628634Y-11718484D02*
X5609586Y-11718484D01*
X5609586Y-11718484D02*
X5590539Y-11708960D01*
X5590539Y-11708960D02*
X5581015Y-11699436D01*
X5581015Y-11699436D02*
X5571491Y-11680388D01*
X5571491Y-11680388D02*
X5561967Y-11642293D01*
X5561967Y-11642293D02*
X5561967Y-11594674D01*
X5561967Y-11594674D02*
X5571491Y-11556579D01*
X5571491Y-11556579D02*
X5581015Y-11537531D01*
X5581015Y-11537531D02*
X5590539Y-11528008D01*
X5590539Y-11528008D02*
X5609586Y-11518484D01*
X5847682Y-11585150D02*
X5847682Y-11718484D01*
X5800062Y-11508960D02*
X5752443Y-11651817D01*
X5752443Y-11651817D02*
X5876253Y-11651817D01*
X5981015Y-11604198D02*
X5961967Y-11594674D01*
X5961967Y-11594674D02*
X5952443Y-11585150D01*
X5952443Y-11585150D02*
X5942920Y-11566103D01*
X5942920Y-11566103D02*
X5942920Y-11556579D01*
X5942920Y-11556579D02*
X5952443Y-11537531D01*
X5952443Y-11537531D02*
X5961967Y-11528008D01*
X5961967Y-11528008D02*
X5981015Y-11518484D01*
X5981015Y-11518484D02*
X6019110Y-11518484D01*
X6019110Y-11518484D02*
X6038158Y-11528008D01*
X6038158Y-11528008D02*
X6047682Y-11537531D01*
X6047682Y-11537531D02*
X6057205Y-11556579D01*
X6057205Y-11556579D02*
X6057205Y-11566103D01*
X6057205Y-11566103D02*
X6047682Y-11585150D01*
X6047682Y-11585150D02*
X6038158Y-11594674D01*
X6038158Y-11594674D02*
X6019110Y-11604198D01*
X6019110Y-11604198D02*
X5981015Y-11604198D01*
X5981015Y-11604198D02*
X5961967Y-11613722D01*
X5961967Y-11613722D02*
X5952443Y-11623246D01*
X5952443Y-11623246D02*
X5942920Y-11642293D01*
X5942920Y-11642293D02*
X5942920Y-11680388D01*
X5942920Y-11680388D02*
X5952443Y-11699436D01*
X5952443Y-11699436D02*
X5961967Y-11708960D01*
X5961967Y-11708960D02*
X5981015Y-11718484D01*
X5981015Y-11718484D02*
X6019110Y-11718484D01*
X6019110Y-11718484D02*
X6038158Y-11708960D01*
X6038158Y-11708960D02*
X6047682Y-11699436D01*
X6047682Y-11699436D02*
X6057205Y-11680388D01*
X6057205Y-11680388D02*
X6057205Y-11642293D01*
X6057205Y-11642293D02*
X6047682Y-11623246D01*
X6047682Y-11623246D02*
X6038158Y-11613722D01*
X6038158Y-11613722D02*
X6019110Y-11604198D01*
X6142920Y-11718484D02*
X6142920Y-11585150D01*
X6142920Y-11604198D02*
X6152443Y-11594674D01*
X6152443Y-11594674D02*
X6171491Y-11585150D01*
X6171491Y-11585150D02*
X6200063Y-11585150D01*
X6200063Y-11585150D02*
X6219110Y-11594674D01*
X6219110Y-11594674D02*
X6228634Y-11613722D01*
X6228634Y-11613722D02*
X6228634Y-11718484D01*
X6228634Y-11613722D02*
X6238158Y-11594674D01*
X6238158Y-11594674D02*
X6257205Y-11585150D01*
X6257205Y-11585150D02*
X6285777Y-11585150D01*
X6285777Y-11585150D02*
X6304824Y-11594674D01*
X6304824Y-11594674D02*
X6314348Y-11613722D01*
X6314348Y-11613722D02*
X6314348Y-11718484D01*
X6409586Y-11718484D02*
X6409586Y-11585150D01*
X6409586Y-11604198D02*
X6419110Y-11594674D01*
X6419110Y-11594674D02*
X6438158Y-11585150D01*
X6438158Y-11585150D02*
X6466729Y-11585150D01*
X6466729Y-11585150D02*
X6485777Y-11594674D01*
X6485777Y-11594674D02*
X6495301Y-11613722D01*
X6495301Y-11613722D02*
X6495301Y-11718484D01*
X6495301Y-11613722D02*
X6504824Y-11594674D01*
X6504824Y-11594674D02*
X6523872Y-11585150D01*
X6523872Y-11585150D02*
X6552443Y-11585150D01*
X6552443Y-11585150D02*
X6571491Y-11594674D01*
X6571491Y-11594674D02*
X6581015Y-11613722D01*
X6581015Y-11613722D02*
X6581015Y-11718484D01*
X6971491Y-11508960D02*
X6800063Y-11766103D01*
X7228634Y-11518484D02*
X7247682Y-11518484D01*
X7247682Y-11518484D02*
X7266729Y-11528008D01*
X7266729Y-11528008D02*
X7276253Y-11537531D01*
X7276253Y-11537531D02*
X7285777Y-11556579D01*
X7285777Y-11556579D02*
X7295301Y-11594674D01*
X7295301Y-11594674D02*
X7295301Y-11642293D01*
X7295301Y-11642293D02*
X7285777Y-11680388D01*
X7285777Y-11680388D02*
X7276253Y-11699436D01*
X7276253Y-11699436D02*
X7266729Y-11708960D01*
X7266729Y-11708960D02*
X7247682Y-11718484D01*
X7247682Y-11718484D02*
X7228634Y-11718484D01*
X7228634Y-11718484D02*
X7209586Y-11708960D01*
X7209586Y-11708960D02*
X7200063Y-11699436D01*
X7200063Y-11699436D02*
X7190539Y-11680388D01*
X7190539Y-11680388D02*
X7181015Y-11642293D01*
X7181015Y-11642293D02*
X7181015Y-11594674D01*
X7181015Y-11594674D02*
X7190539Y-11556579D01*
X7190539Y-11556579D02*
X7200063Y-11537531D01*
X7200063Y-11537531D02*
X7209586Y-11528008D01*
X7209586Y-11528008D02*
X7228634Y-11518484D01*
X7381015Y-11699436D02*
X7390539Y-11708960D01*
X7390539Y-11708960D02*
X7381015Y-11718484D01*
X7381015Y-11718484D02*
X7371491Y-11708960D01*
X7371491Y-11708960D02*
X7381015Y-11699436D01*
X7381015Y-11699436D02*
X7381015Y-11718484D01*
X7581015Y-11718484D02*
X7466729Y-11718484D01*
X7523872Y-11718484D02*
X7523872Y-11518484D01*
X7523872Y-11518484D02*
X7504825Y-11547055D01*
X7504825Y-11547055D02*
X7485777Y-11566103D01*
X7485777Y-11566103D02*
X7466729Y-11575627D01*
X7657206Y-11537531D02*
X7666729Y-11528008D01*
X7666729Y-11528008D02*
X7685777Y-11518484D01*
X7685777Y-11518484D02*
X7733396Y-11518484D01*
X7733396Y-11518484D02*
X7752444Y-11528008D01*
X7752444Y-11528008D02*
X7761967Y-11537531D01*
X7761967Y-11537531D02*
X7771491Y-11556579D01*
X7771491Y-11556579D02*
X7771491Y-11575627D01*
X7771491Y-11575627D02*
X7761967Y-11604198D01*
X7761967Y-11604198D02*
X7647682Y-11718484D01*
X7647682Y-11718484D02*
X7771491Y-11718484D01*
X7895301Y-11518484D02*
X7914348Y-11518484D01*
X7914348Y-11518484D02*
X7933396Y-11528008D01*
X7933396Y-11528008D02*
X7942920Y-11537531D01*
X7942920Y-11537531D02*
X7952444Y-11556579D01*
X7952444Y-11556579D02*
X7961967Y-11594674D01*
X7961967Y-11594674D02*
X7961967Y-11642293D01*
X7961967Y-11642293D02*
X7952444Y-11680388D01*
X7952444Y-11680388D02*
X7942920Y-11699436D01*
X7942920Y-11699436D02*
X7933396Y-11708960D01*
X7933396Y-11708960D02*
X7914348Y-11718484D01*
X7914348Y-11718484D02*
X7895301Y-11718484D01*
X7895301Y-11718484D02*
X7876253Y-11708960D01*
X7876253Y-11708960D02*
X7866729Y-11699436D01*
X7866729Y-11699436D02*
X7857206Y-11680388D01*
X7857206Y-11680388D02*
X7847682Y-11642293D01*
X7847682Y-11642293D02*
X7847682Y-11594674D01*
X7847682Y-11594674D02*
X7857206Y-11556579D01*
X7857206Y-11556579D02*
X7866729Y-11537531D01*
X7866729Y-11537531D02*
X7876253Y-11528008D01*
X7876253Y-11528008D02*
X7895301Y-11518484D01*
X8085777Y-11518484D02*
X8104825Y-11518484D01*
X8104825Y-11518484D02*
X8123872Y-11528008D01*
X8123872Y-11528008D02*
X8133396Y-11537531D01*
X8133396Y-11537531D02*
X8142920Y-11556579D01*
X8142920Y-11556579D02*
X8152444Y-11594674D01*
X8152444Y-11594674D02*
X8152444Y-11642293D01*
X8152444Y-11642293D02*
X8142920Y-11680388D01*
X8142920Y-11680388D02*
X8133396Y-11699436D01*
X8133396Y-11699436D02*
X8123872Y-11708960D01*
X8123872Y-11708960D02*
X8104825Y-11718484D01*
X8104825Y-11718484D02*
X8085777Y-11718484D01*
X8085777Y-11718484D02*
X8066729Y-11708960D01*
X8066729Y-11708960D02*
X8057206Y-11699436D01*
X8057206Y-11699436D02*
X8047682Y-11680388D01*
X8047682Y-11680388D02*
X8038158Y-11642293D01*
X8038158Y-11642293D02*
X8038158Y-11594674D01*
X8038158Y-11594674D02*
X8047682Y-11556579D01*
X8047682Y-11556579D02*
X8057206Y-11537531D01*
X8057206Y-11537531D02*
X8066729Y-11528008D01*
X8066729Y-11528008D02*
X8085777Y-11518484D01*
X8228634Y-11518484D02*
X8228634Y-11556579D01*
X8304825Y-11518484D02*
X8304825Y-11556579D01*
X8600063Y-11794674D02*
X8590539Y-11785150D01*
X8590539Y-11785150D02*
X8571491Y-11756579D01*
X8571491Y-11756579D02*
X8561968Y-11737531D01*
X8561968Y-11737531D02*
X8552444Y-11708960D01*
X8552444Y-11708960D02*
X8542920Y-11661341D01*
X8542920Y-11661341D02*
X8542920Y-11623246D01*
X8542920Y-11623246D02*
X8552444Y-11575627D01*
X8552444Y-11575627D02*
X8561968Y-11547055D01*
X8561968Y-11547055D02*
X8571491Y-11528008D01*
X8571491Y-11528008D02*
X8590539Y-11499436D01*
X8590539Y-11499436D02*
X8600063Y-11489912D01*
X8771491Y-11518484D02*
X8676253Y-11518484D01*
X8676253Y-11518484D02*
X8666730Y-11613722D01*
X8666730Y-11613722D02*
X8676253Y-11604198D01*
X8676253Y-11604198D02*
X8695301Y-11594674D01*
X8695301Y-11594674D02*
X8742920Y-11594674D01*
X8742920Y-11594674D02*
X8761968Y-11604198D01*
X8761968Y-11604198D02*
X8771491Y-11613722D01*
X8771491Y-11613722D02*
X8781015Y-11632769D01*
X8781015Y-11632769D02*
X8781015Y-11680388D01*
X8781015Y-11680388D02*
X8771491Y-11699436D01*
X8771491Y-11699436D02*
X8761968Y-11708960D01*
X8761968Y-11708960D02*
X8742920Y-11718484D01*
X8742920Y-11718484D02*
X8695301Y-11718484D01*
X8695301Y-11718484D02*
X8676253Y-11708960D01*
X8676253Y-11708960D02*
X8666730Y-11699436D01*
X9019111Y-11718484D02*
X9019111Y-11518484D01*
X9104825Y-11718484D02*
X9104825Y-11613722D01*
X9104825Y-11613722D02*
X9095301Y-11594674D01*
X9095301Y-11594674D02*
X9076253Y-11585150D01*
X9076253Y-11585150D02*
X9047682Y-11585150D01*
X9047682Y-11585150D02*
X9028634Y-11594674D01*
X9028634Y-11594674D02*
X9019111Y-11604198D01*
X9228634Y-11718484D02*
X9209587Y-11708960D01*
X9209587Y-11708960D02*
X9200063Y-11699436D01*
X9200063Y-11699436D02*
X9190539Y-11680388D01*
X9190539Y-11680388D02*
X9190539Y-11623246D01*
X9190539Y-11623246D02*
X9200063Y-11604198D01*
X9200063Y-11604198D02*
X9209587Y-11594674D01*
X9209587Y-11594674D02*
X9228634Y-11585150D01*
X9228634Y-11585150D02*
X9257206Y-11585150D01*
X9257206Y-11585150D02*
X9276253Y-11594674D01*
X9276253Y-11594674D02*
X9285777Y-11604198D01*
X9285777Y-11604198D02*
X9295301Y-11623246D01*
X9295301Y-11623246D02*
X9295301Y-11680388D01*
X9295301Y-11680388D02*
X9285777Y-11699436D01*
X9285777Y-11699436D02*
X9276253Y-11708960D01*
X9276253Y-11708960D02*
X9257206Y-11718484D01*
X9257206Y-11718484D02*
X9228634Y-11718484D01*
X9409587Y-11718484D02*
X9390539Y-11708960D01*
X9390539Y-11708960D02*
X9381015Y-11689912D01*
X9381015Y-11689912D02*
X9381015Y-11518484D01*
X9561968Y-11708960D02*
X9542920Y-11718484D01*
X9542920Y-11718484D02*
X9504825Y-11718484D01*
X9504825Y-11718484D02*
X9485777Y-11708960D01*
X9485777Y-11708960D02*
X9476253Y-11689912D01*
X9476253Y-11689912D02*
X9476253Y-11613722D01*
X9476253Y-11613722D02*
X9485777Y-11594674D01*
X9485777Y-11594674D02*
X9504825Y-11585150D01*
X9504825Y-11585150D02*
X9542920Y-11585150D01*
X9542920Y-11585150D02*
X9561968Y-11594674D01*
X9561968Y-11594674D02*
X9571492Y-11613722D01*
X9571492Y-11613722D02*
X9571492Y-11632769D01*
X9571492Y-11632769D02*
X9476253Y-11651817D01*
X9647682Y-11708960D02*
X9666730Y-11718484D01*
X9666730Y-11718484D02*
X9704825Y-11718484D01*
X9704825Y-11718484D02*
X9723873Y-11708960D01*
X9723873Y-11708960D02*
X9733396Y-11689912D01*
X9733396Y-11689912D02*
X9733396Y-11680388D01*
X9733396Y-11680388D02*
X9723873Y-11661341D01*
X9723873Y-11661341D02*
X9704825Y-11651817D01*
X9704825Y-11651817D02*
X9676253Y-11651817D01*
X9676253Y-11651817D02*
X9657206Y-11642293D01*
X9657206Y-11642293D02*
X9647682Y-11623246D01*
X9647682Y-11623246D02*
X9647682Y-11613722D01*
X9647682Y-11613722D02*
X9657206Y-11594674D01*
X9657206Y-11594674D02*
X9676253Y-11585150D01*
X9676253Y-11585150D02*
X9704825Y-11585150D01*
X9704825Y-11585150D02*
X9723873Y-11594674D01*
X9800063Y-11794674D02*
X9809587Y-11785150D01*
X9809587Y-11785150D02*
X9828634Y-11756579D01*
X9828634Y-11756579D02*
X9838158Y-11737531D01*
X9838158Y-11737531D02*
X9847682Y-11708960D01*
X9847682Y-11708960D02*
X9857206Y-11661341D01*
X9857206Y-11661341D02*
X9857206Y-11623246D01*
X9857206Y-11623246D02*
X9847682Y-11575627D01*
X9847682Y-11575627D02*
X9838158Y-11547055D01*
X9838158Y-11547055D02*
X9828634Y-11528008D01*
X9828634Y-11528008D02*
X9809587Y-11499436D01*
X9809587Y-11499436D02*
X9800063Y-11489912D01*
M02*
