G04 #@! TF.GenerationSoftware,KiCad,Pcbnew,7.0.10-7.0.10~ubuntu20.04.1*
G04 #@! TF.CreationDate,2024-01-07T18:49:02+01:00*
G04 #@! TF.ProjectId,msx-omega-usbkeybctrl,6d73782d-6f6d-4656-9761-2d7573626b65,A*
G04 #@! TF.SameCoordinates,Original*
G04 #@! TF.FileFunction,Copper,L2,Bot*
G04 #@! TF.FilePolarity,Positive*
%FSLAX46Y46*%
G04 Gerber Fmt 4.6, Leading zero omitted, Abs format (unit mm)*
G04 Created by KiCad (PCBNEW 7.0.10-7.0.10~ubuntu20.04.1) date 2024-01-07 18:49:02*
%MOMM*%
%LPD*%
G01*
G04 APERTURE LIST*
G04 Aperture macros list*
%AMRoundRect*
0 Rectangle with rounded corners*
0 $1 Rounding radius*
0 $2 $3 $4 $5 $6 $7 $8 $9 X,Y pos of 4 corners*
0 Add a 4 corners polygon primitive as box body*
4,1,4,$2,$3,$4,$5,$6,$7,$8,$9,$2,$3,0*
0 Add four circle primitives for the rounded corners*
1,1,$1+$1,$2,$3*
1,1,$1+$1,$4,$5*
1,1,$1+$1,$6,$7*
1,1,$1+$1,$8,$9*
0 Add four rect primitives between the rounded corners*
20,1,$1+$1,$2,$3,$4,$5,0*
20,1,$1+$1,$4,$5,$6,$7,0*
20,1,$1+$1,$6,$7,$8,$9,0*
20,1,$1+$1,$8,$9,$2,$3,0*%
G04 Aperture macros list end*
G04 #@! TA.AperFunction,ComponentPad*
%ADD10C,4.064000*%
G04 #@! TD*
G04 #@! TA.AperFunction,ComponentPad*
%ADD11R,1.700000X1.700000*%
G04 #@! TD*
G04 #@! TA.AperFunction,ComponentPad*
%ADD12O,1.700000X1.700000*%
G04 #@! TD*
G04 #@! TA.AperFunction,ComponentPad*
%ADD13RoundRect,0.250000X-0.600000X-0.600000X0.600000X-0.600000X0.600000X0.600000X-0.600000X0.600000X0*%
G04 #@! TD*
G04 #@! TA.AperFunction,ComponentPad*
%ADD14C,1.700000*%
G04 #@! TD*
G04 #@! TA.AperFunction,ComponentPad*
%ADD15R,1.524000X1.524000*%
G04 #@! TD*
G04 #@! TA.AperFunction,ComponentPad*
%ADD16C,1.524000*%
G04 #@! TD*
G04 #@! TA.AperFunction,ComponentPad*
%ADD17C,3.500000*%
G04 #@! TD*
G04 #@! TA.AperFunction,ViaPad*
%ADD18C,0.800000*%
G04 #@! TD*
G04 #@! TA.AperFunction,Conductor*
%ADD19C,0.300000*%
G04 #@! TD*
G04 #@! TA.AperFunction,Conductor*
%ADD20C,0.250000*%
G04 #@! TD*
G04 APERTURE END LIST*
D10*
X132800000Y-60200000D03*
D11*
X94900000Y-68060000D03*
D12*
X94900000Y-70600000D03*
X94900000Y-73140000D03*
X94900000Y-75680000D03*
D13*
X124800000Y-69300000D03*
D14*
X127340000Y-69300000D03*
X124800000Y-71840000D03*
X127340000Y-71840000D03*
X124800000Y-74380000D03*
X127340000Y-74380000D03*
X124800000Y-76920000D03*
X127340000Y-76920000D03*
X124800000Y-79460000D03*
X127340000Y-79460000D03*
X124800000Y-82000000D03*
X127340000Y-82000000D03*
X124800000Y-84540000D03*
X127340000Y-84540000D03*
X124800000Y-87080000D03*
X127340000Y-87080000D03*
D15*
X63600000Y-76000000D03*
D16*
X63600000Y-78500000D03*
X63600000Y-80500000D03*
X63600000Y-83000000D03*
D17*
X60890000Y-72930000D03*
X60890000Y-86070000D03*
D10*
X52800000Y-96200000D03*
X52800000Y-60200000D03*
D11*
X56300000Y-91500000D03*
D12*
X58840000Y-91500000D03*
X61380000Y-91500000D03*
X63920000Y-91500000D03*
X66460000Y-91500000D03*
D10*
X132800000Y-96200000D03*
X134080000Y-81790000D03*
D18*
X76600000Y-91800000D03*
X110800000Y-75912500D03*
X110800000Y-77200000D03*
X110800000Y-78500000D03*
X109050000Y-78050000D03*
X109400000Y-79700000D03*
X107494327Y-79600000D03*
X82900000Y-88300000D03*
X111000000Y-71900000D03*
X82900000Y-87200000D03*
X109500000Y-71900000D03*
D19*
X108862299Y-84162299D02*
X108800000Y-84100000D01*
D20*
X126080000Y-73100000D02*
X127340000Y-71840000D01*
X112400000Y-73100000D02*
X126080000Y-73100000D01*
X110800000Y-74700000D02*
X112400000Y-73100000D01*
X110800000Y-75912500D02*
X110800000Y-74700000D01*
X110800000Y-77200000D02*
X112400000Y-75600000D01*
X112400000Y-75600000D02*
X126120000Y-75600000D01*
X126120000Y-75600000D02*
X127340000Y-74380000D01*
X126060000Y-78200000D02*
X127340000Y-76920000D01*
X111100000Y-78200000D02*
X126060000Y-78200000D01*
X110800000Y-78500000D02*
X111100000Y-78200000D01*
X109050000Y-78050000D02*
X111700000Y-80700000D01*
X126100000Y-80700000D02*
X127340000Y-79460000D01*
X111700000Y-80700000D02*
X126100000Y-80700000D01*
X109400000Y-80000000D02*
X112700000Y-83300000D01*
X109400000Y-79700000D02*
X109400000Y-80000000D01*
X126040000Y-83300000D02*
X127340000Y-82000000D01*
X112700000Y-83300000D02*
X126040000Y-83300000D01*
X126080000Y-85800000D02*
X127340000Y-84540000D01*
X107494327Y-79600000D02*
X113694327Y-85800000D01*
X113694327Y-85800000D02*
X126080000Y-85800000D01*
X82900000Y-88300000D02*
X94600000Y-88300000D01*
X94600000Y-88300000D02*
X111000000Y-71900000D01*
X94200000Y-87200000D02*
X109500000Y-71900000D01*
X82900000Y-87200000D02*
X94200000Y-87200000D01*
G04 #@! TA.AperFunction,Conductor*
G36*
X51615662Y-97166982D02*
G01*
X51786113Y-97344441D01*
X51913434Y-97440117D01*
X51192063Y-98161488D01*
X51440605Y-98342065D01*
X51440609Y-98342068D01*
X51667565Y-98466838D01*
X51716829Y-98516384D01*
X51731485Y-98584699D01*
X51706881Y-98650094D01*
X51650828Y-98691805D01*
X51607827Y-98699500D01*
X50424500Y-98699500D01*
X50357461Y-98679815D01*
X50311706Y-98627011D01*
X50300500Y-98575500D01*
X50300500Y-97389778D01*
X50320185Y-97322739D01*
X50372989Y-97276984D01*
X50442147Y-97267040D01*
X50505703Y-97296065D01*
X50536698Y-97336981D01*
X50576803Y-97422208D01*
X50576806Y-97422214D01*
X50747515Y-97691210D01*
X50841557Y-97804887D01*
X51560042Y-97086402D01*
X51615662Y-97166982D01*
G37*
G04 #@! TD.AperFunction*
G04 #@! TA.AperFunction,Conductor*
G36*
X131674866Y-57720185D02*
G01*
X131720621Y-57772989D01*
X131730565Y-57842147D01*
X131701540Y-57905703D01*
X131667565Y-57933162D01*
X131440604Y-58057935D01*
X131440600Y-58057937D01*
X131192064Y-58238510D01*
X131192063Y-58238510D01*
X131911966Y-58958413D01*
X131881490Y-58977686D01*
X131697312Y-59140854D01*
X131557966Y-59311519D01*
X130841557Y-58595110D01*
X130747519Y-58708784D01*
X130747517Y-58708787D01*
X130576806Y-58977785D01*
X130576802Y-58977791D01*
X130441153Y-59266059D01*
X130441151Y-59266064D01*
X130342701Y-59569065D01*
X130282997Y-59882036D01*
X130262994Y-60199994D01*
X130262994Y-60200005D01*
X130282997Y-60517963D01*
X130342701Y-60830934D01*
X130441151Y-61133935D01*
X130441153Y-61133940D01*
X130576802Y-61422208D01*
X130576806Y-61422214D01*
X130747515Y-61691210D01*
X130841557Y-61804887D01*
X131560042Y-61086402D01*
X131615662Y-61166982D01*
X131786113Y-61344441D01*
X131913434Y-61440117D01*
X131192063Y-62161488D01*
X131440605Y-62342065D01*
X131440609Y-62342068D01*
X131719802Y-62495555D01*
X131719803Y-62495556D01*
X132016017Y-62612834D01*
X132324612Y-62692068D01*
X132324621Y-62692070D01*
X132640688Y-62731999D01*
X132640702Y-62732000D01*
X132959298Y-62732000D01*
X132959311Y-62731999D01*
X133275378Y-62692070D01*
X133275387Y-62692068D01*
X133583982Y-62612834D01*
X133880196Y-62495556D01*
X133880204Y-62495552D01*
X134159386Y-62342071D01*
X134407934Y-62161488D01*
X134407935Y-62161488D01*
X133688033Y-61441586D01*
X133718510Y-61422314D01*
X133902688Y-61259146D01*
X134042033Y-61088480D01*
X134758441Y-61804888D01*
X134852487Y-61691205D01*
X135023193Y-61422214D01*
X135023197Y-61422208D01*
X135158846Y-61133940D01*
X135158848Y-61133935D01*
X135257298Y-60830934D01*
X135317002Y-60517963D01*
X135337006Y-60200005D01*
X135337006Y-60199994D01*
X135317002Y-59882036D01*
X135257298Y-59569065D01*
X135158848Y-59266064D01*
X135158846Y-59266059D01*
X135023197Y-58977791D01*
X135023193Y-58977785D01*
X134852484Y-58708789D01*
X134758440Y-58595110D01*
X134039956Y-59313594D01*
X133984338Y-59233018D01*
X133813887Y-59055559D01*
X133686564Y-58959881D01*
X134407935Y-58238510D01*
X134159394Y-58057934D01*
X134159390Y-58057931D01*
X133932435Y-57933162D01*
X133883171Y-57883616D01*
X133868515Y-57815301D01*
X133893119Y-57749906D01*
X133949172Y-57708195D01*
X133992173Y-57700500D01*
X136675500Y-57700500D01*
X136742539Y-57720185D01*
X136788294Y-57772989D01*
X136799500Y-57824500D01*
X136799500Y-81221785D01*
X136779815Y-81288824D01*
X136727011Y-81334579D01*
X136657853Y-81344523D01*
X136594297Y-81315498D01*
X136556523Y-81256720D01*
X136553696Y-81245021D01*
X136537298Y-81159065D01*
X136438848Y-80856064D01*
X136438846Y-80856059D01*
X136303197Y-80567791D01*
X136303193Y-80567785D01*
X136132484Y-80298789D01*
X136038440Y-80185110D01*
X135319956Y-80903594D01*
X135264338Y-80823018D01*
X135093887Y-80645559D01*
X134966564Y-80549881D01*
X135687935Y-79828510D01*
X135439394Y-79647934D01*
X135439390Y-79647931D01*
X135160197Y-79494444D01*
X135160196Y-79494443D01*
X134863982Y-79377165D01*
X134555387Y-79297931D01*
X134555378Y-79297929D01*
X134239311Y-79258000D01*
X133920688Y-79258000D01*
X133604621Y-79297929D01*
X133604612Y-79297931D01*
X133296017Y-79377165D01*
X132999803Y-79494443D01*
X132999802Y-79494444D01*
X132720604Y-79647935D01*
X132720600Y-79647937D01*
X132472064Y-79828510D01*
X132472063Y-79828510D01*
X133191966Y-80548413D01*
X133161490Y-80567686D01*
X132977312Y-80730854D01*
X132837966Y-80901519D01*
X132121557Y-80185110D01*
X132027519Y-80298784D01*
X132027517Y-80298787D01*
X131856806Y-80567785D01*
X131856802Y-80567791D01*
X131721153Y-80856059D01*
X131721151Y-80856064D01*
X131622701Y-81159065D01*
X131562997Y-81472036D01*
X131542994Y-81789994D01*
X131542994Y-81790005D01*
X131562997Y-82107963D01*
X131622701Y-82420934D01*
X131721151Y-82723935D01*
X131721153Y-82723940D01*
X131856802Y-83012208D01*
X131856806Y-83012214D01*
X132027515Y-83281210D01*
X132121557Y-83394887D01*
X132840042Y-82676402D01*
X132895662Y-82756982D01*
X133066113Y-82934441D01*
X133193434Y-83030117D01*
X132472063Y-83751488D01*
X132720605Y-83932065D01*
X132720609Y-83932068D01*
X132999802Y-84085555D01*
X132999803Y-84085556D01*
X133296017Y-84202834D01*
X133604612Y-84282068D01*
X133604621Y-84282070D01*
X133920688Y-84321999D01*
X133920702Y-84322000D01*
X134239298Y-84322000D01*
X134239311Y-84321999D01*
X134555378Y-84282070D01*
X134555387Y-84282068D01*
X134863982Y-84202834D01*
X135160196Y-84085556D01*
X135160204Y-84085552D01*
X135439386Y-83932071D01*
X135687934Y-83751488D01*
X135687935Y-83751488D01*
X134968033Y-83031586D01*
X134998510Y-83012314D01*
X135182688Y-82849146D01*
X135322033Y-82678480D01*
X136038441Y-83394888D01*
X136132487Y-83281205D01*
X136303193Y-83012214D01*
X136303197Y-83012208D01*
X136438846Y-82723940D01*
X136438848Y-82723935D01*
X136537299Y-82420932D01*
X136553696Y-82334979D01*
X136585594Y-82272815D01*
X136646037Y-82237765D01*
X136715833Y-82240957D01*
X136772825Y-82281377D01*
X136798916Y-82346192D01*
X136799500Y-82358214D01*
X136799500Y-98575500D01*
X136779815Y-98642539D01*
X136727011Y-98688294D01*
X136675500Y-98699500D01*
X133992173Y-98699500D01*
X133925134Y-98679815D01*
X133879379Y-98627011D01*
X133869435Y-98557853D01*
X133898460Y-98494297D01*
X133932436Y-98466838D01*
X134159386Y-98342071D01*
X134407934Y-98161488D01*
X134407935Y-98161488D01*
X133688033Y-97441586D01*
X133718510Y-97422314D01*
X133902688Y-97259146D01*
X134042033Y-97088480D01*
X134758441Y-97804888D01*
X134852487Y-97691205D01*
X135023193Y-97422214D01*
X135023197Y-97422208D01*
X135158846Y-97133940D01*
X135158848Y-97133935D01*
X135257298Y-96830934D01*
X135317002Y-96517963D01*
X135337006Y-96200005D01*
X135337006Y-96199994D01*
X135317002Y-95882036D01*
X135257298Y-95569065D01*
X135158848Y-95266064D01*
X135158846Y-95266059D01*
X135023197Y-94977791D01*
X135023193Y-94977785D01*
X134852484Y-94708789D01*
X134758440Y-94595110D01*
X134039956Y-95313594D01*
X133984338Y-95233018D01*
X133813887Y-95055559D01*
X133686564Y-94959881D01*
X134407935Y-94238510D01*
X134159394Y-94057934D01*
X134159390Y-94057931D01*
X133880197Y-93904444D01*
X133880196Y-93904443D01*
X133583982Y-93787165D01*
X133275387Y-93707931D01*
X133275378Y-93707929D01*
X132959311Y-93668000D01*
X132640688Y-93668000D01*
X132324621Y-93707929D01*
X132324612Y-93707931D01*
X132016017Y-93787165D01*
X131719803Y-93904443D01*
X131719802Y-93904444D01*
X131440604Y-94057935D01*
X131440600Y-94057937D01*
X131192064Y-94238510D01*
X131192063Y-94238510D01*
X131911966Y-94958413D01*
X131881490Y-94977686D01*
X131697312Y-95140854D01*
X131557966Y-95311519D01*
X130841557Y-94595110D01*
X130747519Y-94708784D01*
X130747517Y-94708787D01*
X130576806Y-94977785D01*
X130576802Y-94977791D01*
X130441153Y-95266059D01*
X130441151Y-95266064D01*
X130342701Y-95569065D01*
X130282997Y-95882036D01*
X130262994Y-96199994D01*
X130262994Y-96200005D01*
X130282997Y-96517963D01*
X130342701Y-96830934D01*
X130441151Y-97133935D01*
X130441153Y-97133940D01*
X130576802Y-97422208D01*
X130576806Y-97422214D01*
X130747515Y-97691210D01*
X130841557Y-97804887D01*
X131560042Y-97086402D01*
X131615662Y-97166982D01*
X131786113Y-97344441D01*
X131913434Y-97440117D01*
X131192063Y-98161488D01*
X131440605Y-98342065D01*
X131440609Y-98342068D01*
X131667565Y-98466838D01*
X131716829Y-98516384D01*
X131731485Y-98584699D01*
X131706881Y-98650094D01*
X131650828Y-98691805D01*
X131607827Y-98699500D01*
X53992173Y-98699500D01*
X53925134Y-98679815D01*
X53879379Y-98627011D01*
X53869435Y-98557853D01*
X53898460Y-98494297D01*
X53932436Y-98466838D01*
X54159386Y-98342071D01*
X54407934Y-98161488D01*
X54407935Y-98161488D01*
X53688033Y-97441586D01*
X53718510Y-97422314D01*
X53902688Y-97259146D01*
X54042033Y-97088480D01*
X54758441Y-97804888D01*
X54852487Y-97691205D01*
X55023193Y-97422214D01*
X55023197Y-97422208D01*
X55158846Y-97133940D01*
X55158848Y-97133935D01*
X55257298Y-96830934D01*
X55317002Y-96517963D01*
X55337006Y-96200005D01*
X55337006Y-96199994D01*
X55317002Y-95882036D01*
X55257298Y-95569065D01*
X55158848Y-95266064D01*
X55158846Y-95266059D01*
X55023197Y-94977791D01*
X55023193Y-94977785D01*
X54852484Y-94708789D01*
X54758440Y-94595110D01*
X54039956Y-95313594D01*
X53984338Y-95233018D01*
X53813887Y-95055559D01*
X53686564Y-94959881D01*
X54407935Y-94238510D01*
X54159394Y-94057934D01*
X54159390Y-94057931D01*
X53880197Y-93904444D01*
X53880196Y-93904443D01*
X53583982Y-93787165D01*
X53275387Y-93707931D01*
X53275378Y-93707929D01*
X52959311Y-93668000D01*
X52640688Y-93668000D01*
X52324621Y-93707929D01*
X52324612Y-93707931D01*
X52016017Y-93787165D01*
X51719803Y-93904443D01*
X51719802Y-93904444D01*
X51440604Y-94057935D01*
X51440600Y-94057937D01*
X51192064Y-94238510D01*
X51192063Y-94238510D01*
X51911966Y-94958413D01*
X51881490Y-94977686D01*
X51697312Y-95140854D01*
X51557966Y-95311519D01*
X50841557Y-94595110D01*
X50747519Y-94708784D01*
X50747517Y-94708787D01*
X50576806Y-94977785D01*
X50576802Y-94977791D01*
X50536698Y-95063018D01*
X50490343Y-95115296D01*
X50423083Y-95134213D01*
X50356273Y-95113763D01*
X50311124Y-95060440D01*
X50300500Y-95010221D01*
X50300500Y-92394856D01*
X55149500Y-92394856D01*
X55149502Y-92394882D01*
X55152413Y-92419987D01*
X55152415Y-92419991D01*
X55197793Y-92522764D01*
X55197794Y-92522765D01*
X55277235Y-92602206D01*
X55380009Y-92647585D01*
X55405135Y-92650500D01*
X57194864Y-92650499D01*
X57194879Y-92650497D01*
X57194882Y-92650497D01*
X57219987Y-92647586D01*
X57219988Y-92647585D01*
X57219991Y-92647585D01*
X57322765Y-92602206D01*
X57402206Y-92522765D01*
X57447585Y-92419991D01*
X57450500Y-92394865D01*
X57450499Y-91656046D01*
X57470183Y-91589009D01*
X57522987Y-91543254D01*
X57592146Y-91533310D01*
X57655702Y-91562335D01*
X57693476Y-91621113D01*
X57697970Y-91644606D01*
X57704244Y-91712310D01*
X57762596Y-91917392D01*
X57762596Y-91917394D01*
X57857632Y-92108253D01*
X57986127Y-92278406D01*
X57986128Y-92278407D01*
X58143698Y-92422052D01*
X58324981Y-92534298D01*
X58523802Y-92611321D01*
X58733390Y-92650500D01*
X58733392Y-92650500D01*
X58946608Y-92650500D01*
X58946610Y-92650500D01*
X59156198Y-92611321D01*
X59355019Y-92534298D01*
X59536302Y-92422052D01*
X59693872Y-92278407D01*
X59822366Y-92108255D01*
X59876270Y-92000000D01*
X59917403Y-91917394D01*
X59917403Y-91917393D01*
X59917405Y-91917389D01*
X59975756Y-91712310D01*
X59986529Y-91596047D01*
X60012315Y-91531111D01*
X60054622Y-91500804D01*
X60163130Y-91500804D01*
X60199503Y-91521668D01*
X60231693Y-91583681D01*
X60233471Y-91596048D01*
X60244244Y-91712310D01*
X60302596Y-91917392D01*
X60302596Y-91917394D01*
X60397632Y-92108253D01*
X60526127Y-92278406D01*
X60526128Y-92278407D01*
X60683698Y-92422052D01*
X60864981Y-92534298D01*
X61063802Y-92611321D01*
X61273390Y-92650500D01*
X61273392Y-92650500D01*
X61486608Y-92650500D01*
X61486610Y-92650500D01*
X61696198Y-92611321D01*
X61895019Y-92534298D01*
X62076302Y-92422052D01*
X62233872Y-92278407D01*
X62362366Y-92108255D01*
X62429325Y-91973781D01*
X62476825Y-91922548D01*
X62544488Y-91905126D01*
X62610828Y-91927051D01*
X62652705Y-91976651D01*
X62746399Y-92177578D01*
X62881894Y-92371082D01*
X63048917Y-92538105D01*
X63242421Y-92673600D01*
X63456507Y-92773429D01*
X63456516Y-92773433D01*
X63670000Y-92830634D01*
X63670000Y-91935501D01*
X63777685Y-91984680D01*
X63884237Y-92000000D01*
X63955763Y-92000000D01*
X64062315Y-91984680D01*
X64170000Y-91935501D01*
X64170000Y-92830633D01*
X64383483Y-92773433D01*
X64383492Y-92773429D01*
X64597578Y-92673600D01*
X64791082Y-92538105D01*
X64958105Y-92371082D01*
X65093600Y-92177578D01*
X65187294Y-91976651D01*
X65233466Y-91924212D01*
X65300660Y-91905060D01*
X65367541Y-91925276D01*
X65410676Y-91973785D01*
X65477632Y-92108253D01*
X65606127Y-92278406D01*
X65606128Y-92278407D01*
X65763698Y-92422052D01*
X65944981Y-92534298D01*
X66143802Y-92611321D01*
X66353390Y-92650500D01*
X66353392Y-92650500D01*
X66566608Y-92650500D01*
X66566610Y-92650500D01*
X66776198Y-92611321D01*
X66975019Y-92534298D01*
X67156302Y-92422052D01*
X67313872Y-92278407D01*
X67442366Y-92108255D01*
X67496270Y-92000000D01*
X67537403Y-91917394D01*
X67537403Y-91917393D01*
X67537405Y-91917389D01*
X67595756Y-91712310D01*
X67615429Y-91500000D01*
X67595756Y-91287690D01*
X67537405Y-91082611D01*
X67537403Y-91082606D01*
X67537403Y-91082605D01*
X67442367Y-90891746D01*
X67313872Y-90721593D01*
X67156302Y-90577948D01*
X66975019Y-90465702D01*
X66975017Y-90465701D01*
X66875608Y-90427190D01*
X66776198Y-90388679D01*
X66566610Y-90349500D01*
X66353390Y-90349500D01*
X66143802Y-90388679D01*
X66143799Y-90388679D01*
X66143799Y-90388680D01*
X65944982Y-90465701D01*
X65944980Y-90465702D01*
X65763699Y-90577947D01*
X65606127Y-90721593D01*
X65477634Y-90891744D01*
X65410676Y-91026215D01*
X65363173Y-91077452D01*
X65295510Y-91094873D01*
X65229170Y-91072947D01*
X65187294Y-91023348D01*
X65093600Y-90822422D01*
X65093599Y-90822420D01*
X64958113Y-90628926D01*
X64958108Y-90628920D01*
X64791082Y-90461894D01*
X64597578Y-90326399D01*
X64383492Y-90226570D01*
X64383486Y-90226567D01*
X64170000Y-90169364D01*
X64170000Y-91064498D01*
X64062315Y-91015320D01*
X63955763Y-91000000D01*
X63884237Y-91000000D01*
X63777685Y-91015320D01*
X63670000Y-91064498D01*
X63670000Y-90169364D01*
X63669999Y-90169364D01*
X63456513Y-90226567D01*
X63456507Y-90226570D01*
X63242422Y-90326399D01*
X63242420Y-90326400D01*
X63048926Y-90461886D01*
X63048920Y-90461891D01*
X62881891Y-90628920D01*
X62881886Y-90628926D01*
X62746400Y-90822420D01*
X62746399Y-90822422D01*
X62652705Y-91023348D01*
X62606532Y-91075787D01*
X62539339Y-91094939D01*
X62472457Y-91074723D01*
X62429323Y-91026215D01*
X62362366Y-90891745D01*
X62233872Y-90721593D01*
X62076302Y-90577948D01*
X61895019Y-90465702D01*
X61895017Y-90465701D01*
X61795608Y-90427190D01*
X61696198Y-90388679D01*
X61486610Y-90349500D01*
X61273390Y-90349500D01*
X61063802Y-90388679D01*
X61063799Y-90388679D01*
X61063799Y-90388680D01*
X60864982Y-90465701D01*
X60864980Y-90465702D01*
X60683699Y-90577947D01*
X60526127Y-90721593D01*
X60397632Y-90891746D01*
X60302596Y-91082605D01*
X60302596Y-91082607D01*
X60244244Y-91287689D01*
X60233471Y-91403951D01*
X60207685Y-91468888D01*
X60163130Y-91500804D01*
X60054622Y-91500804D01*
X60056869Y-91499194D01*
X60020497Y-91478331D01*
X59988307Y-91416318D01*
X59986529Y-91403951D01*
X59983175Y-91367759D01*
X59975756Y-91287690D01*
X59917405Y-91082611D01*
X59917403Y-91082606D01*
X59917403Y-91082605D01*
X59822367Y-90891746D01*
X59693872Y-90721593D01*
X59536302Y-90577948D01*
X59355019Y-90465702D01*
X59355017Y-90465701D01*
X59255608Y-90427190D01*
X59156198Y-90388679D01*
X58946610Y-90349500D01*
X58733390Y-90349500D01*
X58523802Y-90388679D01*
X58523799Y-90388679D01*
X58523799Y-90388680D01*
X58324982Y-90465701D01*
X58324980Y-90465702D01*
X58143699Y-90577947D01*
X57986127Y-90721593D01*
X57857632Y-90891746D01*
X57762596Y-91082605D01*
X57762596Y-91082607D01*
X57704244Y-91287689D01*
X57697970Y-91355394D01*
X57672183Y-91420331D01*
X57615383Y-91461018D01*
X57545602Y-91464538D01*
X57484995Y-91429772D01*
X57452806Y-91367759D01*
X57450499Y-91343952D01*
X57450499Y-90605143D01*
X57450499Y-90605136D01*
X57450497Y-90605117D01*
X57447586Y-90580012D01*
X57447585Y-90580010D01*
X57447585Y-90580009D01*
X57402206Y-90477235D01*
X57322765Y-90397794D01*
X57302124Y-90388680D01*
X57219992Y-90352415D01*
X57194865Y-90349500D01*
X55405143Y-90349500D01*
X55405117Y-90349502D01*
X55380012Y-90352413D01*
X55380008Y-90352415D01*
X55277235Y-90397793D01*
X55197794Y-90477234D01*
X55152415Y-90580006D01*
X55152415Y-90580008D01*
X55149500Y-90605131D01*
X55149500Y-92394856D01*
X50300500Y-92394856D01*
X50300500Y-86070000D01*
X58635172Y-86070000D01*
X58654462Y-86364312D01*
X58654464Y-86364324D01*
X58712001Y-86653584D01*
X58712005Y-86653599D01*
X58806812Y-86932888D01*
X58937258Y-87197406D01*
X58937265Y-87197419D01*
X59101123Y-87442649D01*
X59130405Y-87476040D01*
X59919438Y-86687007D01*
X59968348Y-86765999D01*
X60111931Y-86923501D01*
X60270388Y-87043163D01*
X59483958Y-87829593D01*
X59517350Y-87858876D01*
X59762580Y-88022734D01*
X59762593Y-88022741D01*
X60027111Y-88153187D01*
X60306400Y-88247994D01*
X60306415Y-88247998D01*
X60595675Y-88305535D01*
X60595687Y-88305537D01*
X60890000Y-88324827D01*
X61184312Y-88305537D01*
X61184324Y-88305535D01*
X61212151Y-88300000D01*
X82194355Y-88300000D01*
X82214859Y-88468869D01*
X82214860Y-88468874D01*
X82275182Y-88627931D01*
X82313780Y-88683849D01*
X82371817Y-88767929D01*
X82477505Y-88861560D01*
X82499150Y-88880736D01*
X82649773Y-88959789D01*
X82649775Y-88959790D01*
X82814944Y-89000500D01*
X82985056Y-89000500D01*
X83150225Y-88959790D01*
X83229692Y-88918081D01*
X83300849Y-88880736D01*
X83300850Y-88880734D01*
X83300852Y-88880734D01*
X83428183Y-88767929D01*
X83428185Y-88767925D01*
X83428767Y-88767270D01*
X83429312Y-88766927D01*
X83433797Y-88762955D01*
X83434457Y-88763700D01*
X83487958Y-88730145D01*
X83521580Y-88725500D01*
X94667392Y-88725500D01*
X94667393Y-88725500D01*
X94690360Y-88718036D01*
X94709276Y-88713495D01*
X94733126Y-88709719D01*
X94754636Y-88698757D01*
X94772614Y-88691310D01*
X94795581Y-88683849D01*
X94815118Y-88669653D01*
X94831706Y-88659488D01*
X94853220Y-88648528D01*
X94948528Y-88553220D01*
X103901747Y-79600000D01*
X106788682Y-79600000D01*
X106809186Y-79768869D01*
X106809187Y-79768874D01*
X106869509Y-79927931D01*
X106931802Y-80018177D01*
X106966144Y-80067929D01*
X107048778Y-80141136D01*
X107093477Y-80180736D01*
X107232729Y-80253821D01*
X107244102Y-80259790D01*
X107409271Y-80300500D01*
X107541717Y-80300500D01*
X107608756Y-80320185D01*
X107629398Y-80336819D01*
X113341458Y-86048878D01*
X113341468Y-86048889D01*
X113345798Y-86053219D01*
X113345799Y-86053220D01*
X113441107Y-86148528D01*
X113462628Y-86159493D01*
X113479207Y-86169653D01*
X113498746Y-86183849D01*
X113521708Y-86191309D01*
X113539681Y-86198753D01*
X113561201Y-86209719D01*
X113585051Y-86213495D01*
X113603972Y-86218039D01*
X113625816Y-86225136D01*
X113626934Y-86225500D01*
X113660839Y-86225500D01*
X123754564Y-86225500D01*
X123821603Y-86245185D01*
X123867358Y-86297989D01*
X123877302Y-86367147D01*
X123853518Y-86424227D01*
X123817632Y-86471746D01*
X123722596Y-86662605D01*
X123722596Y-86662607D01*
X123664244Y-86867689D01*
X123644571Y-87079999D01*
X123644571Y-87080000D01*
X123664244Y-87292310D01*
X123722596Y-87497392D01*
X123722596Y-87497394D01*
X123817632Y-87688253D01*
X123930853Y-87838180D01*
X123946128Y-87858407D01*
X124103698Y-88002052D01*
X124284981Y-88114298D01*
X124483802Y-88191321D01*
X124693390Y-88230500D01*
X124693392Y-88230500D01*
X124906608Y-88230500D01*
X124906610Y-88230500D01*
X125116198Y-88191321D01*
X125315019Y-88114298D01*
X125496302Y-88002052D01*
X125653872Y-87858407D01*
X125782366Y-87688255D01*
X125849325Y-87553781D01*
X125896825Y-87502548D01*
X125964488Y-87485126D01*
X126030828Y-87507051D01*
X126072705Y-87556651D01*
X126166400Y-87757579D01*
X126166402Y-87757583D01*
X126225072Y-87841373D01*
X126225073Y-87841373D01*
X126856922Y-87209523D01*
X126880507Y-87289844D01*
X126958239Y-87410798D01*
X127066900Y-87504952D01*
X127197685Y-87564680D01*
X127207466Y-87566086D01*
X126578625Y-88194925D01*
X126662421Y-88253599D01*
X126876507Y-88353429D01*
X126876516Y-88353433D01*
X127104673Y-88414567D01*
X127104684Y-88414569D01*
X127339998Y-88435157D01*
X127340002Y-88435157D01*
X127575315Y-88414569D01*
X127575326Y-88414567D01*
X127803483Y-88353433D01*
X127803492Y-88353429D01*
X128017578Y-88253600D01*
X128017582Y-88253598D01*
X128101373Y-88194926D01*
X128101373Y-88194925D01*
X127472533Y-87566086D01*
X127482315Y-87564680D01*
X127613100Y-87504952D01*
X127721761Y-87410798D01*
X127799493Y-87289844D01*
X127823076Y-87209524D01*
X128454925Y-87841373D01*
X128454926Y-87841373D01*
X128513598Y-87757582D01*
X128513600Y-87757578D01*
X128613429Y-87543492D01*
X128613433Y-87543483D01*
X128674567Y-87315326D01*
X128674569Y-87315315D01*
X128695157Y-87080001D01*
X128695157Y-87079998D01*
X128674569Y-86844684D01*
X128674567Y-86844673D01*
X128613433Y-86616516D01*
X128613429Y-86616507D01*
X128513600Y-86402423D01*
X128513599Y-86402421D01*
X128454925Y-86318626D01*
X128454925Y-86318625D01*
X127823076Y-86950475D01*
X127799493Y-86870156D01*
X127721761Y-86749202D01*
X127613100Y-86655048D01*
X127482315Y-86595320D01*
X127472532Y-86593913D01*
X128101373Y-85965073D01*
X128101373Y-85965072D01*
X128017583Y-85906402D01*
X128017579Y-85906400D01*
X127818426Y-85813533D01*
X127765987Y-85767360D01*
X127746835Y-85700167D01*
X127767051Y-85633286D01*
X127820216Y-85587951D01*
X127826005Y-85585537D01*
X127855019Y-85574298D01*
X128036302Y-85462052D01*
X128193872Y-85318407D01*
X128322366Y-85148255D01*
X128417405Y-84957389D01*
X128475756Y-84752310D01*
X128495429Y-84540000D01*
X128475756Y-84327690D01*
X128417405Y-84122611D01*
X128417403Y-84122606D01*
X128417403Y-84122605D01*
X128322367Y-83931746D01*
X128193872Y-83761593D01*
X128136968Y-83709718D01*
X128036302Y-83617948D01*
X127855019Y-83505702D01*
X127855017Y-83505701D01*
X127755608Y-83467190D01*
X127656198Y-83428679D01*
X127459385Y-83391888D01*
X127397106Y-83360221D01*
X127361833Y-83299908D01*
X127364767Y-83230100D01*
X127404976Y-83172960D01*
X127459384Y-83148111D01*
X127656198Y-83111321D01*
X127855019Y-83034298D01*
X128036302Y-82922052D01*
X128193872Y-82778407D01*
X128322366Y-82608255D01*
X128322369Y-82608249D01*
X128417403Y-82417394D01*
X128417403Y-82417393D01*
X128417405Y-82417389D01*
X128475756Y-82212310D01*
X128495429Y-82000000D01*
X128475756Y-81787690D01*
X128417405Y-81582611D01*
X128417403Y-81582606D01*
X128417403Y-81582605D01*
X128322367Y-81391746D01*
X128193872Y-81221593D01*
X128159800Y-81190532D01*
X128036302Y-81077948D01*
X127855019Y-80965702D01*
X127855017Y-80965701D01*
X127740798Y-80921453D01*
X127656198Y-80888679D01*
X127459385Y-80851888D01*
X127397106Y-80820221D01*
X127361833Y-80759908D01*
X127364767Y-80690100D01*
X127404976Y-80632960D01*
X127459384Y-80608111D01*
X127656198Y-80571321D01*
X127855019Y-80494298D01*
X128036302Y-80382052D01*
X128193872Y-80238407D01*
X128322366Y-80068255D01*
X128381209Y-79950081D01*
X128417403Y-79877394D01*
X128417403Y-79877393D01*
X128417405Y-79877389D01*
X128475756Y-79672310D01*
X128495429Y-79460000D01*
X128475756Y-79247690D01*
X128417405Y-79042611D01*
X128417403Y-79042606D01*
X128417403Y-79042605D01*
X128322367Y-78851746D01*
X128193872Y-78681593D01*
X128159025Y-78649826D01*
X128036302Y-78537948D01*
X127855019Y-78425702D01*
X127855017Y-78425701D01*
X127731704Y-78377930D01*
X127656198Y-78348679D01*
X127459385Y-78311888D01*
X127397106Y-78280221D01*
X127361833Y-78219908D01*
X127364767Y-78150100D01*
X127404976Y-78092960D01*
X127459384Y-78068111D01*
X127656198Y-78031321D01*
X127855019Y-77954298D01*
X128036302Y-77842052D01*
X128193872Y-77698407D01*
X128322366Y-77528255D01*
X128351740Y-77469263D01*
X128417403Y-77337394D01*
X128417403Y-77337393D01*
X128417405Y-77337389D01*
X128475756Y-77132310D01*
X128495429Y-76920000D01*
X128475756Y-76707690D01*
X128417405Y-76502611D01*
X128417403Y-76502606D01*
X128417403Y-76502605D01*
X128322367Y-76311746D01*
X128193872Y-76141593D01*
X128127813Y-76081372D01*
X128036302Y-75997948D01*
X127855019Y-75885702D01*
X127855017Y-75885701D01*
X127755608Y-75847190D01*
X127656198Y-75808679D01*
X127459385Y-75771888D01*
X127397106Y-75740221D01*
X127361833Y-75679908D01*
X127364767Y-75610100D01*
X127404976Y-75552960D01*
X127459384Y-75528111D01*
X127656198Y-75491321D01*
X127855019Y-75414298D01*
X128036302Y-75302052D01*
X128193872Y-75158407D01*
X128322366Y-74988255D01*
X128374909Y-74882734D01*
X128417403Y-74797394D01*
X128417403Y-74797393D01*
X128417405Y-74797389D01*
X128475756Y-74592310D01*
X128495429Y-74380000D01*
X128475756Y-74167690D01*
X128417405Y-73962611D01*
X128417403Y-73962606D01*
X128417403Y-73962605D01*
X128322367Y-73771746D01*
X128193872Y-73601593D01*
X128138073Y-73550725D01*
X128036302Y-73457948D01*
X127855019Y-73345702D01*
X127855017Y-73345701D01*
X127711926Y-73290268D01*
X127656198Y-73268679D01*
X127459385Y-73231888D01*
X127397106Y-73200221D01*
X127361833Y-73139908D01*
X127364767Y-73070100D01*
X127404976Y-73012960D01*
X127459384Y-72988111D01*
X127656198Y-72951321D01*
X127855019Y-72874298D01*
X128036302Y-72762052D01*
X128193872Y-72618407D01*
X128322366Y-72448255D01*
X128373076Y-72346415D01*
X128417403Y-72257394D01*
X128417403Y-72257393D01*
X128417405Y-72257389D01*
X128475756Y-72052310D01*
X128495429Y-71840000D01*
X128475756Y-71627690D01*
X128417405Y-71422611D01*
X128417403Y-71422606D01*
X128417403Y-71422605D01*
X128322367Y-71231746D01*
X128193872Y-71061593D01*
X128101369Y-70977265D01*
X128036302Y-70917948D01*
X127855019Y-70805702D01*
X127855017Y-70805701D01*
X127716410Y-70752005D01*
X127656198Y-70728679D01*
X127459385Y-70691888D01*
X127397106Y-70660221D01*
X127361833Y-70599908D01*
X127364767Y-70530100D01*
X127404976Y-70472960D01*
X127459384Y-70448111D01*
X127656198Y-70411321D01*
X127855019Y-70334298D01*
X128036302Y-70222052D01*
X128193872Y-70078407D01*
X128322366Y-69908255D01*
X128417405Y-69717389D01*
X128475756Y-69512310D01*
X128495429Y-69300000D01*
X128475756Y-69087690D01*
X128417405Y-68882611D01*
X128417403Y-68882606D01*
X128417403Y-68882605D01*
X128322367Y-68691746D01*
X128193872Y-68521593D01*
X128036302Y-68377948D01*
X127855019Y-68265702D01*
X127855017Y-68265701D01*
X127725790Y-68215639D01*
X127656198Y-68188679D01*
X127446610Y-68149500D01*
X127233390Y-68149500D01*
X127023802Y-68188679D01*
X127023799Y-68188679D01*
X127023799Y-68188680D01*
X126824982Y-68265701D01*
X126824980Y-68265702D01*
X126643699Y-68377947D01*
X126486127Y-68521593D01*
X126357632Y-68691746D01*
X126262596Y-68882605D01*
X126262596Y-68882607D01*
X126204244Y-69087689D01*
X126197971Y-69155387D01*
X126172185Y-69220324D01*
X126115384Y-69261012D01*
X126045604Y-69264532D01*
X125984997Y-69229767D01*
X125952807Y-69167754D01*
X125950500Y-69143946D01*
X125950500Y-68656903D01*
X125950500Y-68656898D01*
X125939877Y-68568436D01*
X125884361Y-68427658D01*
X125884360Y-68427657D01*
X125884360Y-68427656D01*
X125792922Y-68307077D01*
X125672343Y-68215639D01*
X125531561Y-68160122D01*
X125485926Y-68154642D01*
X125443102Y-68149500D01*
X124156898Y-68149500D01*
X124117853Y-68154188D01*
X124068438Y-68160122D01*
X123927656Y-68215639D01*
X123807077Y-68307077D01*
X123715639Y-68427656D01*
X123660122Y-68568438D01*
X123654188Y-68617853D01*
X123649500Y-68656898D01*
X123649500Y-69943102D01*
X123655126Y-69989954D01*
X123660122Y-70031561D01*
X123715639Y-70172343D01*
X123807077Y-70292922D01*
X123927656Y-70384360D01*
X123927657Y-70384360D01*
X123927658Y-70384361D01*
X124068436Y-70439877D01*
X124156898Y-70450500D01*
X124156903Y-70450500D01*
X124633755Y-70450500D01*
X124700794Y-70470185D01*
X124746549Y-70522989D01*
X124756493Y-70592147D01*
X124727468Y-70655703D01*
X124668690Y-70693477D01*
X124656549Y-70696386D01*
X124483802Y-70728679D01*
X124483799Y-70728679D01*
X124483799Y-70728680D01*
X124284982Y-70805701D01*
X124284980Y-70805702D01*
X124103699Y-70917947D01*
X123946127Y-71061593D01*
X123817632Y-71231746D01*
X123722596Y-71422605D01*
X123722596Y-71422607D01*
X123664244Y-71627689D01*
X123654660Y-71731125D01*
X123644571Y-71840000D01*
X123664244Y-72052310D01*
X123715940Y-72234001D01*
X123722596Y-72257392D01*
X123722596Y-72257394D01*
X123817633Y-72448254D01*
X123838414Y-72475772D01*
X123863107Y-72541133D01*
X123848542Y-72609468D01*
X123799346Y-72659081D01*
X123739461Y-72674500D01*
X112467393Y-72674500D01*
X112332607Y-72674500D01*
X112332604Y-72674501D01*
X112309635Y-72681963D01*
X112290722Y-72686503D01*
X112266874Y-72690280D01*
X112245359Y-72701242D01*
X112227389Y-72708685D01*
X112204421Y-72716148D01*
X112204417Y-72716149D01*
X112184880Y-72730344D01*
X112168298Y-72740506D01*
X112146783Y-72751469D01*
X112146780Y-72751471D01*
X111336433Y-73561819D01*
X110546780Y-74351472D01*
X110519058Y-74379194D01*
X110451471Y-74446780D01*
X110440510Y-74468293D01*
X110430346Y-74484878D01*
X110416152Y-74504414D01*
X110416151Y-74504417D01*
X110408688Y-74527385D01*
X110401243Y-74545358D01*
X110390280Y-74566873D01*
X110386503Y-74590722D01*
X110381962Y-74609639D01*
X110374500Y-74632604D01*
X110374500Y-75297794D01*
X110354815Y-75364833D01*
X110332727Y-75390609D01*
X110271818Y-75444569D01*
X110175182Y-75584568D01*
X110114860Y-75743625D01*
X110114859Y-75743630D01*
X110094355Y-75912500D01*
X110114859Y-76081369D01*
X110114860Y-76081374D01*
X110175182Y-76240431D01*
X110271818Y-76380430D01*
X110365511Y-76463435D01*
X110402638Y-76522624D01*
X110401870Y-76592489D01*
X110365511Y-76649065D01*
X110271818Y-76732069D01*
X110175182Y-76872068D01*
X110114860Y-77031125D01*
X110114859Y-77031130D01*
X110094355Y-77200000D01*
X110114859Y-77368869D01*
X110114860Y-77368874D01*
X110175182Y-77527931D01*
X110182279Y-77538212D01*
X110271817Y-77667929D01*
X110372566Y-77757185D01*
X110409693Y-77816374D01*
X110408925Y-77886239D01*
X110372566Y-77942814D01*
X110359605Y-77954298D01*
X110271816Y-78032072D01*
X110175183Y-78172067D01*
X110132828Y-78283748D01*
X110090650Y-78339450D01*
X110025052Y-78363507D01*
X109956862Y-78348280D01*
X109929205Y-78327457D01*
X109787087Y-78185339D01*
X109753602Y-78124016D01*
X109751672Y-78082715D01*
X109755645Y-78050000D01*
X109735140Y-77881128D01*
X109674818Y-77722070D01*
X109672564Y-77718805D01*
X109637447Y-77667929D01*
X109578183Y-77582071D01*
X109450852Y-77469266D01*
X109450849Y-77469263D01*
X109300226Y-77390210D01*
X109135056Y-77349500D01*
X108964944Y-77349500D01*
X108799773Y-77390210D01*
X108649150Y-77469263D01*
X108521816Y-77582072D01*
X108425182Y-77722068D01*
X108364860Y-77881125D01*
X108364859Y-77881130D01*
X108344355Y-78050000D01*
X108364859Y-78218869D01*
X108364860Y-78218874D01*
X108425182Y-78377931D01*
X108458156Y-78425701D01*
X108521817Y-78517929D01*
X108596226Y-78583849D01*
X108649150Y-78630736D01*
X108796909Y-78708286D01*
X108799775Y-78709790D01*
X108964944Y-78750500D01*
X109097390Y-78750500D01*
X109164429Y-78770185D01*
X109185071Y-78786819D01*
X109225914Y-78827662D01*
X109259399Y-78888985D01*
X109254415Y-78958677D01*
X109212543Y-79014610D01*
X109167910Y-79035739D01*
X109149777Y-79040208D01*
X109149774Y-79040209D01*
X108999150Y-79119263D01*
X108871816Y-79232072D01*
X108775182Y-79372068D01*
X108714860Y-79531125D01*
X108714859Y-79531130D01*
X108694355Y-79700000D01*
X108714859Y-79868869D01*
X108714861Y-79868877D01*
X108723803Y-79892454D01*
X108729170Y-79962117D01*
X108696022Y-80023623D01*
X108634884Y-80057444D01*
X108565166Y-80052842D01*
X108520180Y-80024105D01*
X108231414Y-79735339D01*
X108197929Y-79674016D01*
X108195999Y-79632715D01*
X108199972Y-79600000D01*
X108179467Y-79431128D01*
X108178617Y-79428888D01*
X108133914Y-79311014D01*
X108119145Y-79272070D01*
X108091535Y-79232071D01*
X108041643Y-79159790D01*
X108022510Y-79132071D01*
X107895179Y-79019266D01*
X107895176Y-79019263D01*
X107744553Y-78940210D01*
X107579383Y-78899500D01*
X107409271Y-78899500D01*
X107244100Y-78940210D01*
X107093477Y-79019263D01*
X106966143Y-79132072D01*
X106869509Y-79272068D01*
X106809187Y-79431125D01*
X106809186Y-79431130D01*
X106788682Y-79600000D01*
X103901747Y-79600000D01*
X110864928Y-72636818D01*
X110926251Y-72603334D01*
X110952609Y-72600500D01*
X111085056Y-72600500D01*
X111250225Y-72559790D01*
X111329692Y-72518081D01*
X111400849Y-72480736D01*
X111400850Y-72480734D01*
X111400852Y-72480734D01*
X111528183Y-72367929D01*
X111624818Y-72227930D01*
X111685140Y-72068872D01*
X111705645Y-71900000D01*
X111685140Y-71731128D01*
X111624818Y-71572070D01*
X111614657Y-71557350D01*
X111590293Y-71522052D01*
X111528183Y-71432071D01*
X111400852Y-71319266D01*
X111400849Y-71319263D01*
X111250226Y-71240210D01*
X111085056Y-71199500D01*
X110914944Y-71199500D01*
X110749773Y-71240210D01*
X110599150Y-71319263D01*
X110471816Y-71432072D01*
X110375183Y-71572067D01*
X110365942Y-71596435D01*
X110323763Y-71652137D01*
X110258166Y-71676194D01*
X110189975Y-71660967D01*
X110140843Y-71611290D01*
X110134058Y-71596435D01*
X110124818Y-71572070D01*
X110028183Y-71432071D01*
X109900852Y-71319266D01*
X109900849Y-71319263D01*
X109750226Y-71240210D01*
X109585056Y-71199500D01*
X109414944Y-71199500D01*
X109249773Y-71240210D01*
X109099150Y-71319263D01*
X108971816Y-71432072D01*
X108875182Y-71572068D01*
X108814860Y-71731125D01*
X108814859Y-71731130D01*
X108794355Y-71900000D01*
X108794355Y-71900003D01*
X108798326Y-71932715D01*
X108786864Y-72001638D01*
X108762911Y-72035339D01*
X94060071Y-86738181D01*
X93998748Y-86771666D01*
X93972390Y-86774500D01*
X83521580Y-86774500D01*
X83454541Y-86754815D01*
X83433799Y-86737042D01*
X83433797Y-86737045D01*
X83433627Y-86736894D01*
X83428767Y-86732730D01*
X83428185Y-86732073D01*
X83300849Y-86619263D01*
X83150226Y-86540210D01*
X82985056Y-86499500D01*
X82814944Y-86499500D01*
X82649773Y-86540210D01*
X82499150Y-86619263D01*
X82371816Y-86732072D01*
X82275182Y-86872068D01*
X82214860Y-87031125D01*
X82214859Y-87031130D01*
X82194355Y-87200000D01*
X82214859Y-87368869D01*
X82214860Y-87368874D01*
X82275182Y-87527931D01*
X82376078Y-87674102D01*
X82375002Y-87674844D01*
X82401400Y-87731010D01*
X82392214Y-87800274D01*
X82375848Y-87825739D01*
X82376078Y-87825898D01*
X82275182Y-87972068D01*
X82214860Y-88131125D01*
X82214859Y-88131130D01*
X82194355Y-88300000D01*
X61212151Y-88300000D01*
X61473584Y-88247998D01*
X61473599Y-88247994D01*
X61752888Y-88153187D01*
X62017406Y-88022741D01*
X62017419Y-88022734D01*
X62262648Y-87858877D01*
X62296039Y-87829593D01*
X61509611Y-87043163D01*
X61668069Y-86923501D01*
X61811652Y-86765999D01*
X61860561Y-86687007D01*
X62649593Y-87476039D01*
X62678877Y-87442648D01*
X62842734Y-87197419D01*
X62842741Y-87197406D01*
X62973187Y-86932888D01*
X63067994Y-86653599D01*
X63067998Y-86653584D01*
X63125535Y-86364324D01*
X63125537Y-86364312D01*
X63144827Y-86070000D01*
X63125537Y-85775687D01*
X63125535Y-85775675D01*
X63067998Y-85486415D01*
X63067994Y-85486400D01*
X62973187Y-85207111D01*
X62842741Y-84942593D01*
X62842734Y-84942580D01*
X62678876Y-84697350D01*
X62649593Y-84663958D01*
X61860560Y-85452991D01*
X61811652Y-85374001D01*
X61668069Y-85216499D01*
X61509610Y-85096835D01*
X62296040Y-84310405D01*
X62262649Y-84281123D01*
X62017419Y-84117265D01*
X62017406Y-84117258D01*
X61752888Y-83986812D01*
X61473599Y-83892005D01*
X61473584Y-83892001D01*
X61184324Y-83834464D01*
X61184312Y-83834462D01*
X60890000Y-83815172D01*
X60595687Y-83834462D01*
X60595675Y-83834464D01*
X60306415Y-83892001D01*
X60306400Y-83892005D01*
X60027111Y-83986812D01*
X59762593Y-84117258D01*
X59762580Y-84117265D01*
X59517346Y-84281126D01*
X59517339Y-84281131D01*
X59483959Y-84310403D01*
X59483959Y-84310405D01*
X60270389Y-85096835D01*
X60111931Y-85216499D01*
X59968348Y-85374001D01*
X59919438Y-85452992D01*
X59130405Y-84663959D01*
X59130403Y-84663959D01*
X59101131Y-84697339D01*
X59101126Y-84697346D01*
X58937265Y-84942580D01*
X58937258Y-84942593D01*
X58806812Y-85207111D01*
X58712005Y-85486400D01*
X58712001Y-85486415D01*
X58654464Y-85775675D01*
X58654462Y-85775687D01*
X58635172Y-86070000D01*
X50300500Y-86070000D01*
X50300500Y-83000000D01*
X62333179Y-83000000D01*
X62352424Y-83219976D01*
X62352426Y-83219986D01*
X62409575Y-83433270D01*
X62409580Y-83433284D01*
X62502898Y-83633405D01*
X62502901Y-83633411D01*
X62548258Y-83698187D01*
X62548259Y-83698188D01*
X63146220Y-83100226D01*
X63146467Y-83103516D01*
X63197128Y-83232598D01*
X63283586Y-83341013D01*
X63398159Y-83419127D01*
X63502301Y-83451250D01*
X62901810Y-84051740D01*
X62966590Y-84097099D01*
X62966592Y-84097100D01*
X63166715Y-84190419D01*
X63166729Y-84190424D01*
X63380013Y-84247573D01*
X63380023Y-84247575D01*
X63599999Y-84266821D01*
X63600001Y-84266821D01*
X63819976Y-84247575D01*
X63819986Y-84247573D01*
X64033270Y-84190424D01*
X64033284Y-84190419D01*
X64233407Y-84097100D01*
X64233417Y-84097094D01*
X64298188Y-84051741D01*
X63697020Y-83450572D01*
X63737119Y-83444529D01*
X63862054Y-83384363D01*
X63963705Y-83290045D01*
X64033039Y-83169955D01*
X64049850Y-83096297D01*
X64651741Y-83698188D01*
X64697094Y-83633417D01*
X64697100Y-83633407D01*
X64790419Y-83433284D01*
X64790424Y-83433270D01*
X64847573Y-83219986D01*
X64847575Y-83219976D01*
X64866821Y-83000000D01*
X64866821Y-82999999D01*
X64847575Y-82780023D01*
X64847573Y-82780013D01*
X64790424Y-82566729D01*
X64790420Y-82566720D01*
X64697096Y-82366586D01*
X64651741Y-82301811D01*
X64651740Y-82301810D01*
X64053779Y-82899772D01*
X64053533Y-82896484D01*
X64002872Y-82767402D01*
X63916414Y-82658987D01*
X63801841Y-82580873D01*
X63697698Y-82548749D01*
X64298188Y-81948259D01*
X64298187Y-81948258D01*
X64233411Y-81902901D01*
X64233405Y-81902898D01*
X64033284Y-81809580D01*
X64033273Y-81809576D01*
X63873846Y-81766858D01*
X63814186Y-81730493D01*
X63783657Y-81667646D01*
X63791952Y-81598270D01*
X63836437Y-81544392D01*
X63869939Y-81528424D01*
X64008569Y-81486372D01*
X64193150Y-81387711D01*
X64354936Y-81254936D01*
X64487711Y-81093150D01*
X64586372Y-80908569D01*
X64647127Y-80708286D01*
X64667641Y-80500000D01*
X64647127Y-80291714D01*
X64586372Y-80091431D01*
X64487711Y-79906850D01*
X64487708Y-79906846D01*
X64354936Y-79745063D01*
X64193153Y-79612291D01*
X64193151Y-79612290D01*
X64193150Y-79612289D01*
X64187665Y-79609357D01*
X64137822Y-79560397D01*
X64122361Y-79492260D01*
X64146192Y-79426580D01*
X64187664Y-79390642D01*
X64193150Y-79387711D01*
X64354936Y-79254936D01*
X64487711Y-79093150D01*
X64586372Y-78908569D01*
X64647127Y-78708286D01*
X64667641Y-78500000D01*
X64647127Y-78291714D01*
X64586372Y-78091431D01*
X64487711Y-77906850D01*
X64466603Y-77881130D01*
X64354936Y-77745063D01*
X64193153Y-77612291D01*
X64193151Y-77612290D01*
X64193150Y-77612289D01*
X64008569Y-77513628D01*
X63862317Y-77469263D01*
X63808284Y-77452872D01*
X63600000Y-77432359D01*
X63391715Y-77452872D01*
X63191428Y-77513629D01*
X63006846Y-77612291D01*
X62845063Y-77745063D01*
X62712291Y-77906846D01*
X62613629Y-78091428D01*
X62552872Y-78291715D01*
X62532359Y-78500000D01*
X62552872Y-78708284D01*
X62570728Y-78767147D01*
X62613628Y-78908569D01*
X62705652Y-79080734D01*
X62712291Y-79093153D01*
X62845063Y-79254936D01*
X63006846Y-79387708D01*
X63006850Y-79387711D01*
X63012336Y-79390643D01*
X63062179Y-79439607D01*
X63077638Y-79507745D01*
X63053805Y-79573424D01*
X63012337Y-79609356D01*
X63012332Y-79609359D01*
X63006846Y-79612291D01*
X62845063Y-79745063D01*
X62712291Y-79906846D01*
X62613629Y-80091428D01*
X62552872Y-80291715D01*
X62532359Y-80500000D01*
X62552872Y-80708284D01*
X62552873Y-80708286D01*
X62613628Y-80908569D01*
X62711304Y-81091308D01*
X62712291Y-81093153D01*
X62845063Y-81254936D01*
X62978710Y-81364617D01*
X63006850Y-81387711D01*
X63191431Y-81486372D01*
X63330055Y-81528423D01*
X63388493Y-81566720D01*
X63416949Y-81630532D01*
X63406389Y-81699599D01*
X63360165Y-81751992D01*
X63326153Y-81766858D01*
X63166727Y-81809576D01*
X63166720Y-81809579D01*
X62966590Y-81902901D01*
X62901811Y-81948258D01*
X63502980Y-82549427D01*
X63462881Y-82555471D01*
X63337946Y-82615637D01*
X63236295Y-82709955D01*
X63166961Y-82830045D01*
X63150149Y-82903701D01*
X62548258Y-82301811D01*
X62502901Y-82366590D01*
X62409579Y-82566720D01*
X62409575Y-82566729D01*
X62352426Y-82780013D01*
X62352424Y-82780023D01*
X62333179Y-82999999D01*
X62333179Y-83000000D01*
X50300500Y-83000000D01*
X50300500Y-76806856D01*
X62537500Y-76806856D01*
X62537502Y-76806882D01*
X62540413Y-76831987D01*
X62540415Y-76831991D01*
X62585793Y-76934764D01*
X62585794Y-76934765D01*
X62665235Y-77014206D01*
X62768009Y-77059585D01*
X62793135Y-77062500D01*
X64406864Y-77062499D01*
X64406879Y-77062497D01*
X64406882Y-77062497D01*
X64431987Y-77059586D01*
X64431988Y-77059585D01*
X64431991Y-77059585D01*
X64534765Y-77014206D01*
X64614206Y-76934765D01*
X64659585Y-76831991D01*
X64662500Y-76806865D01*
X64662499Y-75193136D01*
X64661553Y-75184977D01*
X64659586Y-75168012D01*
X64659585Y-75168010D01*
X64659585Y-75168009D01*
X64614206Y-75065235D01*
X64534765Y-74985794D01*
X64534763Y-74985793D01*
X64431992Y-74940415D01*
X64406865Y-74937500D01*
X62793143Y-74937500D01*
X62793117Y-74937502D01*
X62768012Y-74940413D01*
X62768008Y-74940415D01*
X62665235Y-74985793D01*
X62585794Y-75065234D01*
X62540415Y-75168006D01*
X62540415Y-75168008D01*
X62537500Y-75193131D01*
X62537500Y-76806856D01*
X50300500Y-76806856D01*
X50300500Y-72930000D01*
X58635172Y-72930000D01*
X58654462Y-73224312D01*
X58654464Y-73224324D01*
X58712001Y-73513584D01*
X58712005Y-73513599D01*
X58806812Y-73792888D01*
X58937258Y-74057406D01*
X58937265Y-74057419D01*
X59101123Y-74302649D01*
X59130405Y-74336040D01*
X59919438Y-73547007D01*
X59968348Y-73625999D01*
X60111931Y-73783501D01*
X60270388Y-73903163D01*
X59483958Y-74689593D01*
X59517350Y-74718876D01*
X59762580Y-74882734D01*
X59762593Y-74882741D01*
X60027111Y-75013187D01*
X60306400Y-75107994D01*
X60306415Y-75107998D01*
X60595675Y-75165535D01*
X60595687Y-75165537D01*
X60890000Y-75184827D01*
X61184312Y-75165537D01*
X61184324Y-75165535D01*
X61473584Y-75107998D01*
X61473599Y-75107994D01*
X61752888Y-75013187D01*
X62017406Y-74882741D01*
X62017419Y-74882734D01*
X62262648Y-74718877D01*
X62296039Y-74689593D01*
X61509611Y-73903163D01*
X61668069Y-73783501D01*
X61811652Y-73625999D01*
X61860561Y-73547007D01*
X62649593Y-74336039D01*
X62678877Y-74302648D01*
X62842734Y-74057419D01*
X62842741Y-74057406D01*
X62973187Y-73792888D01*
X63067994Y-73513599D01*
X63067998Y-73513584D01*
X63125535Y-73224324D01*
X63125537Y-73224312D01*
X63131063Y-73140001D01*
X93544843Y-73140001D01*
X93565430Y-73375315D01*
X93565432Y-73375326D01*
X93626566Y-73603483D01*
X93626570Y-73603492D01*
X93726400Y-73817579D01*
X93726402Y-73817583D01*
X93785072Y-73901373D01*
X93785073Y-73901373D01*
X94416923Y-73269523D01*
X94440507Y-73349844D01*
X94518239Y-73470798D01*
X94626900Y-73564952D01*
X94757685Y-73624680D01*
X94767466Y-73626086D01*
X94138625Y-74254925D01*
X94222421Y-74313599D01*
X94421573Y-74406466D01*
X94474012Y-74452638D01*
X94493164Y-74519832D01*
X94472948Y-74586713D01*
X94419783Y-74632048D01*
X94413968Y-74634472D01*
X94406771Y-74637260D01*
X94384982Y-74645701D01*
X94384980Y-74645702D01*
X94203699Y-74757947D01*
X94046127Y-74901593D01*
X93917632Y-75071746D01*
X93822596Y-75262605D01*
X93822596Y-75262607D01*
X93764244Y-75467689D01*
X93744580Y-75679908D01*
X93744571Y-75680000D01*
X93764244Y-75892310D01*
X93807741Y-76045185D01*
X93822596Y-76097392D01*
X93822596Y-76097394D01*
X93917632Y-76288253D01*
X93987241Y-76380429D01*
X94046128Y-76458407D01*
X94203698Y-76602052D01*
X94384981Y-76714298D01*
X94583802Y-76791321D01*
X94793390Y-76830500D01*
X94793392Y-76830500D01*
X95006608Y-76830500D01*
X95006610Y-76830500D01*
X95216198Y-76791321D01*
X95415019Y-76714298D01*
X95596302Y-76602052D01*
X95753872Y-76458407D01*
X95882366Y-76288255D01*
X95942670Y-76167147D01*
X95977403Y-76097394D01*
X95977403Y-76097393D01*
X95977405Y-76097389D01*
X96035756Y-75892310D01*
X96055429Y-75680000D01*
X96055420Y-75679908D01*
X96043657Y-75552960D01*
X96035756Y-75467690D01*
X95977405Y-75262611D01*
X95977403Y-75262606D01*
X95977403Y-75262605D01*
X95882367Y-75071746D01*
X95753872Y-74901593D01*
X95682235Y-74836287D01*
X95596302Y-74757948D01*
X95415019Y-74645702D01*
X95415014Y-74645700D01*
X95408129Y-74643032D01*
X95386037Y-74634474D01*
X95330636Y-74591903D01*
X95307045Y-74526136D01*
X95322756Y-74458056D01*
X95372779Y-74409276D01*
X95378427Y-74406466D01*
X95577574Y-74313602D01*
X95577582Y-74313598D01*
X95661373Y-74254926D01*
X95661373Y-74254925D01*
X95032533Y-73626086D01*
X95042315Y-73624680D01*
X95173100Y-73564952D01*
X95281761Y-73470798D01*
X95359493Y-73349844D01*
X95383076Y-73269524D01*
X96014925Y-73901373D01*
X96014926Y-73901373D01*
X96073598Y-73817582D01*
X96073600Y-73817578D01*
X96173429Y-73603492D01*
X96173433Y-73603483D01*
X96234567Y-73375326D01*
X96234569Y-73375315D01*
X96255157Y-73140001D01*
X96255157Y-73139998D01*
X96234569Y-72904684D01*
X96234567Y-72904673D01*
X96173433Y-72676516D01*
X96173429Y-72676507D01*
X96073600Y-72462423D01*
X96073599Y-72462421D01*
X96014925Y-72378626D01*
X96014925Y-72378625D01*
X95383076Y-73010475D01*
X95359493Y-72930156D01*
X95281761Y-72809202D01*
X95173100Y-72715048D01*
X95042315Y-72655320D01*
X95032533Y-72653913D01*
X95661373Y-72025073D01*
X95661373Y-72025072D01*
X95577583Y-71966402D01*
X95577579Y-71966400D01*
X95378426Y-71873533D01*
X95325987Y-71827360D01*
X95306835Y-71760167D01*
X95327051Y-71693286D01*
X95380216Y-71647951D01*
X95386005Y-71645537D01*
X95415019Y-71634298D01*
X95596302Y-71522052D01*
X95753872Y-71378407D01*
X95882366Y-71208255D01*
X95901214Y-71170403D01*
X95977403Y-71017394D01*
X95977403Y-71017393D01*
X95977405Y-71017389D01*
X96035756Y-70812310D01*
X96055429Y-70600000D01*
X96055420Y-70599908D01*
X96041634Y-70451129D01*
X96035756Y-70387690D01*
X95977405Y-70182611D01*
X95977403Y-70182606D01*
X95977403Y-70182605D01*
X95882367Y-69991746D01*
X95753872Y-69821593D01*
X95596302Y-69677948D01*
X95415019Y-69565702D01*
X95415017Y-69565701D01*
X95277197Y-69512310D01*
X95216198Y-69488679D01*
X95043456Y-69456387D01*
X94981176Y-69424719D01*
X94945903Y-69364407D01*
X94948837Y-69294599D01*
X94989046Y-69237459D01*
X95053764Y-69211128D01*
X95066233Y-69210499D01*
X95794864Y-69210499D01*
X95794879Y-69210497D01*
X95794882Y-69210497D01*
X95819987Y-69207586D01*
X95819988Y-69207585D01*
X95819991Y-69207585D01*
X95922765Y-69162206D01*
X96002206Y-69082765D01*
X96047585Y-68979991D01*
X96050500Y-68954865D01*
X96050499Y-67165136D01*
X96050497Y-67165117D01*
X96047586Y-67140012D01*
X96047585Y-67140010D01*
X96047585Y-67140009D01*
X96002206Y-67037235D01*
X95922765Y-66957794D01*
X95922763Y-66957793D01*
X95819992Y-66912415D01*
X95794865Y-66909500D01*
X94005143Y-66909500D01*
X94005117Y-66909502D01*
X93980012Y-66912413D01*
X93980008Y-66912415D01*
X93877235Y-66957793D01*
X93797794Y-67037234D01*
X93752415Y-67140006D01*
X93752415Y-67140008D01*
X93749500Y-67165131D01*
X93749500Y-68954856D01*
X93749502Y-68954882D01*
X93752413Y-68979987D01*
X93752415Y-68979991D01*
X93797793Y-69082764D01*
X93797794Y-69082765D01*
X93877235Y-69162206D01*
X93980009Y-69207585D01*
X94005135Y-69210500D01*
X94733758Y-69210499D01*
X94800795Y-69230183D01*
X94846550Y-69282987D01*
X94856494Y-69352146D01*
X94827469Y-69415702D01*
X94768691Y-69453476D01*
X94756542Y-69456388D01*
X94700116Y-69466935D01*
X94583802Y-69488679D01*
X94583800Y-69488679D01*
X94583798Y-69488680D01*
X94384982Y-69565701D01*
X94384980Y-69565702D01*
X94203699Y-69677947D01*
X94046127Y-69821593D01*
X93917632Y-69991746D01*
X93822596Y-70182605D01*
X93822596Y-70182607D01*
X93764244Y-70387689D01*
X93744571Y-70599999D01*
X93744571Y-70600000D01*
X93764244Y-70812310D01*
X93822596Y-71017392D01*
X93822596Y-71017394D01*
X93917632Y-71208253D01*
X94001464Y-71319263D01*
X94046128Y-71378407D01*
X94203698Y-71522052D01*
X94384981Y-71634298D01*
X94413961Y-71645525D01*
X94469362Y-71688095D01*
X94492954Y-71753861D01*
X94477244Y-71821942D01*
X94427222Y-71870722D01*
X94421573Y-71873533D01*
X94222419Y-71966401D01*
X94138625Y-72025072D01*
X94767466Y-72653913D01*
X94757685Y-72655320D01*
X94626900Y-72715048D01*
X94518239Y-72809202D01*
X94440507Y-72930156D01*
X94416923Y-73010476D01*
X93785072Y-72378625D01*
X93726401Y-72462419D01*
X93626570Y-72676507D01*
X93626566Y-72676516D01*
X93565432Y-72904673D01*
X93565430Y-72904684D01*
X93544843Y-73139998D01*
X93544843Y-73140001D01*
X63131063Y-73140001D01*
X63144827Y-72930000D01*
X63125537Y-72635687D01*
X63125535Y-72635675D01*
X63067998Y-72346415D01*
X63067994Y-72346400D01*
X62973187Y-72067111D01*
X62842741Y-71802593D01*
X62842734Y-71802580D01*
X62678876Y-71557350D01*
X62649593Y-71523958D01*
X61860560Y-72312991D01*
X61811652Y-72234001D01*
X61668069Y-72076499D01*
X61509610Y-71956835D01*
X62296040Y-71170405D01*
X62262649Y-71141123D01*
X62017419Y-70977265D01*
X62017406Y-70977258D01*
X61752888Y-70846812D01*
X61473599Y-70752005D01*
X61473584Y-70752001D01*
X61184324Y-70694464D01*
X61184312Y-70694462D01*
X60890000Y-70675172D01*
X60595687Y-70694462D01*
X60595675Y-70694464D01*
X60306415Y-70752001D01*
X60306400Y-70752005D01*
X60027111Y-70846812D01*
X59762593Y-70977258D01*
X59762580Y-70977265D01*
X59517346Y-71141126D01*
X59517339Y-71141131D01*
X59483959Y-71170403D01*
X59483959Y-71170405D01*
X60270389Y-71956835D01*
X60111931Y-72076499D01*
X59968348Y-72234001D01*
X59919438Y-72312992D01*
X59130405Y-71523959D01*
X59130403Y-71523959D01*
X59101131Y-71557339D01*
X59101126Y-71557346D01*
X58937265Y-71802580D01*
X58937258Y-71802593D01*
X58806812Y-72067111D01*
X58712005Y-72346400D01*
X58712001Y-72346415D01*
X58654464Y-72635675D01*
X58654462Y-72635687D01*
X58635172Y-72930000D01*
X50300500Y-72930000D01*
X50300500Y-61389778D01*
X50320185Y-61322739D01*
X50372989Y-61276984D01*
X50442147Y-61267040D01*
X50505703Y-61296065D01*
X50536698Y-61336981D01*
X50576803Y-61422208D01*
X50576806Y-61422214D01*
X50747515Y-61691210D01*
X50841557Y-61804887D01*
X51560042Y-61086402D01*
X51615662Y-61166982D01*
X51786113Y-61344441D01*
X51913434Y-61440117D01*
X51192063Y-62161488D01*
X51440605Y-62342065D01*
X51440609Y-62342068D01*
X51719802Y-62495555D01*
X51719803Y-62495556D01*
X52016017Y-62612834D01*
X52324612Y-62692068D01*
X52324621Y-62692070D01*
X52640688Y-62731999D01*
X52640702Y-62732000D01*
X52959298Y-62732000D01*
X52959311Y-62731999D01*
X53275378Y-62692070D01*
X53275387Y-62692068D01*
X53583982Y-62612834D01*
X53880196Y-62495556D01*
X53880204Y-62495552D01*
X54159386Y-62342071D01*
X54407934Y-62161488D01*
X54407935Y-62161488D01*
X53688033Y-61441586D01*
X53718510Y-61422314D01*
X53902688Y-61259146D01*
X54042033Y-61088480D01*
X54758441Y-61804888D01*
X54852487Y-61691205D01*
X55023193Y-61422214D01*
X55023197Y-61422208D01*
X55158846Y-61133940D01*
X55158848Y-61133935D01*
X55257298Y-60830934D01*
X55317002Y-60517963D01*
X55337006Y-60200005D01*
X55337006Y-60199994D01*
X55317002Y-59882036D01*
X55257298Y-59569065D01*
X55158848Y-59266064D01*
X55158846Y-59266059D01*
X55023197Y-58977791D01*
X55023193Y-58977785D01*
X54852484Y-58708789D01*
X54758440Y-58595110D01*
X54039956Y-59313594D01*
X53984338Y-59233018D01*
X53813887Y-59055559D01*
X53686564Y-58959881D01*
X54407935Y-58238510D01*
X54159394Y-58057934D01*
X54159390Y-58057931D01*
X53932435Y-57933162D01*
X53883171Y-57883616D01*
X53868515Y-57815301D01*
X53893119Y-57749906D01*
X53949172Y-57708195D01*
X53992173Y-57700500D01*
X131607827Y-57700500D01*
X131674866Y-57720185D01*
G37*
G04 #@! TD.AperFunction*
G04 #@! TA.AperFunction,Conductor*
G36*
X51674866Y-57720185D02*
G01*
X51720621Y-57772989D01*
X51730565Y-57842147D01*
X51701540Y-57905703D01*
X51667565Y-57933162D01*
X51440604Y-58057935D01*
X51440600Y-58057937D01*
X51192064Y-58238510D01*
X51192063Y-58238510D01*
X51911966Y-58958413D01*
X51881490Y-58977686D01*
X51697312Y-59140854D01*
X51557966Y-59311519D01*
X50841557Y-58595110D01*
X50747519Y-58708784D01*
X50747517Y-58708787D01*
X50576806Y-58977785D01*
X50576802Y-58977791D01*
X50536698Y-59063018D01*
X50490343Y-59115296D01*
X50423083Y-59134213D01*
X50356273Y-59113763D01*
X50311124Y-59060440D01*
X50300500Y-59010221D01*
X50300500Y-57824500D01*
X50320185Y-57757461D01*
X50372989Y-57711706D01*
X50424500Y-57700500D01*
X51607827Y-57700500D01*
X51674866Y-57720185D01*
G37*
G04 #@! TD.AperFunction*
M02*
