G04 #@! TF.GenerationSoftware,KiCad,Pcbnew,7.0.10-7.0.10~ubuntu20.04.1*
G04 #@! TF.CreationDate,2024-01-07T18:49:02+01:00*
G04 #@! TF.ProjectId,msx-omega-usbkeybctrl,6d73782d-6f6d-4656-9761-2d7573626b65,A*
G04 #@! TF.SameCoordinates,Original*
G04 #@! TF.FileFunction,Legend,Bot*
G04 #@! TF.FilePolarity,Positive*
%FSLAX46Y46*%
G04 Gerber Fmt 4.6, Leading zero omitted, Abs format (unit mm)*
G04 Created by KiCad (PCBNEW 7.0.10-7.0.10~ubuntu20.04.1) date 2024-01-07 18:49:02*
%MOMM*%
%LPD*%
G01*
G04 APERTURE LIST*
G04 Aperture macros list*
%AMRoundRect*
0 Rectangle with rounded corners*
0 $1 Rounding radius*
0 $2 $3 $4 $5 $6 $7 $8 $9 X,Y pos of 4 corners*
0 Add a 4 corners polygon primitive as box body*
4,1,4,$2,$3,$4,$5,$6,$7,$8,$9,$2,$3,0*
0 Add four circle primitives for the rounded corners*
1,1,$1+$1,$2,$3*
1,1,$1+$1,$4,$5*
1,1,$1+$1,$6,$7*
1,1,$1+$1,$8,$9*
0 Add four rect primitives between the rounded corners*
20,1,$1+$1,$2,$3,$4,$5,0*
20,1,$1+$1,$4,$5,$6,$7,0*
20,1,$1+$1,$6,$7,$8,$9,0*
20,1,$1+$1,$8,$9,$2,$3,0*%
G04 Aperture macros list end*
%ADD10C,4.064000*%
%ADD11R,1.700000X1.700000*%
%ADD12O,1.700000X1.700000*%
%ADD13RoundRect,0.250000X-0.600000X-0.600000X0.600000X-0.600000X0.600000X0.600000X-0.600000X0.600000X0*%
%ADD14C,1.700000*%
%ADD15R,1.524000X1.524000*%
%ADD16C,1.524000*%
%ADD17C,3.500000*%
G04 APERTURE END LIST*
G36*
X118369401Y-66691796D02*
G01*
X117890687Y-66691796D01*
X117890687Y-66438359D01*
X118369401Y-66438359D01*
X118369401Y-66691796D01*
G37*
G36*
X110907095Y-63115521D02*
G01*
X109470953Y-63115521D01*
X109470953Y-62298891D01*
X110907095Y-62298891D01*
X110907095Y-63115521D01*
G37*
G36*
X104374058Y-66691796D02*
G01*
X103923503Y-66691796D01*
X103923503Y-66438359D01*
X104374058Y-66438359D01*
X104374058Y-66691796D01*
G37*
G36*
X119805543Y-65480931D02*
G01*
X102797118Y-65480931D01*
X102797118Y-64664301D01*
X119805543Y-64664301D01*
X119805543Y-65480931D01*
G37*
G36*
X112484035Y-67029712D02*
G01*
X111751885Y-67029712D01*
X111751885Y-66804434D01*
X112230599Y-66804434D01*
X112230599Y-66072284D01*
X112484035Y-66072284D01*
X112484035Y-67029712D01*
G37*
G36*
X105669401Y-66297561D02*
G01*
X105331486Y-66297561D01*
X105331486Y-67029712D01*
X105078049Y-67029712D01*
X105078049Y-66297561D01*
X104740133Y-66297561D01*
X104740133Y-66072284D01*
X105669401Y-66072284D01*
X105669401Y-66297561D01*
G37*
G36*
X107781375Y-67029712D02*
G01*
X107527938Y-67029712D01*
X107527938Y-66297561D01*
X107360305Y-66297561D01*
X107232683Y-66304952D01*
X107124066Y-66329146D01*
X107060856Y-66364790D01*
X107044744Y-66406304D01*
X107077420Y-66448103D01*
X107160575Y-66484607D01*
X107295900Y-66510232D01*
X107471619Y-66530113D01*
X107471619Y-66748115D01*
X107289151Y-66748115D01*
X107161109Y-66741097D01*
X107001534Y-66702974D01*
X106887343Y-66631835D01*
X106818704Y-66527803D01*
X106795787Y-66391001D01*
X106796220Y-66367779D01*
X106812962Y-66266163D01*
X106857964Y-66189118D01*
X106936619Y-66133926D01*
X107054326Y-66097868D01*
X107216479Y-66078227D01*
X107428475Y-66072284D01*
X107781375Y-66072284D01*
X107781375Y-67029712D01*
G37*
G36*
X119805543Y-60337103D02*
G01*
X119805360Y-60393550D01*
X119803241Y-60532468D01*
X119799123Y-60646820D01*
X119793476Y-60726025D01*
X119786770Y-60759497D01*
X119785759Y-60759749D01*
X119747380Y-60761266D01*
X119655218Y-60762749D01*
X119511450Y-60764194D01*
X119318257Y-60765596D01*
X119077814Y-60766951D01*
X118792302Y-60768253D01*
X118463897Y-60769497D01*
X118094779Y-60770680D01*
X117687125Y-60771795D01*
X117243114Y-60772839D01*
X116764924Y-60773806D01*
X116254732Y-60774692D01*
X115714719Y-60775491D01*
X115147060Y-60776200D01*
X114553936Y-60776812D01*
X113937523Y-60777324D01*
X113300001Y-60777731D01*
X112643547Y-60778027D01*
X111970340Y-60778209D01*
X111282557Y-60778270D01*
X102797118Y-60778270D01*
X102797118Y-59933481D01*
X119805543Y-59933481D01*
X119805543Y-60337103D01*
G37*
G36*
X119777384Y-67029712D02*
G01*
X119523947Y-67029712D01*
X119523947Y-66291205D01*
X119326920Y-66302338D01*
X119227289Y-66311090D01*
X119134792Y-66331321D01*
X119080523Y-66363557D01*
X119055146Y-66391009D01*
X119047649Y-66419937D01*
X119082335Y-66451616D01*
X119118742Y-66469138D01*
X119200997Y-66492190D01*
X119300573Y-66508979D01*
X119467628Y-66528368D01*
X119467628Y-66755351D01*
X119249390Y-66741601D01*
X119085700Y-66724135D01*
X118966618Y-66692893D01*
X118885026Y-66644403D01*
X118831924Y-66575073D01*
X118815729Y-66536961D01*
X118794244Y-66423430D01*
X118801709Y-66308143D01*
X118837716Y-66216373D01*
X118850134Y-66199801D01*
X118905815Y-66148146D01*
X118982312Y-66111723D01*
X119088404Y-66088375D01*
X119232868Y-66075947D01*
X119424484Y-66072284D01*
X119777384Y-66072284D01*
X119777384Y-67029712D01*
G37*
G36*
X110627868Y-66073303D02*
G01*
X110826732Y-66099587D01*
X110983383Y-66160759D01*
X111096685Y-66255944D01*
X111165501Y-66384267D01*
X111188692Y-66544853D01*
X111182621Y-66643255D01*
X111141300Y-66783370D01*
X111056029Y-66894276D01*
X110921112Y-66985349D01*
X110871066Y-67004298D01*
X110755479Y-67023281D01*
X110590299Y-67029538D01*
X110343902Y-67029712D01*
X110343902Y-66804434D01*
X110566676Y-66804434D01*
X110645188Y-66804032D01*
X110729701Y-66799758D01*
X110783652Y-66787012D01*
X110822663Y-66761217D01*
X110862353Y-66717795D01*
X110891654Y-66678673D01*
X110933097Y-66574424D01*
X110918465Y-66474296D01*
X110847798Y-66379258D01*
X110836122Y-66368491D01*
X110787127Y-66330070D01*
X110735348Y-66308725D01*
X110662956Y-66299531D01*
X110552122Y-66297561D01*
X110343902Y-66297561D01*
X110343902Y-66072284D01*
X110574369Y-66072284D01*
X110627868Y-66073303D01*
G37*
G36*
X106007317Y-66391755D02*
G01*
X106009343Y-66527021D01*
X106019891Y-66652714D01*
X106043278Y-66736625D01*
X106083716Y-66786712D01*
X106145417Y-66810930D01*
X106232594Y-66817234D01*
X106304213Y-66813408D01*
X106370763Y-66793486D01*
X106415192Y-66749315D01*
X106441711Y-66672941D01*
X106454533Y-66556406D01*
X106457871Y-66391755D01*
X106457871Y-66072284D01*
X106711308Y-66072284D01*
X106711308Y-66411598D01*
X106711048Y-66469065D01*
X106704584Y-66644424D01*
X106686190Y-66774823D01*
X106651552Y-66868877D01*
X106596354Y-66935199D01*
X106516282Y-66982406D01*
X106407021Y-67019110D01*
X106309772Y-67038113D01*
X106122396Y-67031952D01*
X105932496Y-66969741D01*
X105875557Y-66939056D01*
X105812501Y-66886339D01*
X105769407Y-66815403D01*
X105742858Y-66716809D01*
X105729435Y-66581122D01*
X105725721Y-66398904D01*
X105725721Y-66072284D01*
X106007317Y-66072284D01*
X106007317Y-66391755D01*
G37*
G36*
X104258052Y-66079148D02*
G01*
X104412243Y-66109910D01*
X104531348Y-66168507D01*
X104624845Y-66258349D01*
X104689818Y-66370577D01*
X104729217Y-66511955D01*
X104728308Y-66647442D01*
X104703704Y-66720029D01*
X104635754Y-66828735D01*
X104544017Y-66925535D01*
X104444980Y-66990469D01*
X104434871Y-66994341D01*
X104355733Y-67011573D01*
X104242483Y-67023704D01*
X104113581Y-67028609D01*
X103867184Y-67029712D01*
X103867184Y-66804434D01*
X104089544Y-66804434D01*
X104181505Y-66803900D01*
X104260647Y-66798901D01*
X104312493Y-66784215D01*
X104353294Y-66754621D01*
X104399300Y-66704896D01*
X104452246Y-66641293D01*
X104480271Y-66587970D01*
X104476421Y-66536682D01*
X104444618Y-66466830D01*
X104441362Y-66460617D01*
X104386040Y-66380444D01*
X104314701Y-66330470D01*
X104214381Y-66304806D01*
X104072116Y-66297561D01*
X103867184Y-66297561D01*
X103867184Y-66072284D01*
X104107663Y-66072284D01*
X104258052Y-66079148D01*
G37*
G36*
X114227748Y-66080643D02*
G01*
X114388120Y-66126174D01*
X114409024Y-66135850D01*
X114482104Y-66175978D01*
X114533315Y-66222313D01*
X114566484Y-66284863D01*
X114585438Y-66373639D01*
X114594004Y-66498648D01*
X114596009Y-66669902D01*
X114596009Y-67029712D01*
X114342572Y-67029712D01*
X114342572Y-66719956D01*
X114341607Y-66588872D01*
X114337292Y-66491141D01*
X114327826Y-66427185D01*
X114311412Y-66385325D01*
X114286253Y-66353880D01*
X114225418Y-66314440D01*
X114124689Y-66295475D01*
X114020075Y-66313147D01*
X113932977Y-66366680D01*
X113925687Y-66374073D01*
X113897100Y-66408595D01*
X113878997Y-66449157D01*
X113869005Y-66508326D01*
X113864749Y-66598669D01*
X113863858Y-66732755D01*
X113863858Y-67029712D01*
X113610421Y-67029712D01*
X113610465Y-66712916D01*
X113611868Y-66599348D01*
X113622153Y-66446369D01*
X113645715Y-66333440D01*
X113686410Y-66250630D01*
X113748095Y-66188008D01*
X113834625Y-66135643D01*
X113887759Y-66112654D01*
X114053425Y-66076265D01*
X114227748Y-66080643D01*
G37*
G36*
X103846064Y-61229314D02*
G01*
X103948213Y-61229467D01*
X104205112Y-61231013D01*
X104414090Y-61234391D01*
X104581359Y-61239850D01*
X104713128Y-61247637D01*
X104815609Y-61258000D01*
X104895011Y-61271188D01*
X104921733Y-61277051D01*
X105165483Y-61354228D01*
X105390460Y-61466975D01*
X105587485Y-61608805D01*
X105747379Y-61773231D01*
X105860960Y-61953768D01*
X105936918Y-62115854D01*
X105945547Y-63150721D01*
X105954175Y-64185587D01*
X105162528Y-64185587D01*
X105162528Y-63312638D01*
X103923503Y-63312638D01*
X103923503Y-62552328D01*
X105162528Y-62552328D01*
X105162528Y-62459282D01*
X105142713Y-62351543D01*
X105075719Y-62227780D01*
X104969987Y-62115939D01*
X104834455Y-62027777D01*
X104793783Y-62008195D01*
X104734755Y-61983206D01*
X104675525Y-61965668D01*
X104604872Y-61953951D01*
X104511571Y-61946425D01*
X104384402Y-61941462D01*
X104212140Y-61937433D01*
X103754545Y-61927970D01*
X103754545Y-64185587D01*
X102994235Y-64185587D01*
X102994235Y-61228825D01*
X103846064Y-61229314D01*
G37*
G36*
X118092164Y-66072326D02*
G01*
X118284967Y-66085931D01*
X118435294Y-66126201D01*
X118551538Y-66196536D01*
X118642097Y-66300336D01*
X118670750Y-66346753D01*
X118696958Y-66410263D01*
X118705926Y-66484554D01*
X118702295Y-66592112D01*
X118698128Y-66646785D01*
X118683894Y-66737393D01*
X118657160Y-66801175D01*
X118610952Y-66858464D01*
X118602347Y-66867193D01*
X118523114Y-66934231D01*
X118443298Y-66985029D01*
X118389609Y-67003992D01*
X118267819Y-67022637D01*
X118094845Y-67029070D01*
X117834368Y-67029712D01*
X117834368Y-66804434D01*
X118068457Y-66804434D01*
X118147133Y-66804010D01*
X118236670Y-66799845D01*
X118294810Y-66787970D01*
X118336881Y-66764476D01*
X118378213Y-66725455D01*
X118414963Y-66680150D01*
X118454168Y-66578312D01*
X118437926Y-66476201D01*
X118366423Y-66379258D01*
X118344094Y-66358975D01*
X118297974Y-66325471D01*
X118245877Y-66307016D01*
X118171032Y-66299188D01*
X118056667Y-66297561D01*
X117834368Y-66297561D01*
X117834368Y-66072284D01*
X118078914Y-66072284D01*
X118092164Y-66072326D01*
G37*
G36*
X117778049Y-67029712D02*
G01*
X117524612Y-67029712D01*
X117524612Y-66297561D01*
X117356979Y-66297561D01*
X117229997Y-66304787D01*
X117121073Y-66328668D01*
X117057614Y-66363930D01*
X117041313Y-66405054D01*
X117073863Y-66446518D01*
X117156959Y-66482802D01*
X117292295Y-66508386D01*
X117468293Y-66528368D01*
X117468293Y-66748115D01*
X117314512Y-66748115D01*
X117248955Y-66751663D01*
X117136566Y-66784325D01*
X117068670Y-66850777D01*
X117045898Y-66950543D01*
X117045244Y-66977697D01*
X117034107Y-67012941D01*
X116997165Y-67027106D01*
X116919180Y-67029712D01*
X116792461Y-67029712D01*
X116792461Y-66902002D01*
X116793612Y-66871485D01*
X116809182Y-66777056D01*
X116837146Y-66706096D01*
X116859539Y-66668556D01*
X116865973Y-66625544D01*
X116837146Y-66574103D01*
X116812337Y-66522551D01*
X116794473Y-66416678D01*
X116803186Y-66305541D01*
X116838381Y-66216373D01*
X116850799Y-66199801D01*
X116906481Y-66148146D01*
X116982978Y-66111723D01*
X117089069Y-66088375D01*
X117233533Y-66075947D01*
X117425149Y-66072284D01*
X117778049Y-66072284D01*
X117778049Y-67029712D01*
G37*
G36*
X113078860Y-66072409D02*
G01*
X113250689Y-66095822D01*
X113386727Y-66160902D01*
X113490743Y-66269387D01*
X113497911Y-66280101D01*
X113523071Y-66325370D01*
X113539421Y-66377141D01*
X113548810Y-66447863D01*
X113553087Y-66549986D01*
X113554102Y-66695960D01*
X113554102Y-67029712D01*
X113300665Y-67029712D01*
X113300665Y-66732755D01*
X113300642Y-66701409D01*
X113299260Y-66577212D01*
X113294032Y-66494209D01*
X113282586Y-66439831D01*
X113262548Y-66401511D01*
X113231546Y-66366680D01*
X113208131Y-66346253D01*
X113109037Y-66302567D01*
X112999344Y-66305608D01*
X112896148Y-66355924D01*
X112849390Y-66396667D01*
X112819308Y-66442698D01*
X112838525Y-66472976D01*
X112909113Y-66489603D01*
X113033149Y-66494678D01*
X113244346Y-66494678D01*
X113244346Y-66748115D01*
X112821951Y-66748115D01*
X112821951Y-67029712D01*
X112568514Y-67029712D01*
X112568514Y-66689101D01*
X112568860Y-66609354D01*
X112572371Y-66475379D01*
X112580728Y-66381046D01*
X112595230Y-66315055D01*
X112617179Y-66266108D01*
X112650887Y-66220756D01*
X112756120Y-66141462D01*
X112897365Y-66090376D01*
X113063598Y-66072284D01*
X113078860Y-66072409D01*
G37*
G36*
X103782705Y-67029712D02*
G01*
X103529268Y-67029712D01*
X103529268Y-66297561D01*
X103376223Y-66297561D01*
X103309795Y-66299249D01*
X103183055Y-66316868D01*
X103105209Y-66352915D01*
X103078714Y-66406490D01*
X103079426Y-66422064D01*
X103091680Y-66454103D01*
X103127578Y-66476178D01*
X103197958Y-66493036D01*
X103313656Y-66509425D01*
X103472949Y-66529327D01*
X103472949Y-66748115D01*
X103332151Y-66748115D01*
X103297330Y-66749138D01*
X103179975Y-66775732D01*
X103102232Y-66840452D01*
X103060234Y-66946113D01*
X103054829Y-66970548D01*
X103035994Y-67010184D01*
X102995771Y-67026522D01*
X102916733Y-67029712D01*
X102789952Y-67029712D01*
X102803683Y-66886811D01*
X102810617Y-66837487D01*
X102832954Y-66752864D01*
X102861046Y-66700278D01*
X102886348Y-66667293D01*
X102884176Y-66630033D01*
X102851003Y-66568622D01*
X102840867Y-66551013D01*
X102800095Y-66426049D01*
X102809402Y-66305223D01*
X102865842Y-66199940D01*
X102966467Y-66121607D01*
X102994567Y-66109112D01*
X103057464Y-66091189D01*
X103142331Y-66079905D01*
X103260591Y-66074028D01*
X103423670Y-66072327D01*
X103782705Y-66072284D01*
X103782705Y-67029712D01*
G37*
G36*
X115676887Y-66638703D02*
G01*
X115656446Y-66717089D01*
X115584777Y-66847704D01*
X115467352Y-66953777D01*
X115300000Y-67039745D01*
X115290966Y-67042886D01*
X115205379Y-67051093D01*
X115095626Y-67038633D01*
X114984546Y-67009557D01*
X114894981Y-66967915D01*
X114861086Y-66943982D01*
X114754399Y-66830699D01*
X114696369Y-66689967D01*
X114686806Y-66530904D01*
X114935602Y-66530904D01*
X114946769Y-66642072D01*
X115003044Y-66735315D01*
X115017190Y-66748394D01*
X115111075Y-66796925D01*
X115213096Y-66800236D01*
X115309471Y-66763120D01*
X115386417Y-66690372D01*
X115430151Y-66586784D01*
X115432234Y-66575200D01*
X115433587Y-66516035D01*
X115408637Y-66463461D01*
X115348458Y-66396706D01*
X115330571Y-66379663D01*
X115227214Y-66312695D01*
X115128122Y-66299015D01*
X115039283Y-66338111D01*
X114966684Y-66429468D01*
X114935602Y-66530904D01*
X114686806Y-66530904D01*
X114686148Y-66519965D01*
X114687337Y-66505036D01*
X114715980Y-66359659D01*
X114779057Y-66245947D01*
X114886007Y-66146247D01*
X114928189Y-66122638D01*
X115034476Y-66091212D01*
X115160874Y-66075686D01*
X115285051Y-66078107D01*
X115384674Y-66100524D01*
X115441838Y-66130521D01*
X115550138Y-66227346D01*
X115631237Y-66355045D01*
X115676399Y-66497528D01*
X115676463Y-66516035D01*
X115676887Y-66638703D01*
G37*
G36*
X110264107Y-66723007D02*
G01*
X110197321Y-66855370D01*
X110084124Y-66959067D01*
X109921508Y-67038147D01*
X109818332Y-67056810D01*
X109681535Y-67038343D01*
X109547155Y-66980179D01*
X109429211Y-66888787D01*
X109341721Y-66770633D01*
X109319904Y-66711094D01*
X109303924Y-66589947D01*
X109307265Y-66528222D01*
X109556392Y-66528222D01*
X109566221Y-66633059D01*
X109629671Y-66730195D01*
X109651175Y-66749742D01*
X109750395Y-66800616D01*
X109853364Y-66801032D01*
X109948034Y-66753169D01*
X110022359Y-66659204D01*
X110052184Y-66562908D01*
X110033061Y-66468525D01*
X109960478Y-66372370D01*
X109928728Y-66344342D01*
X109833009Y-66300482D01*
X109734818Y-66312353D01*
X109637745Y-66379874D01*
X109599981Y-66424556D01*
X109556392Y-66528222D01*
X109307265Y-66528222D01*
X109311029Y-66458669D01*
X109341247Y-66342608D01*
X109353040Y-66318960D01*
X109411475Y-66239139D01*
X109485978Y-66168213D01*
X109505339Y-66153900D01*
X109578330Y-66111851D01*
X109661412Y-66088797D01*
X109777602Y-66077586D01*
X109845127Y-66074842D01*
X109932633Y-66078563D01*
X109997709Y-66096835D01*
X110061636Y-66133877D01*
X110076893Y-66144494D01*
X110196572Y-66256288D01*
X110265488Y-66387610D01*
X110287583Y-66545648D01*
X110287494Y-66557929D01*
X110286789Y-66562908D01*
X110264107Y-66723007D01*
G37*
G36*
X116239957Y-66073972D02*
G01*
X116409729Y-66084888D01*
X116534229Y-66109056D01*
X116619881Y-66150064D01*
X116673109Y-66211502D01*
X116700334Y-66296958D01*
X116707982Y-66410021D01*
X116707270Y-66435366D01*
X116688286Y-66522169D01*
X116638732Y-66586957D01*
X116552278Y-66633504D01*
X116422594Y-66665585D01*
X116243348Y-66686972D01*
X116167659Y-66694169D01*
X116078611Y-66707666D01*
X116031720Y-66724841D01*
X116018071Y-66748115D01*
X116024971Y-66764582D01*
X116054444Y-66778147D01*
X116115005Y-66787467D01*
X116215063Y-66793764D01*
X116363027Y-66798261D01*
X116707982Y-66806168D01*
X116707982Y-67029712D01*
X116334867Y-67029606D01*
X116297812Y-67029557D01*
X116149894Y-67027906D01*
X116044627Y-67022929D01*
X115970715Y-67013285D01*
X115916859Y-66997633D01*
X115871761Y-66974630D01*
X115864068Y-66969735D01*
X115788941Y-66887844D01*
X115754969Y-66773555D01*
X115764730Y-66635040D01*
X115804276Y-66560350D01*
X115891922Y-66496171D01*
X116017662Y-66454215D01*
X116172949Y-66438593D01*
X116225215Y-66437641D01*
X116353808Y-66426773D01*
X116429658Y-66403604D01*
X116454545Y-66367688D01*
X116454137Y-66360461D01*
X116440552Y-66334133D01*
X116401958Y-66316061D01*
X116330542Y-66304862D01*
X116218496Y-66299156D01*
X116058007Y-66297561D01*
X115750554Y-66297561D01*
X115750554Y-66072284D01*
X116103454Y-66072284D01*
X116239957Y-66073972D01*
G37*
G36*
X108956062Y-66086253D02*
G01*
X109049481Y-66115000D01*
X109094456Y-66141977D01*
X109146074Y-66191689D01*
X109181446Y-66260815D01*
X109203314Y-66358518D01*
X109214423Y-66493964D01*
X109217517Y-66676318D01*
X109217517Y-67029712D01*
X108964080Y-67029712D01*
X108964080Y-66718104D01*
X108963622Y-66640764D01*
X108958171Y-66496886D01*
X108944641Y-66398248D01*
X108920628Y-66337229D01*
X108883731Y-66306208D01*
X108831548Y-66297561D01*
X108788318Y-66299794D01*
X108730971Y-66317420D01*
X108692314Y-66359323D01*
X108668931Y-66433458D01*
X108657406Y-66547779D01*
X108654324Y-66710240D01*
X108654324Y-67029712D01*
X108400887Y-67029712D01*
X108400887Y-66718104D01*
X108399542Y-66585219D01*
X108392349Y-66460174D01*
X108376230Y-66376944D01*
X108348186Y-66327470D01*
X108305216Y-66303695D01*
X108244321Y-66297561D01*
X108197970Y-66301465D01*
X108152286Y-66322487D01*
X108121468Y-66368690D01*
X108102809Y-66447822D01*
X108093599Y-66567632D01*
X108091131Y-66735869D01*
X108091131Y-67029712D01*
X107837694Y-67029712D01*
X107837851Y-66726995D01*
X107839510Y-66603779D01*
X107851898Y-66423724D01*
X107879586Y-66289164D01*
X107926342Y-66193672D01*
X107995934Y-66130820D01*
X108092131Y-66094179D01*
X108218701Y-66077323D01*
X108279873Y-66074657D01*
X108392260Y-66080976D01*
X108464188Y-66106085D01*
X108481324Y-66116388D01*
X108535690Y-66131875D01*
X108598004Y-66109777D01*
X108614471Y-66102311D01*
X108713655Y-66079620D01*
X108835819Y-66074363D01*
X108956062Y-66086253D01*
G37*
G36*
X110041186Y-61234233D02*
G01*
X110211504Y-61236499D01*
X110398412Y-61239524D01*
X110542763Y-61243177D01*
X110652464Y-61248195D01*
X110735424Y-61255311D01*
X110799549Y-61265262D01*
X110852748Y-61278782D01*
X110902929Y-61296608D01*
X110957999Y-61319473D01*
X110989652Y-61333306D01*
X111256902Y-61480529D01*
X111490328Y-61665592D01*
X111683744Y-61882777D01*
X111830964Y-62126366D01*
X111863120Y-62195512D01*
X111899474Y-62287467D01*
X111921865Y-62375333D01*
X111934876Y-62479244D01*
X111943084Y-62619338D01*
X111944875Y-62668823D01*
X111937400Y-62920588D01*
X111896732Y-63137987D01*
X111818106Y-63333528D01*
X111696757Y-63519719D01*
X111527921Y-63709069D01*
X111462247Y-63771677D01*
X111256861Y-63932657D01*
X111038241Y-64058714D01*
X110821664Y-64140514D01*
X110782844Y-64149407D01*
X110696262Y-64162081D01*
X110579766Y-64171510D01*
X110426765Y-64178035D01*
X110230663Y-64181996D01*
X109984867Y-64183734D01*
X109301996Y-64185587D01*
X109301996Y-63481596D01*
X109926697Y-63481596D01*
X110006353Y-63481557D01*
X110194514Y-63480827D01*
X110337671Y-63478679D01*
X110444161Y-63474468D01*
X110522320Y-63467549D01*
X110580485Y-63457277D01*
X110626992Y-63443007D01*
X110670179Y-63424095D01*
X110697850Y-63409356D01*
X110813179Y-63325877D01*
X110930525Y-63212788D01*
X111033372Y-63087436D01*
X111105199Y-62967174D01*
X111107040Y-62963072D01*
X111151232Y-62797541D01*
X111145582Y-62623580D01*
X111093767Y-62449787D01*
X110999462Y-62284755D01*
X110866344Y-62137081D01*
X110698090Y-62015360D01*
X110555100Y-61933344D01*
X109301996Y-61932816D01*
X109301996Y-61224679D01*
X110041186Y-61234233D01*
G37*
G36*
X119624027Y-62832834D02*
G01*
X119576222Y-63093101D01*
X119482021Y-63341470D01*
X119346012Y-63571318D01*
X119172782Y-63776020D01*
X118966918Y-63948951D01*
X118733009Y-64083486D01*
X118475640Y-64173001D01*
X118339342Y-64196464D01*
X118148482Y-64209631D01*
X117951603Y-64206223D01*
X117774852Y-64185763D01*
X117755380Y-64181688D01*
X117648977Y-64150269D01*
X117522018Y-64102496D01*
X117397894Y-64046981D01*
X117183768Y-63918707D01*
X116972748Y-63733692D01*
X116802679Y-63512709D01*
X116677986Y-63260593D01*
X116616594Y-63058350D01*
X116578180Y-62779388D01*
X116585281Y-62618049D01*
X117364150Y-62618049D01*
X117365227Y-62812954D01*
X117411348Y-62999295D01*
X117499572Y-63167853D01*
X117626957Y-63309412D01*
X117790563Y-63414754D01*
X117847501Y-63438387D01*
X118039644Y-63480694D01*
X118234394Y-63470864D01*
X118419531Y-63409008D01*
X118475097Y-63378181D01*
X118630284Y-63252286D01*
X118750282Y-63091140D01*
X118828137Y-62905894D01*
X118856894Y-62707700D01*
X118856646Y-62663963D01*
X118846930Y-62564766D01*
X118818463Y-62472404D01*
X118764220Y-62360568D01*
X118675079Y-62222634D01*
X118535421Y-62080783D01*
X118376883Y-61983447D01*
X118206941Y-61930738D01*
X118033070Y-61922770D01*
X117862747Y-61959658D01*
X117703448Y-62041513D01*
X117562648Y-62168450D01*
X117447823Y-62340582D01*
X117411058Y-62423798D01*
X117364150Y-62618049D01*
X116585281Y-62618049D01*
X116590284Y-62504367D01*
X116650145Y-62239425D01*
X116755000Y-61990697D01*
X116902087Y-61764321D01*
X117088645Y-61566432D01*
X117311912Y-61403169D01*
X117569125Y-61280666D01*
X117677548Y-61250150D01*
X117860329Y-61222622D01*
X118065275Y-61211886D01*
X118274084Y-61217946D01*
X118468455Y-61240806D01*
X118630085Y-61280469D01*
X118856085Y-61380028D01*
X119085667Y-61535879D01*
X119279346Y-61732192D01*
X119434185Y-61965253D01*
X119547248Y-62231349D01*
X119615597Y-62526766D01*
X119620849Y-62567296D01*
X119622529Y-62707700D01*
X119624027Y-62832834D01*
G37*
G36*
X107014024Y-61229159D02*
G01*
X107145947Y-61229309D01*
X107387645Y-61230616D01*
X107584316Y-61234098D01*
X107743627Y-61240764D01*
X107873246Y-61251621D01*
X107980843Y-61267679D01*
X108074084Y-61289945D01*
X108160637Y-61319428D01*
X108248172Y-61357135D01*
X108344355Y-61404075D01*
X108351234Y-61407589D01*
X108488920Y-61494375D01*
X108638138Y-61613712D01*
X108783456Y-61751076D01*
X108909444Y-61891942D01*
X109000670Y-62021788D01*
X109020923Y-62058980D01*
X109104076Y-62273636D01*
X109150578Y-62514667D01*
X109160668Y-62768543D01*
X109134587Y-63021733D01*
X109072577Y-63260705D01*
X108974877Y-63471929D01*
X108969165Y-63481377D01*
X108829136Y-63673417D01*
X108657679Y-63848905D01*
X108466667Y-63998483D01*
X108267970Y-64112795D01*
X108073459Y-64182483D01*
X108046961Y-64187541D01*
X107951876Y-64198572D01*
X107828571Y-64206783D01*
X107696896Y-64210687D01*
X107512408Y-64209098D01*
X107196309Y-64186462D01*
X106926979Y-64137302D01*
X106702026Y-64060691D01*
X106519059Y-63955701D01*
X106375685Y-63821403D01*
X106269510Y-63656869D01*
X106246611Y-63609227D01*
X106225927Y-63559434D01*
X106210759Y-63507341D01*
X106200057Y-63443944D01*
X106192769Y-63360242D01*
X106187847Y-63247233D01*
X106184239Y-63095914D01*
X106180895Y-62897284D01*
X106171435Y-62298891D01*
X107725055Y-62298891D01*
X107725055Y-63115521D01*
X106961507Y-63115521D01*
X106970166Y-63233809D01*
X106974358Y-63269532D01*
X107000820Y-63345640D01*
X107055331Y-63400861D01*
X107144850Y-63438653D01*
X107276331Y-63462477D01*
X107456732Y-63475793D01*
X107496064Y-63477363D01*
X107658416Y-63477122D01*
X107784290Y-63459772D01*
X107889324Y-63419825D01*
X107989156Y-63351790D01*
X108099427Y-63250178D01*
X108245088Y-63075590D01*
X108334762Y-62898466D01*
X108368349Y-62720006D01*
X108345812Y-62541343D01*
X108267116Y-62363611D01*
X108132227Y-62187944D01*
X108079322Y-62132102D01*
X108018648Y-62073472D01*
X107959073Y-62027639D01*
X107893420Y-61993029D01*
X107814511Y-61968067D01*
X107715170Y-61951175D01*
X107588219Y-61940780D01*
X107426481Y-61935305D01*
X107222778Y-61933176D01*
X106969934Y-61932816D01*
X106176275Y-61932816D01*
X106176275Y-61228825D01*
X107014024Y-61229159D01*
G37*
G36*
X113809254Y-61257487D02*
G01*
X114078511Y-61358719D01*
X114279083Y-61457270D01*
X114386073Y-61384664D01*
X114517618Y-61311443D01*
X114681690Y-61256772D01*
X114877989Y-61225642D01*
X115116962Y-61215637D01*
X115243284Y-61218994D01*
X115515306Y-61255169D01*
X115749258Y-61331770D01*
X115946855Y-61449710D01*
X116109812Y-61609902D01*
X116239842Y-61813259D01*
X116254417Y-61842966D01*
X116284835Y-61914626D01*
X116309516Y-61992332D01*
X116329037Y-62082368D01*
X116343975Y-62191016D01*
X116354904Y-62324559D01*
X116362402Y-62489279D01*
X116367044Y-62691460D01*
X116369407Y-62937383D01*
X116370067Y-63233331D01*
X116370067Y-64185587D01*
X115555491Y-64185587D01*
X115547424Y-63187942D01*
X115545467Y-62956800D01*
X115543186Y-62736819D01*
X115540539Y-62562153D01*
X115537163Y-62426901D01*
X115532697Y-62325162D01*
X115526777Y-62251033D01*
X115519040Y-62198611D01*
X115509123Y-62161996D01*
X115496663Y-62135284D01*
X115481298Y-62112575D01*
X115468768Y-62096376D01*
X115351688Y-61986758D01*
X115219753Y-61923525D01*
X115082637Y-61906452D01*
X114950015Y-61935313D01*
X114831564Y-62009882D01*
X114736958Y-62129933D01*
X114666408Y-62256652D01*
X114657993Y-63221120D01*
X114649579Y-64185587D01*
X113866575Y-64185587D01*
X113858177Y-63207040D01*
X113856860Y-63058427D01*
X113854439Y-62824485D01*
X113851716Y-62637494D01*
X113848325Y-62491378D01*
X113843900Y-62380063D01*
X113838076Y-62297474D01*
X113830485Y-62237535D01*
X113820763Y-62194173D01*
X113808543Y-62161312D01*
X113793459Y-62132877D01*
X113752437Y-62073463D01*
X113637487Y-61971694D01*
X113498358Y-61916121D01*
X113343951Y-61909352D01*
X113183165Y-61953997D01*
X113129571Y-61978665D01*
X113084626Y-62004843D01*
X113048579Y-62037521D01*
X113020448Y-62082235D01*
X112999252Y-62144521D01*
X112984009Y-62229913D01*
X112973739Y-62343948D01*
X112967459Y-62492160D01*
X112964188Y-62680085D01*
X112962946Y-62913258D01*
X112962749Y-63197216D01*
X112962749Y-64185587D01*
X112171205Y-64185587D01*
X112179998Y-63108481D01*
X112180670Y-63026983D01*
X112183005Y-62765874D01*
X112185458Y-62553361D01*
X112188378Y-62383391D01*
X112192117Y-62249913D01*
X112197024Y-62146876D01*
X112203451Y-62068228D01*
X112211748Y-62007918D01*
X112222265Y-61959893D01*
X112235353Y-61918103D01*
X112251363Y-61876497D01*
X112273138Y-61826336D01*
X112395653Y-61627103D01*
X112559722Y-61464084D01*
X112762663Y-61339026D01*
X113001796Y-61253678D01*
X113274439Y-61209786D01*
X113523102Y-61209059D01*
X113809254Y-61257487D01*
G37*
G36*
X124477851Y-59439940D02*
G01*
X124740471Y-59461341D01*
X124975939Y-59496092D01*
X125214681Y-59551670D01*
X125605717Y-59686847D01*
X125974655Y-59869965D01*
X126317758Y-60097242D01*
X126631284Y-60364891D01*
X126911496Y-60669130D01*
X127154652Y-61006173D01*
X127357014Y-61372237D01*
X127514842Y-61763536D01*
X127624397Y-62176287D01*
X127644216Y-62296584D01*
X127665980Y-62514782D01*
X127676612Y-62755899D01*
X127676259Y-63004281D01*
X127665067Y-63244273D01*
X127643182Y-63460222D01*
X127610752Y-63636474D01*
X127541646Y-63859979D01*
X127433767Y-64118650D01*
X127303601Y-64366116D01*
X127161879Y-64579823D01*
X127090246Y-64668549D01*
X126945537Y-64827511D01*
X126783783Y-64986088D01*
X126621110Y-65128809D01*
X126473642Y-65240202D01*
X126325253Y-65340133D01*
X127662084Y-65340133D01*
X127662084Y-67001552D01*
X124620843Y-67001552D01*
X124620843Y-65482662D01*
X124779787Y-65380987D01*
X124796710Y-65370041D01*
X125058273Y-65165896D01*
X125281706Y-64921525D01*
X125465210Y-64639661D01*
X125606988Y-64323038D01*
X125705239Y-63974390D01*
X125705286Y-63974165D01*
X125739035Y-63761676D01*
X125761076Y-63516094D01*
X125770598Y-63259267D01*
X125766791Y-63013042D01*
X125748843Y-62799268D01*
X125720687Y-62628568D01*
X125639451Y-62316360D01*
X125525292Y-62027634D01*
X125381904Y-61768582D01*
X125212980Y-61545392D01*
X125022213Y-61364254D01*
X124813298Y-61231360D01*
X124652187Y-61164423D01*
X124407881Y-61108002D01*
X124166671Y-61103452D01*
X123932355Y-61148150D01*
X123708731Y-61239471D01*
X123499596Y-61374793D01*
X123308747Y-61551489D01*
X123139984Y-61766937D01*
X122997103Y-62018512D01*
X122883903Y-62303591D01*
X122804181Y-62619548D01*
X122790887Y-62702606D01*
X122770248Y-62908930D01*
X122759718Y-63142089D01*
X122759513Y-63382682D01*
X122769848Y-63611306D01*
X122790940Y-63808559D01*
X122832901Y-64028190D01*
X122939001Y-64374031D01*
X123088274Y-64686370D01*
X123279515Y-64963274D01*
X123511522Y-65202808D01*
X123783093Y-65403040D01*
X123916851Y-65485762D01*
X123916851Y-67001552D01*
X120875610Y-67001552D01*
X120875610Y-65340133D01*
X122177149Y-65340133D01*
X122012133Y-65218253D01*
X121822544Y-65068119D01*
X121529198Y-64784957D01*
X121286520Y-64477436D01*
X121094706Y-64146105D01*
X120953956Y-63791513D01*
X120864468Y-63414208D01*
X120826440Y-63014741D01*
X120840069Y-62593659D01*
X120905555Y-62151513D01*
X120906892Y-62144925D01*
X121008691Y-61751387D01*
X121148864Y-61390663D01*
X121331899Y-61054495D01*
X121562281Y-60734623D01*
X121844496Y-60422788D01*
X121970389Y-60301687D01*
X122297719Y-60033339D01*
X122642549Y-59816718D01*
X123009912Y-59649365D01*
X123404842Y-59528825D01*
X123832373Y-59452641D01*
X123961474Y-59440622D01*
X124210659Y-59432748D01*
X124477851Y-59439940D01*
G37*
%LPC*%
D10*
X132800000Y-60200000D03*
D11*
X94900000Y-68060000D03*
D12*
X94900000Y-70600000D03*
X94900000Y-73140000D03*
X94900000Y-75680000D03*
D13*
X124800000Y-69300000D03*
D14*
X127340000Y-69300000D03*
X124800000Y-71840000D03*
X127340000Y-71840000D03*
X124800000Y-74380000D03*
X127340000Y-74380000D03*
X124800000Y-76920000D03*
X127340000Y-76920000D03*
X124800000Y-79460000D03*
X127340000Y-79460000D03*
X124800000Y-82000000D03*
X127340000Y-82000000D03*
X124800000Y-84540000D03*
X127340000Y-84540000D03*
X124800000Y-87080000D03*
X127340000Y-87080000D03*
D15*
X63600000Y-76000000D03*
D16*
X63600000Y-78500000D03*
X63600000Y-80500000D03*
X63600000Y-83000000D03*
D17*
X60890000Y-72930000D03*
X60890000Y-86070000D03*
D10*
X52800000Y-96200000D03*
X52800000Y-60200000D03*
D11*
X56300000Y-91500000D03*
D12*
X58840000Y-91500000D03*
X61380000Y-91500000D03*
X63920000Y-91500000D03*
X66460000Y-91500000D03*
D10*
X132800000Y-96200000D03*
X134080000Y-81790000D03*
%LPD*%
M02*
